<svg width="59" height="50" viewBox="0 0 59 50" fill="none" xmlns="http://www.w3.org/2000/svg">
<g clip-path="url(#clip0_1481_1066)">
<rect width="58.1633" height="50" fill="white"/>
<rect x="-48" y="-630" width="595" height="1286" fill="#C4C4C4"/>
<path d="M49.4705 19.9433C49.2606 19.4033 49.2606 19.4033 48.6542 19.6033C48.6309 19.6033 48.6309 19.6233 48.6075 19.6433C49.2139 20.8432 48.8874 22.0031 47.9778 23.0831C47.5347 23.643 47.0216 23.783 46.3919 23.583C45.9488 23.4231 45.5057 23.2231 45.0859 23.0031C44.2929 22.5631 43.4533 22.6831 42.707 23.3231C42.1706 23.803 41.844 24.403 41.6575 25.063C41.4242 25.8029 41.2377 26.5429 41.0044 27.2628C40.7479 28.0228 40.2814 28.5427 39.3719 28.5627C39.3952 28.7427 39.4185 28.9027 39.4652 29.1027C39.4185 29.0827 39.3952 29.0627 39.3719 29.0627C39.2086 28.8827 39.0454 28.7027 38.9054 28.5027C37.6227 26.8229 37.0163 24.863 36.923 22.7231C36.7364 18.8633 37.6927 15.1036 39.5118 11.4638C40.0016 10.4638 40.4214 9.42391 40.5613 8.34398C40.6779 7.48403 40.3514 6.88407 39.5584 6.60408C38.5789 6.2641 37.7393 5.76413 36.9463 5.16417C35.547 4.08424 33.8911 4.10424 32.1419 4.7242C31.3256 5.02418 30.7193 5.54415 30.4394 6.3841C30.2995 6.80407 30.1828 7.24404 30.0196 7.66402C29.833 8.14399 29.6231 8.60396 29.4132 9.08393C29.2966 9.32392 29.1333 9.5439 29.0634 9.80389C28.7602 10.7838 28.5036 11.7438 27.9439 12.6637C26.5679 14.9236 24.9586 17.0234 22.8829 18.7633C21.297 20.0833 19.5245 21.1032 17.5188 21.6032C17.3089 21.6632 17.0757 21.7032 16.8424 21.7432C16.8891 21.6632 16.9357 21.6232 17.0057 21.6032C17.3555 21.4632 17.4721 21.2032 17.4721 20.8832C17.4721 20.8232 17.4721 20.7832 17.4721 20.7232C17.4955 19.8233 17.029 19.3833 16.0961 19.3633C15.8162 19.3633 15.5364 19.3433 15.2798 19.3233C14.4402 19.2033 13.6473 19.0033 12.9709 18.5034C12.3645 18.0434 12.2712 17.5634 12.6677 16.8835C12.9709 16.3635 13.3441 15.8835 13.6939 15.3835C14.2303 14.6036 14.3003 13.8836 13.7872 13.1637C13.554 12.8437 13.414 12.4237 13.3208 12.0238C13.2041 11.5038 13.484 11.1238 13.9971 10.8838C14.7434 10.5238 15.3731 10.6438 15.8396 11.2238C15.9795 11.3838 16.0728 11.5638 16.1894 11.7438C16.3293 11.9838 16.4693 12.2437 16.6325 12.4637C17.1456 13.1837 17.8453 13.6637 18.8715 13.6637C18.9181 13.5037 18.9648 13.3637 19.0114 13.1837C18.1018 13.1237 17.5654 12.6237 17.1456 11.9638C16.8891 11.5638 16.6325 11.1638 16.3527 10.8038C16.0495 10.4239 15.6297 10.1839 15.1166 10.0839C14.1137 9.90388 13.0875 10.5838 12.9243 11.5438C12.831 12.0238 12.9709 12.4437 13.2041 12.8237C13.6006 13.4837 13.6239 14.1636 13.2508 14.9036C13.1109 15.1836 12.9476 15.4635 12.8077 15.7235C12.5045 16.2835 12.1546 16.8035 11.8981 17.3834C11.5949 18.0834 11.7348 18.6034 12.3645 18.9633C12.761 19.1833 13.1808 19.3633 13.6239 19.4833C14.3236 19.6633 15.0699 19.8033 15.7929 19.9433C16.1428 20.0033 16.3293 20.2033 16.376 20.5232C16.3993 20.7232 16.446 20.9232 16.3993 21.1232C16.2594 21.8232 16.1894 22.5231 15.9329 23.1831C15.3498 24.663 14.7201 26.1429 14.0437 27.6028C12.5744 30.7626 10.8719 33.8224 8.74956 36.6623C8.39973 37.1222 8.44637 37.4222 8.91282 37.7022C9.33262 37.9622 9.77575 38.2022 10.1956 38.4421C12.3412 39.6421 14.5802 40.702 16.8424 41.6819C18.6383 42.4419 20.4341 43.1619 22.3465 43.6618C25.7982 44.5818 29.3432 45.2017 33.0049 45.4017C33.7512 45.4417 33.8911 45.3417 34.031 44.6218C34.031 44.6018 34.031 44.5818 34.0544 44.5618C34.4275 42.3819 35.0339 40.242 35.7569 38.1022C36.6898 35.3623 37.8093 32.6825 39.0687 30.0627C39.2086 29.7827 39.3252 29.5827 39.6751 29.5827C39.8616 29.5827 40.0715 29.4627 40.2581 29.3827C40.8412 29.0827 41.2843 28.6227 41.6341 28.0628C42.1006 27.3028 42.2872 26.4829 42.4038 25.6429C42.4971 24.843 42.8236 24.123 43.4999 23.5631C43.9664 23.1631 44.3862 23.1031 44.876 23.3631C45.1092 23.4831 45.3424 23.623 45.5756 23.763C46.8817 24.483 48.3043 24.083 49.0973 22.7231C49.6104 21.8032 49.8203 20.8832 49.4705 19.9433ZM32.002 5.50415C33.4247 4.78419 34.824 4.6442 36.2 5.28416C36.4566 5.40416 36.6665 5.60414 36.8531 5.80413C37.2262 6.22411 37.6693 6.52409 38.2524 6.66408C38.7888 6.78407 39.2086 7.08405 39.6284 7.40403C39.9783 7.66402 40.0949 8.024 40.0715 8.46397C40.0249 9.28392 39.6984 10.0439 39.1853 10.7438C38.3224 11.9038 37.6227 13.1437 37.1096 14.4436C36.923 14.9236 36.923 14.8036 37.2962 15.0236C37.3661 15.0636 37.4594 15.1236 37.5294 15.1636C37.5294 15.1836 37.5061 15.2036 37.5061 15.2236C34.3342 14.7836 31.3956 13.8436 28.6669 12.3837C28.6669 12.3637 28.6902 12.3437 28.6902 12.3237C28.7135 12.3237 28.7602 12.3237 28.7835 12.3237C29.2733 12.3837 29.2966 12.3837 29.4132 11.9238C29.5065 11.5238 29.5998 11.1238 29.5998 10.7238C29.6231 10.1439 29.7864 9.5839 30.0196 9.02394C30.2761 8.38398 30.4394 7.74401 30.626 7.08405C30.8359 6.3841 31.3023 5.86413 32.002 5.50415Z" fill="black"/>
<path d="M32.2818 30.6226C32.4451 30.7026 32.5617 30.8026 32.6317 30.8826C32.7016 30.9825 32.7016 31.0625 32.6783 31.1625C32.655 31.2425 32.585 31.3225 32.4917 31.3825C32.3984 31.4425 32.2585 31.4625 32.0953 31.4625H31.2323C30.9991 32.0025 30.7892 32.5225 30.6259 33.0624C30.4627 33.6024 30.3461 34.1424 30.2761 34.6623C30.2061 35.1823 30.2061 35.7223 30.2761 36.2622C30.3461 36.7822 30.486 37.3022 30.7426 37.8221C30.8592 38.0021 30.8825 38.1621 30.8125 38.3021C30.7426 38.4421 30.6493 38.5621 30.5093 38.6421C30.3694 38.7221 30.2061 38.7621 30.0196 38.7621C29.833 38.7621 29.693 38.7021 29.5531 38.6021C29.0867 38.1621 28.7368 37.6821 28.5269 37.1422C28.317 36.6022 28.2004 36.0422 28.2004 35.4423C28.1771 34.8423 28.2471 34.2424 28.387 33.6024C28.5269 32.9624 28.7135 32.3225 28.9467 31.6825C28.1771 31.8225 27.4541 31.9825 26.7311 32.1625C26.0081 32.3625 25.3318 32.5425 24.6787 32.7224C24.119 33.5224 23.5359 34.3023 22.9296 35.0423C22.3465 35.7823 21.7168 36.4422 21.0638 37.0022C20.4107 37.5621 19.7577 38.0021 19.0347 38.3421C18.335 38.6621 17.5887 38.8221 16.8191 38.7821C16.2827 38.7621 15.8162 38.6221 15.4197 38.3621C15.0233 38.1021 14.7201 37.7821 14.5102 37.3822C14.3003 36.9822 14.207 36.5422 14.2303 36.0422C14.2536 35.5423 14.4169 35.0423 14.7201 34.5223C14.8134 34.3623 14.9533 34.2624 15.1632 34.2224C15.3498 34.1824 15.5364 34.1624 15.7229 34.2024C15.8862 34.2424 16.0261 34.3023 16.1194 34.4223C16.2127 34.5423 16.2127 34.6823 16.1427 34.8423C15.7463 35.5223 15.6763 36.0222 15.9562 36.3422C16.236 36.6622 16.7491 36.8422 17.4721 36.8422C17.822 36.8422 18.1718 36.7622 18.5216 36.6022C18.8715 36.4422 19.2213 36.2022 19.5478 35.9023C19.8976 35.6023 20.2242 35.2423 20.574 34.8423C20.9238 34.4223 21.2737 33.9824 21.6235 33.4824C21.1337 33.5824 20.6673 33.6224 20.2242 33.6424C19.781 33.6624 19.3612 33.6224 18.9647 33.5224C18.5683 33.4224 18.1718 33.2624 17.822 33.0424C17.4488 32.8224 17.099 32.5225 16.7724 32.1225C16.5625 31.9225 16.4226 31.7425 16.3526 31.5625C16.306 31.3825 16.306 31.2625 16.376 31.1625C16.4459 31.0625 16.5625 31.0225 16.7491 31.0225C16.9124 31.0225 17.1223 31.1025 17.3555 31.2625C17.7753 31.5425 18.2184 31.7025 18.7082 31.7425C19.198 31.8025 19.6877 31.7825 20.2008 31.7225C20.7139 31.6625 21.227 31.5625 21.7401 31.4225C22.2532 31.2825 22.7663 31.1625 23.2327 31.0625C23.8391 30.1426 24.4688 29.2027 25.1219 28.2427C25.7749 27.2828 26.4512 26.4028 27.1742 25.6229C27.8972 24.8229 28.6435 24.143 29.4365 23.603C30.2295 23.043 31.0691 22.7031 31.9553 22.5631C32.3518 22.5031 32.7016 22.5031 33.0048 22.5631C33.308 22.6231 33.5412 22.7631 33.7278 22.963C33.8911 23.163 34.0077 23.443 34.031 23.803C34.0543 24.163 34.0077 24.5829 33.8444 25.1029C33.6112 25.9629 33.2614 26.8428 32.8182 27.7427C32.3751 28.6427 31.9553 29.5426 31.5355 30.4226L32.2818 30.6226ZM30.0662 25.6829C29.4132 26.1828 28.7602 26.8828 28.1304 27.7627C27.4774 28.6427 26.8244 29.6026 26.148 30.6426C26.7311 30.5426 27.2908 30.4626 27.8506 30.4026C28.4103 30.3426 28.9701 30.3026 29.5298 30.3026C29.8796 29.5426 30.2295 28.7827 30.5793 28.0627C30.9291 27.3428 31.2556 26.6628 31.5122 26.0229C31.6988 25.5629 31.7454 25.2629 31.6988 25.1029C31.6521 24.9629 31.5122 24.9029 31.3256 24.9429C31.139 24.9829 30.9291 25.0829 30.6726 25.2429C30.4627 25.3829 30.2295 25.5429 30.0662 25.6829Z" fill="#C4C4C4"/>
</g>
<defs>
<clipPath id="clip0_1481_1066">
<rect width="58.1633" height="50" fill="white"/>
</clipPath>
</defs>
</svg>
