<svg width="16" height="20" viewBox="0 0 16 20" fill="none" xmlns="http://www.w3.org/2000/svg">
<path fill-rule="evenodd" clip-rule="evenodd" d="M11.9242 2.41833C9.33109 1.9836 6.66898 1.9836 4.07586 2.41833C3.58786 2.50014 3.20027 2.87507 3.10299 3.35801C2.21791 7.75199 2.16962 12.2735 2.96064 16.6854L3.12419 17.5976L6.79472 14.1106C7.47016 13.4689 8.52991 13.4689 9.20535 14.1106L12.8759 17.5976L13.0394 16.6854C13.8304 12.2735 13.7822 7.75199 12.8971 3.35801C12.7998 2.87507 12.4122 2.50014 11.9242 2.41833ZM3.82785 0.938977C6.58516 0.476721 9.41491 0.476721 12.1722 0.938977C13.2714 1.12326 14.147 1.96707 14.3675 3.06181C15.2899 7.64072 15.3402 12.3525 14.5159 16.9501L14.2944 18.1854C14.1085 19.2223 12.8445 19.6367 12.0808 18.9112L8.17222 15.1981C8.07573 15.1064 7.92434 15.1064 7.82785 15.1981L3.91931 18.9112C3.15561 19.6367 1.89157 19.2223 1.70567 18.1854L1.48419 16.9501C0.65987 12.3525 0.710195 7.64073 1.63252 3.06181C1.85304 1.96707 2.72863 1.12326 3.82785 0.938977Z" fill="white"/>
</svg>
