<svg width="176" height="75" viewBox="0 0 176 75" fill="none" xmlns="http://www.w3.org/2000/svg">
<path fill-rule="evenodd" clip-rule="evenodd" d="M14.5 42.9264C14.6 43.531 14.2 43.9341 13.3 44.0348C12.5 44.1356 11.4 44.0348 10.2 43.6318C8.90002 43.2287 7.60002 42.7249 6.20002 41.9187C4.80002 41.1126 3.60002 40.1049 2.50002 38.9965C1.50002 37.7873 0.700022 36.4774 0.200022 34.9659C-0.299978 33.4544 -0.199978 31.8421 0.400022 30.0283C1.10002 27.8115 2.60002 25.9977 4.70002 24.6877C7.00002 23.1762 9.60002 22.1686 12.6 21.6647C15.6 21.0601 18.8 20.9594 22.3 21.1609C25.8 21.3624 29.3 22.0678 32.9 23.0755C33.3881 22.2431 33.8762 21.425 34.359 20.6157C35.1621 19.2696 35.9506 17.948 36.7 16.6264C37.451 15.3021 38.1237 14.0567 38.7671 12.8655L38.7674 12.8649L38.7678 12.8641L38.768 12.8638C39.1523 12.1523 39.5262 11.4601 39.9 10.782C40.3688 9.93169 40.7937 9.12568 41.1951 8.36397L41.1954 8.36358C41.6502 7.5006 42.0751 6.69448 42.5 5.94521C42.8987 5.1418 43.2973 4.43643 43.6406 3.82911C43.9 3.37002 44.1278 2.96696 44.3 2.61992C44.8 1.61226 45.6 1.00766 46.7 0.604597C47.6 0.100766 48.8 0 50 0C51.2 0.100766 52.4 0.302299 53.7 0.705363C55 1.10843 56.1 1.61226 57 2.11609C57.9 2.72069 58.7 3.32528 59.2 4.03065C59.7 4.73601 59.8 5.34061 59.6 5.94521C59.3 6.75134 58.9 7.96053 58.5 9.87509C58.1 11.6889 57.7 13.9057 57.3 16.4249C56.9 18.944 56.5 21.6647 56.1 24.587C55.7 27.5092 55.4 30.5322 55.1 33.5551C56.3 33.9582 57.2 34.059 57.8 33.6559C58.2 33.3536 58.6 33.3536 59 33.6559C59.3 33.8574 59.6 34.2605 59.8 34.7643C60 35.2682 60 35.8728 59.8 36.4774C59.7 37.082 59.3 37.6866 58.8 38.1904C57.9 38.9965 56.6 39.0973 54.7 38.5935C54.5 41.1126 54.4 43.4302 54.4 45.6471V45.6473C54.4 47.8641 54.4 49.8793 54.5 51.5923C54.6 53.3053 54.8 54.8168 55.1 55.9252C55.4 57.0337 55.9 57.739 56.5 58.0413C57.2 58.3436 57.6 58.7467 57.4 59.2505C57.3 59.7544 56.9 60.1574 56.2 60.5605C55.5 60.9636 54.7 61.2659 53.6 61.5681C52.5 61.8704 51.4 61.8704 50.2 61.7697C49 61.6689 47.8 61.3666 46.7 60.762C45.5 60.2582 44.5 59.3513 43.7 58.1421C42.8 56.9329 42.3 55.4214 41.9 53.6076C41.6 51.7938 41.4 49.7785 41.5 47.6624C41.5 45.5463 41.7 43.2287 42 40.9111C42.3 38.5935 42.7 36.2758 43.2 34.059C42.8 33.9078 42.425 33.7819 42.05 33.6559C41.675 33.53 41.3 33.404 40.9 33.2528C40.2736 33.0161 39.6472 32.8412 39.0688 32.6797C38.9085 32.6349 38.7519 32.5912 38.6 32.5475C37 35.772 35.3 39.0973 33.4 42.6241C31.5 46.0502 29.6 49.2747 27.7 52.0961C25.8 55.0183 23.9 57.4367 22 59.3513C20.1 61.3666 18.4 62.475 16.7 62.7773C14.8 63.1804 13 63.0796 11.4 62.5758C9.80002 62.072 8.40002 61.3666 7.20002 60.359C6.00002 59.3513 5.10002 58.3436 4.30002 57.1344C3.50002 55.9252 3.10002 54.8168 2.80002 53.8092C2.60002 52.8015 2.60002 51.9954 2.90002 51.4915C3.20002 50.9877 3.80002 50.7862 4.60002 51.0885C6.20002 51.5923 7.90002 51.4915 9.70002 50.6854C11.5 49.8793 13.4 48.5693 15.4 46.7555C17.4 44.9417 19.3 42.7249 21.3 40.2057C23.3 37.6866 25.3 34.8651 27.2 32.0437C25.1 32.4467 23.3 33.1521 21.7 34.059C20.1 34.9659 18.7 35.8728 17.6 36.9812C16.5 37.9889 15.7 39.0973 15.2 40.1049C14.6 41.2134 14.4 42.1203 14.5 42.9264ZM47 16.0218C46.7 15.9211 46.1 16.9287 45.2 18.944C44.3946 20.5672 43.4595 22.5171 42.3424 24.8464L42.3423 24.8467C42.0724 25.4095 41.7919 25.9944 41.5 26.6023C42.6 27.1061 43.6 27.6099 44.5 28.1138C44.6424 27.5041 44.7721 26.92 44.8981 26.3523L44.8981 26.3522C45.1262 25.3248 45.3424 24.3513 45.6 23.3778C45.8378 22.5391 46.0403 21.7361 46.2284 20.9898L46.2285 20.9895L46.2287 20.9884L46.2288 20.9883C46.3569 20.4798 46.4785 19.9977 46.6 19.5486C46.9 18.4402 47.1 17.6341 47.2 16.9287C47.1652 16.7531 47.1425 16.6019 47.1234 16.4753C47.0879 16.2386 47.0652 16.0875 47 16.0218ZM86.0001 31.7414C86.4001 32.5476 86.7001 33.5552 86.9001 34.8652C87.1001 36.1752 87.2001 37.5859 87.2001 38.9966C87.2001 40.5081 87.1001 42.0196 86.8001 43.7326C86.6001 45.3449 86.2001 46.9571 85.7001 48.5694C86.8001 47.0579 87.9001 45.4456 89.0001 43.6319C89.9799 42.0163 90.8803 40.4008 91.7014 38.714C91.211 38.2259 90.8772 37.5708 90.7002 36.6788C90.5002 35.6711 90.4002 34.6635 90.5002 33.6558C90.6002 32.6482 90.8002 31.6405 91.1002 30.7336C91.4002 29.8267 91.8002 29.1213 92.2002 28.7183C92.5002 28.416 92.9002 28.1137 93.4002 27.9121C93.9002 27.7106 94.4002 27.6098 94.9002 27.6098C95.4002 27.6098 96.0002 27.6098 96.5002 27.7106C97.0002 27.8114 97.4002 28.0129 97.7002 28.3152C97.9002 28.5167 98.1002 28.6931 98.3002 28.8694C98.5002 29.0458 98.7002 29.2221 98.9002 29.4236C99.3002 29.7259 99.6002 30.129 99.7002 30.3305C99.8002 30.4313 100.2 30.3305 101.1 29.9275C101.814 29.6076 102.592 29.3512 103.482 29.0575L103.483 29.0571C103.714 28.9809 103.953 28.9021 104.2 28.819C105.4 28.416 106.6 28.2144 107.9 28.1137C109.2 28.0129 110.2 28.3152 111.1 28.9198C112 29.6252 112.4 30.6328 112.3 31.9428C112.2 33.2528 111.8 34.6635 111.1 36.2757C110.4 37.888 109.6 39.5003 108.6 41.2133C107.843 42.5108 107.143 43.7505 106.5 44.8885C106.294 45.253 106.094 45.6071 105.9 45.9493C105.1 47.36 104.5 48.67 104.1 49.7784C103.7 50.8868 103.7 51.5922 104.2 51.8945C104.5 52.096 105 51.9953 105.5 51.693C106.1 51.2899 106.7 50.7861 107.3 49.9799C108 49.2746 108.7 48.3677 109.4 47.2593C109.559 47.0307 109.723 46.797 109.89 46.5592L109.89 46.5588C110.458 45.7485 111.059 44.8916 111.6 44.0347C112.3 42.9266 112.9 41.9191 113.5 40.9117L113.5 40.911C113.766 40.4649 113.992 40.0385 114.188 39.6406C114.502 38.5902 114.872 37.6417 115.3 36.7796C115.8 33.9582 117.1 31.6406 119 30.0283C120.9 28.416 123 27.4084 125.3 26.9045C127.6 26.5015 129.8 26.6022 132 27.4084C133.9 28.2145 135.4 29.6252 136.5 31.5398C137.4 33.2528 137.9 35.2681 138.1 37.485C138.2 39.7019 138 42.1202 137.5 44.5386C138.2 44.3371 138.8 43.934 139.3 43.3294C139.8 42.7248 140.2 42.0195 140.5 41.4149C140.593 41.1965 140.686 40.9878 140.776 40.7858C140.83 40.6639 140.883 40.5446 140.934 40.4269C141.105 39.5441 141.288 38.6879 141.5 37.8881C141.8 36.276 142.2 34.8654 142.6 33.4548L142.6 33.4544C142.669 33.2297 142.734 33.0109 142.798 32.7986C143.106 31.7731 143.369 30.8977 143.7 30.2299C144 29.323 144.8 28.7184 145.9 28.3153C147.1 27.9123 148.2 27.7107 149.4 27.9123C150.6 28.013 151.6 28.5169 152.5 29.2222C153.4 29.9276 153.6 31.036 153.3 32.4468C153 33.8575 152.6 35.2682 152.1 36.6789C151.926 37.1705 151.752 37.6743 151.573 38.1904C151.24 39.1553 150.891 40.163 150.5 41.2134C151.6 38.795 152.8 36.6789 154.2 34.6636C155.6 32.6483 156.8 31.1368 157.8 30.0284C158.7 29.1215 159.7 28.5169 161 28.1138C162.3 27.8115 163.5 27.7107 164.7 28.013C165.9 28.3153 166.8 28.8192 167.6 29.7261C168.2 30.4314 168.4 31.5399 168.2 33.0514C168.172 33.1785 168.144 33.3075 168.115 33.4391C167.94 34.2466 167.744 35.1495 167.4 36.2759C167 37.5858 166.6 38.8958 166.2 40.3065L166.199 40.3089C165.8 41.7189 165.4 43.1287 165 44.4379C164.6 45.7479 164.3 46.9571 164.2 48.0655C164 49.0732 164 49.9801 164.1 50.4839C164.2 51.0885 164.5 51.29 165.1 51.0885C165.5 50.9877 166 50.4839 166.6 49.577C167.177 48.7052 167.661 47.6472 168.231 46.403L168.3 46.2517C168.9 44.9418 169.5 43.531 170.1 42.0196C170.476 41.0732 170.812 40.1664 171.134 39.299C171.326 38.781 171.513 38.2772 171.7 37.7874C171.9 37.2835 172.3 36.9812 172.7 36.7797C173.2 36.5782 173.6 36.4774 174.1 36.5782C174.5 36.6789 174.9 36.7797 175.1 37.1828C175.4 37.4851 175.4 37.9889 175.2 38.5935C174.8 39.9035 174.3 41.415 173.7 42.9264L171.9 47.4609C171.3 48.9724 170.6 50.3831 169.9 51.6931C169.2 53.0031 168.5 54.1115 167.8 55.0184C166.7 56.3284 165.5 57.336 164.2 57.9406C162.9 58.5452 161.6 58.7467 160.3 58.646C159 58.5452 157.9 58.0414 156.9 57.2352C155.9 56.4291 155.3 55.3207 154.9 53.91C154.5 52.0962 154.4 50.1816 154.7 48.1663C155 46.151 155.4 44.3372 155.9 42.7249C156.4 41.1127 156.8 39.8027 157.1 38.6943C157.4 37.6866 157.5 37.1828 157.2 37.1828C156.9 37.2835 156.4 37.6866 155.7 38.5935C155 39.5004 154.3 40.7096 153.6 42.2211C152.8 43.7326 152.1 45.5464 151.4 47.5617C150.7 49.577 150.1 51.7939 149.7 54.1115C149.4 55.8245 148.8 56.933 147.9 57.7391C147 58.5452 146.1 58.8475 145 58.7467C144 58.646 143 58.3437 142 57.6383C141.1 56.933 140.4 56.0261 140 54.9176C139.7 54.2123 139.6 53.2046 139.6 51.9954C139.6 50.9256 139.667 49.7887 139.746 48.5845C139.537 48.8206 139.322 49.0511 139.1 49.2746C137.9 50.5846 136.4 51.4915 134.8 51.9953C134 53.3053 133.1 54.5145 132.1 55.5221C131.1 56.6306 130 57.5375 128.8 58.1421C127.6 58.8474 126.3 59.2505 124.9 59.5528C123.5 59.7543 122 59.6536 120.5 59.2505C118.3 58.6459 116.6 57.4367 115.4 55.6229C114.2 53.8091 113.6 51.693 113.3 49.4762C113.295 49.4401 113.29 49.404 113.286 49.3679C112.123 51.163 110.885 52.9121 109.6 54.6152C108.4 56.0259 107.2 57.1343 105.8 57.9405C104.4 58.6458 103.1 59.1497 101.7 59.3512C100.4 59.5527 99.1002 59.452 97.9002 59.0489C96.7002 58.6458 95.7002 58.0412 95.0002 57.1343C94.2002 56.2274 93.7002 55.119 93.5002 53.7083C93.3002 52.3983 93.4002 50.7861 93.9002 49.073C94.2002 48.1661 94.6002 47.1585 95.2002 45.9493C95.8001 44.7402 96.4001 43.7326 97 42.7251L97.0002 42.7248C97.1019 42.554 97.2007 42.3889 97.2967 42.2287L97.3002 42.2228L97.3003 42.2226C97.7689 41.4403 98.1688 40.7726 98.5002 40.1049C98.9002 38.9964 99.0002 38.5934 98.8002 38.4926C98.5002 38.2911 98.0002 38.2911 97.4002 38.3918C97.0595 38.5062 96.7189 38.5882 96.3599 38.6745L96.3597 38.6746C96.0865 38.7403 95.8027 38.8086 95.5002 38.8957C95.4465 38.9111 95.3934 38.926 95.3408 38.9403C94.7759 40.5059 94.0624 42.0818 93.2001 43.7326C92.3001 45.6472 91.2001 47.461 90.1001 49.2748C88.9001 50.9878 87.7001 52.6 86.4001 54.0108C85.1001 55.4215 83.8001 56.5299 82.4001 57.3361C81.3001 57.9407 80.3001 58.3437 79.3001 58.5452C78.3001 58.7468 77.3001 58.8475 76.5001 58.7468C75.4001 58.8475 74.3001 58.646 73.0001 58.1422C71.7001 57.7391 70.3001 56.933 68.8001 55.9253C68.7001 57.2353 68.6001 58.646 68.5001 60.1575C68.4002 61.6673 68.3003 63.0766 68.2005 64.4858L68.2001 64.4905C68.1001 65.9012 67.9001 67.2111 67.6001 68.5211C67.4001 69.8311 67.0001 70.9395 66.5001 71.9472C66.0001 73.0556 65.0001 73.8617 63.7001 74.164C62.4001 74.5671 61.1001 74.6678 59.8001 74.4663C58.5001 74.2648 57.5001 73.9625 56.7001 73.4586C55.9001 72.9548 55.6001 72.3502 56.0001 71.7456C56.3001 71.2418 56.7001 69.8311 57.1001 67.6142C57.1747 67.2007 57.2528 66.7766 57.3331 66.3408L57.3336 66.338L57.3337 66.3378C57.6836 64.4377 58.0749 62.313 58.4001 59.8552C58.7325 57.846 59.0206 55.7922 59.3233 53.6348L59.3235 53.6333L59.3241 53.6292C59.4766 52.5425 59.6327 51.4294 59.8001 50.2824C60.3001 46.8564 60.7001 43.7326 61.0001 40.8104C61.4001 37.8882 61.7001 35.369 61.9001 33.3537C62.1001 31.3384 62.3001 30.1292 62.4001 29.8269C62.7001 28.8192 63.3001 28.2146 64.4001 27.8116C65.5001 27.5093 66.6001 27.3077 67.8001 27.4085C69.0001 27.5093 70.0001 27.7108 71.0001 28.2146C71.9001 28.6177 72.4001 29.1215 72.4001 29.6254V30.2299V31.0361C73.1001 30.4315 74.0001 29.8269 74.8001 29.4238C75.7001 29.0208 76.7001 28.6177 77.9001 28.3154C78.3001 28.2146 78.9001 28.1139 79.5001 28.1139C80.2001 28.1139 80.9001 28.2146 81.6001 28.4162C82.3001 28.6177 83.1001 29.0208 83.8001 29.6254C84.9001 30.0284 85.5001 30.7338 86.0001 31.7414ZM69.3001 51.8947C70.3001 52.7008 71.3001 52.9023 72.2001 52.3985C73.1001 51.8947 73.9001 51.0886 74.6001 49.8794C75.3001 48.6702 75.9001 47.2594 76.4001 45.6472C76.9001 44.0349 77.2001 42.4227 77.4001 40.9112C77.6001 39.3997 77.6001 38.0897 77.5001 36.9813C77.4001 35.8729 77.1001 35.1675 76.6001 34.966C75.4001 34.5629 74.4001 34.6637 73.7001 35.4698C73.0001 36.2759 72.2001 37.3843 71.3001 38.7951C71.2862 38.9078 71.2722 39.0225 71.2579 39.1395L71.2579 39.1398C71.1702 39.8591 71.0721 40.6633 70.9001 41.6165C70.8002 42.1706 70.7252 42.7246 70.6502 43.2787L70.6501 43.2792L70.6501 43.2797C70.5751 43.8337 70.5001 44.3878 70.4001 44.9418C70.3749 45.0942 70.3497 45.245 70.3247 45.3946C70.1513 46.432 69.9875 47.4118 69.9001 48.4686C69.6001 49.7786 69.4001 50.887 69.3001 51.8947ZM127.4 47.7631C127.6 46.4532 128.2 45.4455 129.4 44.9417C129.9 43.531 130.3 42.221 130.6 40.8103C130.8 39.5003 130.9 38.3919 130.6 37.485C130.2 36.175 129.5 35.3689 128.5 35.1674C127.5 34.9658 126.6 35.1674 125.9 35.772C126.137 35.772 126.312 35.8351 126.523 35.9113C126.579 35.9314 126.637 35.9525 126.7 35.9735C127 36.175 127.2 36.3766 127.4 36.6789C127.6 36.9812 127.6 37.3842 127.6 37.7873C127.5 38.1904 127.3 38.5934 126.8 38.9965C125.8 40.0042 124.9 41.2133 124.2 42.6241C123.4 44.0348 122.9 45.4455 122.6 46.8563C122.3 48.267 122.2 49.4762 122.4 50.5846C122.6 51.693 123.1 52.3984 124 52.5999C124.5 52.8015 125 52.4992 125.6 51.8946C126.2 51.29 126.8 50.3831 127.5 49.2746C127.3 48.8716 127.3 48.3677 127.4 47.7631Z" fill="white"/>
</svg>
