<svg width="53" height="53" viewBox="0 0 53 53" fill="none" xmlns="http://www.w3.org/2000/svg">
<path fill-rule="evenodd" clip-rule="evenodd" d="M19.4973 38.6256C19.8108 38.2865 20.2516 38.0937 20.7134 38.0937L32.2515 38.0937C32.7142 38.0937 33.1557 38.2872 33.4693 38.6274C33.7829 38.9676 33.9399 39.4235 33.9023 39.8846L33.8594 40.4047C33.7796 41.3715 33.0807 42.1739 32.1348 42.3862C28.4128 43.222 24.5505 43.2223 20.8283 42.3865C19.8795 42.1735 19.1802 41.3672 19.1033 40.3979M19.4973 38.6256C19.1838 38.9647 19.0672 39.9375 19.1033 40.3979L19.4973 38.6256Z" fill="black"/>
<path fill-rule="evenodd" clip-rule="evenodd" d="M30.9166 7.17704L22.0833 7.17704C21.7784 7.17704 21.5312 7.42422 21.5312 7.72913L21.5312 10.8208C21.5312 11.7355 20.7897 12.477 19.875 12.477L18.0855 12.477C17.0082 12.477 16.1122 13.3059 16.0285 14.3799L15.81 17.1812C15.2118 24.8543 15.2118 32.5623 15.81 40.2354L16.0421 43.2114C16.1321 44.3659 16.997 45.3108 18.1392 45.5023C23.6744 46.4302 29.3255 46.4302 34.8608 45.5023C36.0029 45.3108 36.8678 44.3659 36.9579 43.2114L37.1899 40.2354C37.7882 32.5623 37.7882 24.8543 37.1899 17.1812L36.9715 14.3799C36.8877 13.3059 35.9918 12.477 34.9145 12.477L33.125 12.477C32.2102 12.477 31.4687 11.7355 31.4687 10.8208L31.4687 7.72913C31.4687 7.42422 31.2215 7.17704 30.9166 7.17704ZM22.0833 3.86454L30.9166 3.86454C33.051 3.86454 34.7812 5.59478 34.7812 7.72912L34.7812 9.16455L34.9145 9.16455C37.7213 9.16455 40.0558 11.324 40.2739 14.1224L40.4924 16.9237C41.104 24.7682 41.104 32.6484 40.4924 40.4929L40.2603 43.4689C40.052 46.1402 38.051 48.3262 35.4085 48.7692C29.5106 49.7579 23.4893 49.7579 17.5915 48.7692C14.949 48.3262 12.9479 46.1402 12.7396 43.4689L12.5076 40.4929C11.8959 32.6484 11.8959 24.7682 12.5076 16.9237L12.726 14.1224C12.9442 11.324 15.2786 9.16455 18.0855 9.16455L18.2187 9.16455L18.2187 7.72913C18.2187 5.59478 19.949 3.86454 22.0833 3.86454Z" fill="black"/>
<path fill-rule="evenodd" clip-rule="evenodd" d="M19.4973 38.6256C19.8108 38.2865 20.2516 38.0937 20.7134 38.0937L32.2515 38.0937C32.7142 38.0937 33.1557 38.2872 33.4693 38.6274C33.7829 38.9676 33.9399 39.4235 33.9023 39.8846L33.8594 40.4047C33.7796 41.3715 33.0807 42.1739 32.1348 42.3862C28.4128 43.222 24.5505 43.2223 20.8283 42.3865C19.8795 42.1735 19.1802 41.3672 19.1033 40.3979M19.4973 38.6256C19.1838 38.9647 19.0672 39.9375 19.1033 40.3979L19.4973 38.6256Z" fill="#FFE55B"/>
</svg>
