<svg width="342" height="205" viewBox="0 0 342 205" fill="none" xmlns="http://www.w3.org/2000/svg">
<rect width="342" height="205" rx="10" fill="#E5E5EA"/>
<path d="M190.167 102.625C190.167 103.62 189.78 104.573 189.093 105.277C188.405 105.98 187.472 106.375 186.5 106.375H153.5C152.528 106.375 151.595 105.98 150.907 105.277C150.22 104.573 149.833 103.62 149.833 102.625V82C149.833 81.0054 150.22 80.0516 150.907 79.3483C151.595 78.6451 152.528 78.25 153.5 78.25H160.833L164.5 72.625H175.5L179.167 78.25H186.5C187.472 78.25 188.405 78.6451 189.093 79.3483C189.78 80.0516 190.167 81.0054 190.167 82V102.625Z" stroke="black" stroke-width="2" stroke-linecap="round" stroke-linejoin="round"/>
<path d="M170 98.875C174.05 98.875 177.333 95.5171 177.333 91.375C177.333 87.2329 174.05 83.875 170 83.875C165.95 83.875 162.667 87.2329 162.667 91.375C162.667 95.5171 165.95 98.875 170 98.875Z" stroke="black" stroke-width="2" stroke-linecap="round" stroke-linejoin="round"/>
<path d="M124.87 128.455C124.87 129.136 124.655 129.677 124.226 130.079C123.796 130.471 123.222 130.723 122.504 130.835V130.891C123.344 131.003 123.983 131.264 124.422 131.675C124.86 132.085 125.08 132.622 125.08 133.285C125.08 133.873 124.93 134.391 124.632 134.839C124.333 135.277 123.885 135.623 123.288 135.875C122.69 136.127 121.944 136.253 121.048 136.253C120.506 136.253 119.988 136.211 119.494 136.127C119.008 136.052 118.556 135.912 118.136 135.707V134.559C118.425 134.699 118.733 134.82 119.06 134.923C119.396 135.016 119.732 135.091 120.068 135.147C120.404 135.193 120.726 135.217 121.034 135.217C121.93 135.217 122.606 135.049 123.064 134.713C123.53 134.377 123.764 133.901 123.764 133.285C123.764 132.65 123.493 132.188 122.952 131.899C122.41 131.609 121.654 131.465 120.684 131.465H119.256V130.415H120.614C121.276 130.415 121.822 130.34 122.252 130.191C122.69 130.041 123.017 129.831 123.232 129.561C123.456 129.281 123.568 128.954 123.568 128.581C123.568 128.077 123.381 127.689 123.008 127.419C122.634 127.148 122.149 127.013 121.552 127.013C120.926 127.013 120.404 127.092 119.984 127.251C119.573 127.409 119.172 127.615 118.78 127.867L118.178 127.013C118.439 126.817 118.738 126.644 119.074 126.495C119.419 126.336 119.802 126.21 120.222 126.117C120.642 126.023 121.09 125.977 121.566 125.977C122.284 125.977 122.886 126.084 123.372 126.299C123.866 126.513 124.24 126.807 124.492 127.181C124.744 127.545 124.87 127.969 124.87 128.455ZM129.866 128.483C130.781 128.483 131.457 128.683 131.896 129.085C132.335 129.486 132.554 130.125 132.554 131.003V136.113H131.658L131.42 135.049H131.364C131.149 135.319 130.925 135.548 130.692 135.735C130.468 135.912 130.207 136.043 129.908 136.127C129.619 136.211 129.264 136.253 128.844 136.253C128.396 136.253 127.99 136.173 127.626 136.015C127.271 135.856 126.991 135.613 126.786 135.287C126.581 134.951 126.478 134.531 126.478 134.027C126.478 133.28 126.772 132.706 127.36 132.305C127.948 131.894 128.853 131.67 130.076 131.633L131.35 131.591V131.143C131.35 130.517 131.215 130.083 130.944 129.841C130.673 129.598 130.291 129.477 129.796 129.477C129.404 129.477 129.031 129.537 128.676 129.659C128.321 129.771 127.99 129.901 127.682 130.051L127.304 129.127C127.631 128.949 128.018 128.8 128.466 128.679C128.914 128.548 129.381 128.483 129.866 128.483ZM130.23 132.487C129.297 132.524 128.648 132.673 128.284 132.935C127.929 133.196 127.752 133.565 127.752 134.041C127.752 134.461 127.878 134.769 128.13 134.965C128.391 135.161 128.723 135.259 129.124 135.259C129.759 135.259 130.286 135.086 130.706 134.741C131.126 134.386 131.336 133.845 131.336 133.117V132.445L130.23 132.487ZM139.45 128.609V129.645H136.104V136.113H134.872V128.609H139.45ZM144.498 128.469C145.422 128.469 146.164 128.791 146.724 129.435C147.294 130.079 147.578 131.049 147.578 132.347C147.578 133.196 147.448 133.915 147.186 134.503C146.934 135.081 146.575 135.52 146.108 135.819C145.651 136.108 145.11 136.253 144.484 136.253C144.102 136.253 143.761 136.201 143.462 136.099C143.164 135.996 142.907 135.865 142.692 135.707C142.487 135.539 142.31 135.357 142.16 135.161H142.076C142.095 135.319 142.114 135.52 142.132 135.763C142.151 136.005 142.16 136.215 142.16 136.393V139.473H140.928V128.609H141.936L142.104 129.631H142.16C142.31 129.416 142.487 129.22 142.692 129.043C142.907 128.865 143.159 128.725 143.448 128.623C143.747 128.52 144.097 128.469 144.498 128.469ZM144.274 129.505C143.77 129.505 143.364 129.603 143.056 129.799C142.748 129.985 142.524 130.27 142.384 130.653C142.244 131.035 142.17 131.521 142.16 132.109V132.347C142.16 132.963 142.226 133.485 142.356 133.915C142.487 134.344 142.706 134.671 143.014 134.895C143.332 135.119 143.761 135.231 144.302 135.231C144.76 135.231 145.133 135.105 145.422 134.853C145.721 134.601 145.94 134.26 146.08 133.831C146.23 133.392 146.304 132.893 146.304 132.333C146.304 131.474 146.136 130.788 145.8 130.275C145.474 129.761 144.965 129.505 144.274 129.505ZM148.229 128.609H149.545L151.169 132.879C151.262 133.131 151.346 133.373 151.421 133.607C151.505 133.84 151.58 134.069 151.645 134.293C151.71 134.507 151.762 134.717 151.799 134.923H151.855C151.911 134.689 152 134.386 152.121 134.013C152.242 133.63 152.368 133.247 152.499 132.865L154.025 128.609H155.355L152.121 137.149C151.944 137.615 151.734 138.021 151.491 138.367C151.258 138.721 150.968 138.992 150.623 139.179C150.287 139.375 149.876 139.473 149.391 139.473C149.167 139.473 148.971 139.459 148.803 139.431C148.635 139.412 148.49 139.389 148.369 139.361V138.381C148.472 138.399 148.593 138.418 148.733 138.437C148.882 138.455 149.036 138.465 149.195 138.465C149.484 138.465 149.732 138.409 149.937 138.297C150.152 138.194 150.334 138.04 150.483 137.835C150.632 137.639 150.758 137.405 150.861 137.135L151.253 136.141L148.229 128.609ZM158.516 128.469C159.085 128.469 159.58 128.548 160 128.707C160.42 128.856 160.746 129.08 160.98 129.379C161.213 129.668 161.33 130.023 161.33 130.443C161.33 130.9 161.204 131.264 160.952 131.535C160.7 131.796 160.354 131.987 159.916 132.109V132.165C160.214 132.249 160.49 132.365 160.742 132.515C160.994 132.664 161.194 132.86 161.344 133.103C161.502 133.345 161.582 133.658 161.582 134.041C161.582 134.451 161.465 134.825 161.232 135.161C161.008 135.497 160.658 135.763 160.182 135.959C159.715 136.155 159.113 136.253 158.376 136.253C158.021 136.253 157.68 136.234 157.354 136.197C157.036 136.159 156.747 136.103 156.486 136.029C156.234 135.954 156.01 135.865 155.814 135.763V134.657C156.131 134.806 156.504 134.941 156.934 135.063C157.372 135.184 157.848 135.245 158.362 135.245C158.735 135.245 159.071 135.203 159.37 135.119C159.678 135.035 159.92 134.904 160.098 134.727C160.275 134.54 160.364 134.288 160.364 133.971C160.364 133.681 160.284 133.448 160.126 133.271C159.967 133.084 159.729 132.944 159.412 132.851C159.104 132.757 158.707 132.711 158.222 132.711H157.214V131.703H158.026C158.67 131.703 159.183 131.619 159.566 131.451C159.958 131.273 160.154 130.975 160.154 130.555C160.154 130.2 160.004 129.934 159.706 129.757C159.416 129.579 158.996 129.491 158.446 129.491C158.035 129.491 157.671 129.533 157.354 129.617C157.046 129.691 156.705 129.808 156.332 129.967L155.898 128.987C156.299 128.809 156.719 128.679 157.158 128.595C157.596 128.511 158.049 128.469 158.516 128.469ZM164.567 133.187C164.567 133.271 164.562 133.392 164.553 133.551C164.553 133.7 164.548 133.863 164.539 134.041C164.53 134.209 164.52 134.372 164.511 134.531C164.502 134.68 164.492 134.801 164.483 134.895L168.501 128.609H170.013V136.113H168.865V131.689C168.865 131.539 168.865 131.343 168.865 131.101C168.874 130.858 168.884 130.62 168.893 130.387C168.902 130.144 168.912 129.962 168.921 129.841L164.931 136.113H163.405V128.609H164.567V133.187ZM177.581 129.645H175.131V136.113H173.913V129.645H171.491V128.609H177.581V129.645ZM182.517 131.689C183.17 131.689 183.712 131.768 184.141 131.927C184.57 132.085 184.892 132.323 185.107 132.641C185.331 132.949 185.443 133.341 185.443 133.817C185.443 134.283 185.336 134.689 185.121 135.035C184.916 135.38 184.594 135.646 184.155 135.833C183.716 136.019 183.152 136.113 182.461 136.113H179.059V128.609H180.291V131.689H182.517ZM184.211 133.887C184.211 133.429 184.048 133.121 183.721 132.963C183.404 132.795 182.956 132.711 182.377 132.711H180.291V135.119H182.405C182.928 135.119 183.357 135.025 183.693 134.839C184.038 134.652 184.211 134.335 184.211 133.887ZM195.584 128.497C196.331 128.562 196.979 128.758 197.53 129.085C198.09 129.411 198.524 129.85 198.832 130.401C199.14 130.951 199.294 131.605 199.294 132.361C199.294 133.117 199.145 133.775 198.846 134.335C198.547 134.885 198.123 135.324 197.572 135.651C197.021 135.968 196.359 136.159 195.584 136.225V139.473H194.38V136.225C193.643 136.159 192.994 135.968 192.434 135.651C191.874 135.324 191.44 134.885 191.132 134.335C190.824 133.775 190.67 133.117 190.67 132.361C190.67 131.595 190.819 130.937 191.118 130.387C191.417 129.827 191.846 129.388 192.406 129.071C192.966 128.744 193.638 128.553 194.422 128.497V125.473H195.584V128.497ZM194.422 129.519C193.853 129.575 193.386 129.719 193.022 129.953C192.658 130.186 192.387 130.503 192.21 130.905C192.042 131.306 191.958 131.791 191.958 132.361C191.958 132.921 192.042 133.406 192.21 133.817C192.387 134.218 192.658 134.54 193.022 134.783C193.386 135.016 193.853 135.161 194.422 135.217V129.519ZM195.584 135.217C196.144 135.151 196.601 135.002 196.956 134.769C197.32 134.535 197.586 134.218 197.754 133.817C197.931 133.406 198.02 132.921 198.02 132.361C198.02 131.801 197.931 131.32 197.754 130.919C197.577 130.517 197.306 130.2 196.942 129.967C196.587 129.733 196.135 129.589 195.584 129.533V135.217ZM207.773 132.347C207.773 132.972 207.689 133.527 207.521 134.013C207.362 134.489 207.129 134.895 206.821 135.231C206.522 135.567 206.153 135.823 205.715 136.001C205.285 136.169 204.805 136.253 204.273 136.253C203.778 136.253 203.321 136.169 202.901 136.001C202.481 135.823 202.117 135.567 201.809 135.231C201.501 134.895 201.258 134.489 201.081 134.013C200.913 133.527 200.829 132.972 200.829 132.347C200.829 131.516 200.969 130.816 201.249 130.247C201.529 129.668 201.93 129.229 202.453 128.931C202.975 128.623 203.596 128.469 204.315 128.469C204.996 128.469 205.593 128.623 206.107 128.931C206.629 129.229 207.035 129.668 207.325 130.247C207.623 130.816 207.773 131.516 207.773 132.347ZM202.103 132.347C202.103 132.935 202.177 133.448 202.327 133.887C202.485 134.316 202.728 134.647 203.055 134.881C203.381 135.114 203.797 135.231 204.301 135.231C204.805 135.231 205.22 135.114 205.547 134.881C205.873 134.647 206.111 134.316 206.261 133.887C206.419 133.448 206.499 132.935 206.499 132.347C206.499 131.749 206.419 131.241 206.261 130.821C206.102 130.401 205.859 130.079 205.533 129.855C205.215 129.621 204.8 129.505 204.287 129.505C203.521 129.505 202.966 129.757 202.621 130.261C202.275 130.765 202.103 131.46 202.103 132.347ZM214.768 129.645H212.318V136.113H211.1V129.645H208.678V128.609H214.768V129.645ZM222.634 132.347C222.634 132.972 222.55 133.527 222.382 134.013C222.223 134.489 221.99 134.895 221.682 135.231C221.383 135.567 221.015 135.823 220.576 136.001C220.147 136.169 219.666 136.253 219.134 136.253C218.639 136.253 218.182 136.169 217.762 136.001C217.342 135.823 216.978 135.567 216.67 135.231C216.362 134.895 216.119 134.489 215.942 134.013C215.774 133.527 215.69 132.972 215.69 132.347C215.69 131.516 215.83 130.816 216.11 130.247C216.39 129.668 216.791 129.229 217.314 128.931C217.837 128.623 218.457 128.469 219.176 128.469C219.857 128.469 220.455 128.623 220.968 128.931C221.491 129.229 221.897 129.668 222.186 130.247C222.485 130.816 222.634 131.516 222.634 132.347ZM216.964 132.347C216.964 132.935 217.039 133.448 217.188 133.887C217.347 134.316 217.589 134.647 217.916 134.881C218.243 135.114 218.658 135.231 219.162 135.231C219.666 135.231 220.081 135.114 220.408 134.881C220.735 134.647 220.973 134.316 221.122 133.887C221.281 133.448 221.36 132.935 221.36 132.347C221.36 131.749 221.281 131.241 221.122 130.821C220.963 130.401 220.721 130.079 220.394 129.855C220.077 129.621 219.661 129.505 219.148 129.505C218.383 129.505 217.827 129.757 217.482 130.261C217.137 130.765 216.964 131.46 216.964 132.347Z" fill="black"/>
</svg>
