<svg width="18" height="17" viewBox="0 0 18 17" fill="none" xmlns="http://www.w3.org/2000/svg">
<path d="M10.25 6.12492C10.25 5.77974 9.97018 5.49992 9.625 5.49992H4.625C4.27982 5.49992 4 5.77974 4 6.12492C4 6.4701 4.27982 6.74992 4.625 6.74992H9.625C9.97018 6.74992 10.25 6.4701 10.25 6.12492Z" fill="black"/>
<path d="M9.41667 8.62492C9.41667 8.27974 9.13684 7.99992 8.79167 7.99992H4.625C4.27982 7.99992 4 8.27974 4 8.62492C4 8.9701 4.27982 9.24992 4.625 9.24992H8.79167C9.13684 9.24992 9.41667 8.9701 9.41667 8.62492Z" fill="black"/>
<path d="M9.625 10.4999C9.97018 10.4999 10.25 10.7797 10.25 11.1249C10.25 11.4701 9.97018 11.7499 9.625 11.7499H4.625C4.27982 11.7499 4 11.4701 4 11.1249C4 10.7797 4.27982 10.4999 4.625 10.4999H9.625Z" fill="black"/>
<path fill-rule="evenodd" clip-rule="evenodd" d="M4 16.1249H14.8333C16.099 16.1249 17.125 15.0989 17.125 13.8333V9.24993C17.125 8.90475 16.8452 8.62493 16.5 8.62493H13.7917V2.11925C13.7917 0.933084 12.4509 0.243111 11.4857 0.932557L11.3398 1.03675C10.6894 1.50133 9.8084 1.49977 9.15494 1.03301C8.06839 0.2569 6.59828 0.2569 5.51173 1.03301C4.85826 1.49977 3.97725 1.50133 3.32685 1.03675L3.18097 0.932557C2.21575 0.243111 0.875 0.933084 0.875 2.11925V12.9999C0.875 14.7258 2.27411 16.1249 4 16.1249ZM6.23827 2.05018C6.89021 1.58451 7.77646 1.58451 8.42839 2.05018C9.51342 2.8252 10.9783 2.83112 12.0664 2.05392L12.2122 1.94972C12.3501 1.85123 12.5417 1.9498 12.5417 2.11925V13.8333C12.5417 14.2084 12.6318 14.5624 12.7915 14.8749H4C2.96447 14.8749 2.125 14.0355 2.125 12.9999V2.11925C2.125 1.9498 2.31654 1.85123 2.45442 1.94972L2.6003 2.05392C3.68838 2.83112 5.15325 2.8252 6.23827 2.05018ZM13.7917 13.8333V9.87493H15.875V13.8333C15.875 14.4086 15.4086 14.8749 14.8333 14.8749C14.258 14.8749 13.7917 14.4086 13.7917 13.8333Z" fill="black"/>
</svg>
