<svg width="18" height="18" viewBox="0 0 18 18" fill="none" xmlns="http://www.w3.org/2000/svg">
<path fill-rule="evenodd" clip-rule="evenodd" d="M11.3851 12.4458C8.73488 14.5685 4.85544 14.4014 2.39866 11.9446C-0.237379 9.30856 -0.237379 5.0347 2.39866 2.39866C5.0347 -0.237379 9.30856 -0.237379 11.9446 2.39866C14.4014 4.85544 14.5685 8.73487 12.4458 11.3851L17.6014 16.5408C17.8943 16.8337 17.8943 17.3085 17.6014 17.6014C17.3085 17.8943 16.8337 17.8943 16.5408 17.6014L11.3851 12.4458ZM3.45932 10.8839C1.40907 8.83369 1.40907 5.50957 3.45932 3.45932C5.50957 1.40907 8.83369 1.40907 10.8839 3.45932C12.9327 5.50807 12.9342 8.82881 10.8885 10.8794C10.8869 10.8809 10.8854 10.8824 10.8839 10.8839C10.8824 10.8854 10.8809 10.8869 10.8794 10.8884C8.82882 12.9342 5.50807 12.9327 3.45932 10.8839Z" fill="#8A8A8E"/>
</svg>
