<svg width="45" height="45" viewBox="0 0 45 45" fill="none" xmlns="http://www.w3.org/2000/svg">
<path d="M43.125 35.625C43.125 36.6196 42.7299 37.5734 42.0266 38.2766C41.3234 38.9799 40.3696 39.375 39.375 39.375H5.625C4.63044 39.375 3.67661 38.9799 2.97335 38.2766C2.27009 37.5734 1.875 36.6196 1.875 35.625V15C1.875 14.0054 2.27009 13.0516 2.97335 12.3483C3.67661 11.6451 4.63044 11.25 5.625 11.25H13.125L16.875 5.625H28.125L31.875 11.25H39.375C40.3696 11.25 41.3234 11.6451 42.0266 12.3483C42.7299 13.0516 43.125 14.0054 43.125 15V35.625Z" stroke="black" stroke-width="2" stroke-linecap="round" stroke-linejoin="round"/>
<path d="M22.5 31.875C26.6421 31.875 30 28.5171 30 24.375C30 20.2329 26.6421 16.875 22.5 16.875C18.3579 16.875 15 20.2329 15 24.375C15 28.5171 18.3579 31.875 22.5 31.875Z" stroke="black" stroke-width="2" stroke-linecap="round" stroke-linejoin="round"/>
</svg>
