<svg width="24" height="24" viewBox="0 0 24 24" fill="none" xmlns="http://www.w3.org/2000/svg">
<path d="M16.5 15L18.5 11.5L17.5 5.5L15 4.5L9.5 5L7.5 7L6 12.5L7 14H9L12.5 13.5V15.5V19H14.5L16.5 15Z" fill="#FFE55B"/>
<path fill-rule="evenodd" clip-rule="evenodd" d="M13.2976 18.75C13.4639 18.75 13.6173 18.6608 13.6996 18.5164L17.0456 12.6431C17.4891 11.8646 17.6752 10.9658 17.5773 10.0751L17.2242 6.86147C17.1614 6.28969 16.7125 5.83678 16.1413 5.76884L14.0243 5.517C12.6267 5.35075 11.2097 5.49486 9.87418 5.93905C9.21464 6.15842 8.68637 6.65901 8.43185 7.3058L6.72777 11.6364C6.6861 11.7422 6.65731 11.8527 6.64201 11.9655C6.51276 12.9176 7.34624 13.7208 8.29291 13.5563L11.7087 12.9631C12.7877 12.7757 13.7196 13.7278 13.509 14.8026L12.8436 18.1984C12.7876 18.4842 13.0064 18.75 13.2976 18.75ZM15.0029 19.2589C14.6538 19.8716 14.0028 20.25 13.2976 20.25C12.0622 20.25 11.1341 19.1223 11.3716 17.91L12.037 14.5141C12.0399 14.4996 12.0384 14.4907 12.0363 14.4843C12.0339 14.4765 12.0288 14.4672 12.0205 14.4587C12.0121 14.4502 12.003 14.4449 11.9952 14.4423C11.9889 14.4401 11.98 14.4384 11.9654 14.4409L8.54959 15.0342C6.60341 15.3722 4.88994 13.7211 5.15564 11.7637C5.1871 11.5319 5.2463 11.3048 5.33195 11.0871L7.03603 6.75654C7.45331 5.69612 8.31943 4.87538 9.40076 4.51572C10.9456 4.00189 12.5848 3.83519 14.2014 4.0275L16.3185 4.27934C17.5827 4.42972 18.5762 5.43213 18.7152 6.69763L19.0684 9.9113C19.2008 11.1163 18.949 12.3323 18.3489 13.3857L15.0029 19.2589Z" fill="black"/>
</svg>
