<svg width="24" height="24" viewBox="0 0 24 24" fill="none" xmlns="http://www.w3.org/2000/svg">
<path d="M23.8992 9.13383C23.7766 8.81862 23.7766 8.81862 23.4228 8.93536C23.4091 8.93536 23.4091 8.94704 23.3955 8.95871C23.7494 9.65919 23.5589 10.3363 23.028 10.9667C22.7694 11.2936 22.47 11.3754 22.1025 11.2586C21.8439 11.1652 21.5852 11.0485 21.3402 10.92C20.8775 10.6632 20.3875 10.7333 19.9519 11.1068C19.6388 11.387 19.4483 11.7373 19.3394 12.1225C19.2033 12.5545 19.0944 12.9865 18.9583 13.4067C18.8086 13.8504 18.5363 14.1539 18.0055 14.1656C18.0191 14.2707 18.0327 14.3641 18.0599 14.4808C18.0327 14.4691 18.0191 14.4575 18.0055 14.4575C17.9102 14.3524 17.8149 14.2473 17.7333 14.1306C16.9847 13.1499 16.6308 12.0058 16.5763 10.7566C16.4674 8.5034 17.0255 6.30858 18.0872 4.1838C18.373 3.60007 18.618 2.99299 18.6997 2.36256C18.7677 1.86055 18.5772 1.51031 18.1144 1.34687C17.5427 1.1484 17.0527 0.856536 16.5899 0.506298C15.7733 -0.124131 14.8069 -0.112456 13.786 0.249457C13.3096 0.424576 12.9557 0.728115 12.7924 1.21845C12.7107 1.46362 12.6427 1.72046 12.5474 1.96562C12.4385 2.24581 12.316 2.51433 12.1935 2.79452C12.1254 2.93462 12.0302 3.06304 11.9893 3.21481C11.8124 3.78686 11.6627 4.34724 11.336 4.88428C10.5329 6.20351 9.59376 7.42934 8.38236 8.44503C7.4568 9.21556 6.42235 9.81096 5.25178 10.1028C5.12928 10.1378 4.99317 10.1612 4.85706 10.1845C4.88428 10.1378 4.9115 10.1145 4.95234 10.1028C5.1565 10.0211 5.22456 9.86933 5.22456 9.68254C5.22456 9.64752 5.22456 9.62417 5.22456 9.58914C5.23817 9.06378 4.96595 8.80694 4.4215 8.79527C4.25816 8.79527 4.09483 8.78359 3.94511 8.77192C3.4551 8.70187 2.99232 8.58513 2.5976 8.29326C2.2437 8.02474 2.18926 7.74456 2.42065 7.34762C2.5976 7.04408 2.81537 6.76389 3.01954 6.47202C3.3326 6.01671 3.37344 5.59643 3.07399 5.17614C2.93788 4.98935 2.85621 4.74418 2.80176 4.51069C2.73371 4.20715 2.89704 3.98533 3.19649 3.84524C3.63205 3.63509 3.99955 3.70514 4.27178 4.0437C4.35344 4.1371 4.40789 4.24217 4.47594 4.34724C4.55761 4.48734 4.63928 4.63911 4.73456 4.76753C5.034 5.18782 5.44234 5.46801 6.04123 5.46801C6.06846 5.37461 6.09568 5.29289 6.1229 5.18782C5.59206 5.15279 5.27901 4.86093 5.034 4.47566C4.88428 4.24217 4.73456 4.00868 4.57122 3.79854C4.39428 3.57672 4.14927 3.43662 3.84983 3.37825C3.26455 3.27318 2.66565 3.67012 2.57037 4.2305C2.51593 4.51069 2.5976 4.75586 2.73371 4.97767C2.9651 5.36293 2.97871 5.75987 2.76093 6.19183C2.67926 6.35528 2.58398 6.51872 2.50232 6.67049C2.32537 6.99738 2.1212 7.30092 1.97148 7.63948C1.79453 8.04809 1.8762 8.35163 2.2437 8.56178C2.47509 8.6902 2.7201 8.79527 2.97871 8.86532C3.38705 8.97039 3.8226 9.05211 4.24455 9.13383C4.44872 9.16886 4.55761 9.2856 4.58483 9.4724C4.59844 9.58914 4.62567 9.70589 4.59844 9.82263C4.51678 10.2312 4.47594 10.6399 4.32622 11.0251C3.98594 11.889 3.61844 12.753 3.22371 13.6052C2.3662 15.4498 1.37259 17.236 0.133965 18.8938C-0.0702035 19.1623 -0.0429811 19.3374 0.229243 19.5009C0.474245 19.6527 0.732858 19.7927 0.97786 19.9328C2.23009 20.6333 3.53677 21.2521 4.85706 21.8241C5.90512 22.2678 6.95319 22.6881 8.06931 22.9799C10.0838 23.5169 12.1527 23.8789 14.2896 23.9956C14.7252 24.019 14.8069 23.9606 14.8885 23.5403C14.8885 23.5286 14.8885 23.517 14.9021 23.5053C15.1199 22.2327 15.4738 20.9836 15.8958 19.7344C16.4402 18.135 17.0935 16.5706 17.8285 15.0412C17.9102 14.8777 17.9783 14.761 18.1824 14.761C18.2913 14.761 18.4138 14.6909 18.5227 14.6442C18.863 14.4691 19.1216 14.2006 19.3258 13.8737C19.598 13.4301 19.7069 12.9514 19.775 12.4611C19.8294 11.9941 20.02 11.5738 20.4147 11.2469C20.6869 11.0134 20.9319 10.9784 21.2177 11.1302C21.3539 11.2002 21.49 11.282 21.6261 11.3637C22.3883 11.784 23.2186 11.5505 23.6814 10.7566C23.9808 10.2196 24.1033 9.68254 23.8992 9.13383ZM13.7043 0.704766C14.5346 0.28448 15.3513 0.202758 16.1544 0.576346C16.3041 0.646393 16.4266 0.763139 16.5355 0.879885C16.7533 1.12505 17.0119 1.30017 17.3522 1.38189C17.6652 1.45194 17.9102 1.62706 18.1552 1.81385C18.3594 1.96562 18.4274 2.17577 18.4138 2.43261C18.3866 2.91127 18.1961 3.3549 17.8966 3.76351C17.393 4.44064 16.9847 5.16447 16.6852 5.92332C16.5763 6.20351 16.5763 6.13346 16.7941 6.26188C16.8349 6.28523 16.8894 6.32025 16.9302 6.3436C16.9302 6.35528 16.9166 6.36695 16.9166 6.37863C15.0655 6.12178 13.3505 5.57308 11.7579 4.72083C11.7579 4.70916 11.7716 4.69748 11.7716 4.68581C11.7852 4.68581 11.8124 4.68581 11.826 4.68581C12.1118 4.72083 12.1254 4.72083 12.1935 4.45232C12.2479 4.21882 12.3024 3.98533 12.3024 3.75184C12.316 3.41328 12.4113 3.08639 12.5474 2.7595C12.6971 2.38591 12.7924 2.01232 12.9013 1.62706C13.0238 1.21845 13.296 0.914909 13.7043 0.704766Z" fill="black"/>
<path d="M13.8677 15.3679C13.963 15.4146 14.031 15.4729 14.0719 15.5196C14.1127 15.578 14.1127 15.6247 14.0991 15.6831C14.0855 15.7298 14.0446 15.7765 13.9902 15.8115C13.9357 15.8465 13.8541 15.8582 13.7588 15.8582H13.2552C13.1191 16.1734 12.9966 16.4769 12.9013 16.7922C12.806 17.1074 12.738 17.4226 12.6971 17.7261C12.6563 18.0297 12.6563 18.3449 12.6971 18.6601C12.738 18.9636 12.8196 19.2672 12.9693 19.5707C13.0374 19.6758 13.051 19.7692 13.0102 19.8509C12.9693 19.9326 12.9149 20.0027 12.8332 20.0494C12.7516 20.0961 12.6563 20.1194 12.5474 20.1194C12.4385 20.1194 12.3568 20.0844 12.2752 20.026C12.0029 19.7692 11.7988 19.489 11.6763 19.1738C11.5538 18.8586 11.4857 18.5317 11.4857 18.1814C11.4721 17.8312 11.5129 17.481 11.5946 17.1074C11.6763 16.7338 11.7852 16.3602 11.9213 15.9866C11.4721 16.0683 11.0502 16.1617 10.6282 16.2668C10.2063 16.3835 9.81154 16.4886 9.43043 16.5937C9.10376 17.0607 8.76348 17.516 8.40959 17.9479C8.06931 18.3799 7.70181 18.7652 7.32069 19.0921C6.93958 19.4189 6.55847 19.6758 6.13652 19.8743C5.72818 20.061 5.29262 20.1544 4.84345 20.1311C4.53039 20.1194 4.25817 20.0377 4.02678 19.8859C3.79539 19.7342 3.61844 19.5474 3.49594 19.3139C3.37344 19.0804 3.319 18.8235 3.33261 18.5317C3.34622 18.2398 3.4415 17.9479 3.61844 17.6444C3.67289 17.551 3.75456 17.4926 3.87706 17.4693C3.98595 17.4459 4.09484 17.4343 4.20373 17.4576C4.299 17.481 4.38067 17.516 4.43512 17.586C4.48956 17.6561 4.48956 17.7378 4.44873 17.8312C4.21734 18.2281 4.1765 18.52 4.33984 18.7068C4.50317 18.8936 4.80262 18.9987 5.22457 18.9987C5.42873 18.9987 5.6329 18.952 5.83707 18.8586C6.04124 18.7652 6.24541 18.6251 6.43596 18.4499C6.64013 18.2748 6.83069 18.0647 7.03486 17.8312C7.23903 17.586 7.44319 17.3292 7.64736 17.0373C7.36153 17.0957 7.0893 17.119 6.83069 17.1307C6.57208 17.1424 6.32707 17.119 6.09568 17.0607C5.86429 17.0023 5.6329 16.9089 5.42873 16.7805C5.21096 16.6521 5.00679 16.4769 4.81623 16.2434C4.69373 16.1267 4.61206 16.0216 4.57123 15.9166C4.54401 15.8115 4.54401 15.7414 4.58484 15.6831C4.62567 15.6247 4.69373 15.6013 4.80262 15.6013C4.8979 15.6013 5.0204 15.648 5.15651 15.7414C5.40151 15.9049 5.66012 15.9983 5.94596 16.0216C6.2318 16.0567 6.51763 16.045 6.81708 16.01C7.11652 15.9749 7.41597 15.9166 7.71542 15.8348C8.01486 15.7531 8.31431 15.6831 8.58654 15.6247C8.94043 15.0877 9.30793 14.539 9.68904 13.9786C10.0702 13.4182 10.4649 12.9045 10.8868 12.4492C11.3088 11.9822 11.7443 11.5853 12.2071 11.2701C12.6699 10.9432 13.1599 10.7447 13.6771 10.663C13.9085 10.628 14.1127 10.628 14.2896 10.663C14.4666 10.698 14.6027 10.7797 14.7116 10.8965C14.8069 11.0132 14.8749 11.1767 14.8885 11.3868C14.9021 11.597 14.8749 11.8421 14.7796 12.1457C14.6435 12.6477 14.4394 13.1614 14.1807 13.6867C13.9221 14.2121 13.6771 14.7374 13.4321 15.2511L13.8677 15.3679ZM12.5746 12.4842C12.1935 12.7761 11.8124 13.1847 11.4449 13.6984C11.0638 14.2121 10.6827 14.7724 10.2879 15.3795C10.6282 15.3212 10.9549 15.2745 11.2816 15.2394C11.6082 15.2044 11.9349 15.1811 12.2616 15.1811C12.4657 14.7374 12.6699 14.2938 12.8741 13.8735C13.0782 13.4532 13.2688 13.0563 13.4185 12.6827C13.5274 12.4142 13.5546 12.2391 13.5274 12.1457C13.5002 12.0639 13.4185 12.0289 13.3096 12.0523C13.2007 12.0756 13.0782 12.134 12.9285 12.2274C12.806 12.3091 12.6699 12.4025 12.5746 12.4842Z" fill="#FFE55B"/>
</svg>
