<svg width="176" height="74" viewBox="0 0 176 74" fill="none" xmlns="http://www.w3.org/2000/svg">
<path d="M14.5 42.6C14.6 43.2 14.2 43.6 13.3 43.7C12.5 43.8 11.4 43.7 10.2 43.3C8.90002 42.9 7.60002 42.4 6.20002 41.6C4.80002 40.8 3.60002 39.8 2.50002 38.7C1.50002 37.5 0.700022 36.2 0.200022 34.7C-0.299978 33.2 -0.199978 31.6 0.400022 29.8C1.10002 27.6 2.60002 25.8 4.70002 24.5C7.00002 23 9.60002 22 12.6 21.5C15.6 20.9 18.8 20.8 22.3 21C25.8 21.2 29.3 21.9 32.9 22.9C34.2 20.7 35.5 18.6 36.7 16.5C37.9 14.4 38.9 12.5 39.9 10.7C40.9 8.9 41.7 7.3 42.5 5.9C43.2 4.5 43.9 3.4 44.3 2.6C44.8 1.6 45.6 1 46.7 0.6C47.6 0.1 48.8 0 50 0C51.2 0.1 52.4 0.3 53.7 0.7C55 1.1 56.1 1.6 57 2.1C57.9 2.7 58.7 3.3 59.2 4C59.7 4.7 59.8 5.3 59.6 5.9C59.3 6.7 58.9 7.9 58.5 9.8C58.1 11.6 57.7 13.8 57.3 16.3C56.9 18.8 56.5 21.5 56.1 24.4C55.7 27.3 55.4 30.3 55.1 33.3C56.3 33.7 57.2 33.8 57.8 33.4C58.2 33.1 58.6 33.1 59 33.4C59.3 33.6 59.6 34 59.8 34.5C60 35 60 35.6 59.8 36.2C59.7 36.8 59.3 37.4 58.8 37.9C57.9 38.7 56.6 38.8 54.7 38.3C54.5 40.8 54.4 43.1 54.4 45.3C54.4 47.5 54.4 49.5 54.5 51.2C54.6 52.9 54.8 54.4 55.1 55.5C55.4 56.6 55.9 57.3 56.5 57.6C57.2 57.9 57.6 58.3 57.4 58.8C57.3 59.3 56.9 59.7 56.2 60.1C55.5 60.5 54.7 60.8 53.6 61.1C52.5 61.4 51.4 61.4 50.2 61.3C49 61.2 47.8 60.9 46.7 60.3C45.5 59.8 44.5 58.9 43.7 57.7C42.8 56.5 42.3 55 41.9 53.2C41.6 51.4 41.4 49.4 41.5 47.3C41.5 45.2 41.7 42.9 42 40.6C42.3 38.3 42.7 36 43.2 33.8C42.4 33.5 41.7 33.3 40.9 33C40.1 32.7 39.3 32.5 38.6 32.3C37 35.5 35.3 38.8 33.4 42.3C31.5 45.7 29.6 48.9 27.7 51.7C25.8 54.6 23.9 57 22 58.9C20.1 60.9 18.4 62 16.7 62.3C14.8 62.7 13 62.6 11.4 62.1C9.80002 61.6 8.40002 60.9 7.20002 59.9C6.00002 58.9 5.10002 57.9 4.30002 56.7C3.50002 55.5 3.10002 54.4 2.80002 53.4C2.60002 52.4 2.60002 51.6 2.90002 51.1C3.20002 50.6 3.80002 50.4 4.60002 50.7C6.20002 51.2 7.90002 51.1 9.70002 50.3C11.5 49.5 13.4 48.2 15.4 46.4C17.4 44.6 19.3 42.4 21.3 39.9C23.3 37.4 25.3 34.6 27.2 31.8C25.1 32.2 23.3 32.9 21.7 33.8C20.1 34.7 18.7 35.6 17.6 36.7C16.5 37.7 15.7 38.8 15.2 39.8C14.6 40.9 14.4 41.8 14.5 42.6ZM47 15.9C46.7 15.8 46.1 16.8 45.2 18.8C44.2 20.8 43 23.3 41.5 26.4C42.6 26.9 43.6 27.4 44.5 27.9C44.9 26.2 45.2 24.7 45.6 23.2C46 21.8 46.3 20.5 46.6 19.4C46.9 18.3 47.1 17.5 47.2 16.8C47.1 16.3 47.1 16 47 15.9Z" fill="black"/>
<path d="M86.0001 31.5001C86.4001 32.3001 86.7001 33.3001 86.9001 34.6001C87.1001 35.9001 87.2001 37.3001 87.2001 38.7001C87.2001 40.2001 87.1001 41.7001 86.8001 43.4001C86.6001 45.0001 86.2001 46.6001 85.7001 48.2001C86.8001 46.7001 87.9001 45.1001 89.0001 43.3001C90.1001 41.5001 91.1001 39.7001 92.0001 37.8001C92.3001 37.2001 92.7001 36.7001 93.2001 36.5001C93.7001 36.3001 94.1001 36.2001 94.5001 36.2001C94.9001 36.2001 95.2001 36.4001 95.5001 36.7001C95.7001 37.0001 95.8001 37.4001 95.6001 37.9001C95.0001 39.7001 94.2001 41.5001 93.2001 43.4001C92.3001 45.3001 91.2001 47.1001 90.1001 48.9001C88.9001 50.6001 87.7001 52.2001 86.4001 53.6001C85.1001 55.0001 83.8001 56.1001 82.4001 56.9001C81.3001 57.5001 80.3001 57.9001 79.3001 58.1001C78.3001 58.3001 77.3001 58.4001 76.5001 58.3001C75.4001 58.4001 74.3001 58.2001 73.0001 57.7001C71.7001 57.3001 70.3001 56.5001 68.8001 55.5001C68.7001 56.8001 68.6001 58.2001 68.5001 59.7001C68.4001 61.2001 68.3001 62.6001 68.2001 64.0001C68.1001 65.4001 67.9001 66.7001 67.6001 68.0001C67.4001 69.3001 67.0001 70.4001 66.5001 71.4001C66.0001 72.5001 65.0001 73.3001 63.7001 73.6001C62.4001 74.0001 61.1001 74.1001 59.8001 73.9001C58.5001 73.7001 57.5001 73.4001 56.7001 72.9001C55.9001 72.4001 55.6001 71.8001 56.0001 71.2001C56.3001 70.7001 56.7001 69.3001 57.1001 67.1001C57.5001 64.9001 58.0001 62.4001 58.4001 59.4001C58.9001 56.4001 59.3001 53.3001 59.8001 49.9001C60.3001 46.5001 60.7001 43.4001 61.0001 40.5001C61.4001 37.6001 61.7001 35.1001 61.9001 33.1001C62.1001 31.1001 62.3001 29.9001 62.4001 29.6001C62.7001 28.6001 63.3001 28.0001 64.4001 27.6001C65.5001 27.3001 66.6001 27.1001 67.8001 27.2001C69.0001 27.3001 70.0001 27.5001 71.0001 28.0001C71.9001 28.4001 72.4001 28.9001 72.4001 29.4001C72.4001 29.8001 72.4001 30.0001 72.4001 30.0001C72.4001 30.0001 72.4001 30.3001 72.4001 30.8001C73.1001 30.2001 74.0001 29.6001 74.8001 29.2001C75.7001 28.8001 76.7001 28.4001 77.9001 28.1001C78.3001 28.0001 78.9001 27.9001 79.5001 27.9001C80.2001 27.9001 80.9001 28.0001 81.6001 28.2001C82.3001 28.4001 83.1001 28.8001 83.8001 29.4001C84.9001 29.8001 85.5001 30.5001 86.0001 31.5001ZM69.3001 51.5001C70.3001 52.3001 71.3001 52.5001 72.2001 52.0001C73.1001 51.5001 73.9001 50.7001 74.6001 49.5001C75.3001 48.3001 75.9001 46.9001 76.4001 45.3001C76.9001 43.7001 77.2001 42.1001 77.4001 40.6001C77.6001 39.1001 77.6001 37.8001 77.5001 36.7001C77.4001 35.6001 77.1001 34.9001 76.6001 34.7001C75.4001 34.3001 74.4001 34.4001 73.7001 35.2001C73.0001 36.0001 72.2001 37.1001 71.3001 38.5001C71.2001 39.3001 71.1001 40.2001 70.9001 41.3001C70.7001 42.4001 70.6001 43.5001 70.4001 44.6001C70.2001 45.8001 70.0001 46.9001 69.9001 48.1001C69.6001 49.4001 69.4001 50.5001 69.3001 51.5001Z" fill="black"/>
<path d="M98.8002 38.1999C98.5002 37.9999 98.0002 37.9999 97.4002 38.0999C96.8002 38.2999 96.2002 38.3999 95.5002 38.5999C94.8002 38.7999 94.2002 38.8999 93.5002 38.9999C92.8002 39.0999 92.3002 38.8999 91.9002 38.5999C91.3002 38.0999 90.9002 37.3999 90.7002 36.3999C90.5002 35.3999 90.4002 34.3999 90.5002 33.3999C90.6002 32.3999 90.8002 31.3999 91.1002 30.4999C91.4002 29.5999 91.8002 28.8999 92.2002 28.4999C92.5002 28.1999 92.9002 27.8999 93.4002 27.6999C93.9002 27.4999 94.4002 27.3999 94.9002 27.3999C95.4002 27.3999 96.0002 27.3999 96.5002 27.4999C97.0002 27.5999 97.4002 27.7999 97.7002 28.0999C98.1002 28.4999 98.5002 28.7999 98.9002 29.1999C99.3002 29.4999 99.6002 29.8999 99.7002 30.0999C99.8002 30.1999 100.2 30.0999 101.1 29.6999C102 29.2999 103 28.9999 104.2 28.5999C105.4 28.1999 106.6 27.9999 107.9 27.8999C109.2 27.7999 110.2 28.0999 111.1 28.6999C112 29.3999 112.4 30.3999 112.3 31.6999C112.2 32.9999 111.8 34.3999 111.1 35.9999C110.4 37.5999 109.6 39.1999 108.6 40.8999C107.6 42.5999 106.7 44.1999 105.9 45.5999C105.1 46.9999 104.5 48.2999 104.1 49.3999C103.7 50.4999 103.7 51.1999 104.2 51.4999C104.5 51.6999 105 51.5999 105.5 51.2999C106.1 50.8999 106.7 50.3999 107.3 49.5999C108 48.8999 108.7 47.9999 109.4 46.8999C110.1 45.8999 110.9 44.7999 111.6 43.6999C112.3 42.5999 112.9 41.5999 113.5 40.5999C114.1 39.5999 114.5 38.6999 114.8 37.9999C114.9 37.7999 115.2 37.5999 115.6 37.3999C116.1 37.1999 116.5 37.0999 117 37.0999C117.5 37.0999 117.9 37.1999 118.3 37.2999C118.6 37.4999 118.7 37.7999 118.6 38.1999C117.7 40.8999 116.4 43.6999 114.9 46.3999C113.3 49.0999 111.5 51.6999 109.6 54.1999C108.4 55.5999 107.2 56.6999 105.8 57.4999C104.4 58.1999 103.1 58.6999 101.7 58.8999C100.4 59.0999 99.1002 58.9999 97.9002 58.5999C96.7002 58.1999 95.7002 57.5999 95.0002 56.6999C94.2002 55.7999 93.7002 54.6999 93.5002 53.2999C93.3002 51.9999 93.4002 50.3999 93.9002 48.6999C94.2002 47.7999 94.6002 46.7999 95.2002 45.5999C95.8002 44.3999 96.4002 43.3999 97.0002 42.3999C97.6002 41.3999 98.1002 40.5999 98.5002 39.7999C98.9002 38.6999 99.0002 38.2999 98.8002 38.1999Z" fill="black"/>
<path d="M136.5 31.3C137.4 33 137.9 35 138.1 37.2C138.2 39.4 138 41.8 137.5 44.2C138.2 44 138.8 43.6 139.3 43C139.8 42.4 140.2 41.7 140.5 41.1C140.8 40.4 141.1 39.8 141.3 39.2C141.5 38.6 141.7 38.1 141.8 37.8C142 37.2 142.3 36.7 142.7 36.5C143.1 36.3 143.4 36.2 143.8 36.2C144.1 36.3 144.4 36.4 144.7 36.7C144.9 37 145 37.3 145 37.8C144.9 38.5 144.6 39.5 144.2 40.8C143.7 42.1 143.1 43.5 142.2 44.9C141.3 46.3 140.3 47.7 139.1 48.9C137.9 50.2 136.4 51.1 134.8 51.6C134 52.9 133.1 54.1 132.1 55.1C131.1 56.2 130 57.1 128.8 57.7C127.6 58.4 126.3 58.8 124.9 59.1C123.5 59.3 122 59.2 120.5 58.8C118.3 58.2 116.6 57 115.4 55.2C114.2 53.4 113.6 51.3 113.3 49.1C113 46.9 113.1 44.6 113.5 42.3C113.9 40 114.5 38.1 115.3 36.5C115.8 33.7 117.1 31.4 119 29.8C120.9 28.2 123 27.2 125.3 26.7C127.6 26.3 129.8 26.4 132 27.2C133.9 28 135.4 29.4 136.5 31.3ZM127.4 47.4C127.6 46.1 128.2 45.1 129.4 44.6C129.9 43.2 130.3 41.9 130.6 40.5C130.8 39.2 130.9 38.1 130.6 37.2C130.2 35.9 129.5 35.1 128.5 34.9C127.5 34.7 126.6 34.9 125.9 35.5C126.2 35.5 126.4 35.6 126.7 35.7C127 35.9 127.2 36.1 127.4 36.4C127.6 36.7 127.6 37.1 127.6 37.5C127.5 37.9 127.3 38.3 126.8 38.7C125.8 39.7 124.9 40.9 124.2 42.3C123.4 43.7 122.9 45.1 122.6 46.5C122.3 47.9 122.2 49.1 122.4 50.2C122.6 51.3 123.1 52 124 52.2C124.5 52.4 125 52.1 125.6 51.5C126.2 50.9 126.8 50 127.5 48.9C127.3 48.5 127.3 48 127.4 47.4Z" fill="black"/>
<path d="M168.2 32.8C168 33.7 167.8 34.7 167.4 36C167 37.3 166.6 38.6 166.2 40C165.8 41.4 165.4 42.8 165 44.1C164.6 45.4 164.3 46.6 164.2 47.7C164 48.7 164 49.6 164.1 50.1C164.2 50.7 164.5 50.9 165.1 50.7C165.5 50.6 166 50.1 166.6 49.2C167.2 48.3 167.7 47.2 168.3 45.9C168.9 44.6 169.5 43.2 170.1 41.7C170.7 40.2 171.2 38.8 171.7 37.5C171.9 37 172.3 36.7 172.7 36.5C173.2 36.3 173.6 36.2 174.1 36.3C174.5 36.4 174.9 36.5 175.1 36.9C175.4 37.2 175.4 37.7 175.2 38.3C174.8 39.6 174.3 41.1 173.7 42.6C173.1 44.1 172.5 45.6 171.9 47.1C171.3 48.6 170.6 50 169.9 51.3C169.2 52.6 168.5 53.7 167.8 54.6C166.7 55.9 165.5 56.9 164.2 57.5C162.9 58.1 161.6 58.3 160.3 58.2C159 58.1 157.9 57.6 156.9 56.8C155.9 56 155.3 54.9 154.9 53.5C154.5 51.7 154.4 49.8 154.7 47.8C155 45.8 155.4 44 155.9 42.4C156.4 40.8 156.8 39.5 157.1 38.4C157.4 37.4 157.5 36.9 157.2 36.9C156.9 37 156.4 37.4 155.7 38.3C155 39.2 154.3 40.4 153.6 41.9C152.8 43.4 152.1 45.2 151.4 47.2C150.7 49.2 150.1 51.4 149.7 53.7C149.4 55.4 148.8 56.5 147.9 57.3C147 58.1 146.1 58.4 145 58.3C144 58.2 143 57.9 142 57.2C141.1 56.5 140.4 55.6 140 54.5C139.7 53.8 139.6 52.8 139.6 51.6C139.6 50.3 139.7 48.9 139.8 47.4C140 45.8 140.2 44.2 140.5 42.5C140.8 40.8 141.1 39.1 141.5 37.6C141.8 36 142.2 34.6 142.6 33.2C143 31.9 143.3 30.8 143.7 30C144 29.1 144.8 28.5 145.9 28.1C147.1 27.7 148.2 27.5 149.4 27.7C150.6 27.8 151.6 28.3 152.5 29C153.4 29.7 153.6 30.8 153.3 32.2C153 33.6 152.6 35 152.1 36.4C151.6 37.8 151.1 39.3 150.5 40.9C151.6 38.5 152.8 36.4 154.2 34.4C155.6 32.4 156.8 30.9 157.8 29.8C158.7 28.9 159.7 28.3 161 27.9C162.3 27.6 163.5 27.5 164.7 27.8C165.9 28.1 166.8 28.6 167.6 29.5C168.2 30.2 168.4 31.3 168.2 32.8Z" fill="black"/>
</svg>
