<svg width="130" height="145" viewBox="0 0 130 145" fill="none" xmlns="http://www.w3.org/2000/svg">
<g clip-path="url(#clip0_109_4205)">
<path d="M7.9375 5.68278V139.376C7.9375 141.719 9.819 143.594 12.1709 143.594H110.656C113.008 143.594 114.889 141.719 114.889 139.376V5.68278C114.889 3.33935 113.008 1.4646 110.656 1.4646H12.1709C9.8778 1.4646 7.9375 3.33935 7.9375 5.68278Z" fill="#FFE55B"/>
<path d="M107.422 137.97H29.3984C28.5753 137.97 27.9285 137.325 27.9285 136.505C27.9285 135.685 28.5753 135.04 29.3984 135.04H105.952V11.5414C105.952 10.7212 106.599 10.0768 107.422 10.0768C108.245 10.0768 108.892 10.7212 108.892 11.5414V136.505C108.892 137.325 108.186 137.97 107.422 137.97ZM23.5187 137.97H16.4631C15.6399 137.97 14.9932 137.325 14.9932 136.505C14.9932 135.685 15.6399 135.04 16.4631 135.04H23.5187C24.3419 135.04 24.9886 135.685 24.9886 136.505C24.9886 137.325 24.3419 137.97 23.5187 137.97Z" fill="white"/>
<path d="M94.8395 145C94.0164 145 93.3696 144.356 93.3696 143.535C93.3696 142.715 94.0164 142.071 94.8395 142.071H110.715C112.243 142.071 113.478 140.84 113.478 139.317V5.68283C113.478 4.1596 112.243 2.92929 110.715 2.92929H12.1711C10.6424 2.92929 9.40762 4.1596 9.40762 5.68283V139.376C9.40762 140.899 10.6424 142.071 12.1711 142.129H83.0214C83.8445 142.129 84.4913 142.774 84.4913 143.594C84.4913 144.414 83.8445 145.059 83.0214 145.059H12.1711C9.05484 145.059 6.46777 142.539 6.46777 139.376V5.68283C6.46777 2.51919 9.05484 0 12.1711 0H110.656C113.772 0 116.359 2.51919 116.359 5.68283V139.376C116.359 142.481 113.831 145.059 110.656 145.059H94.8395C94.8395 145 94.8395 145 94.8395 145ZM88.9599 145C88.1367 145 87.4899 144.356 87.4899 143.535C87.4899 142.715 88.1367 142.071 88.9599 142.071C89.783 142.071 90.4298 142.715 90.4298 143.535C90.371 144.356 89.7242 145 88.9599 145Z" fill="black"/>
<path d="M14.2877 20.6222H1.46992C0.646766 20.6222 0 19.9777 0 19.1575C0 18.3373 0.646766 17.6929 1.46992 17.6929H14.2877C15.1108 17.6929 15.7576 18.3373 15.7576 19.1575C15.7576 19.9777 15.052 20.6222 14.2877 20.6222Z" fill="black"/>
<path d="M14.2877 41.9474H1.46992C0.646766 41.9474 0 41.3029 0 40.4827C0 39.6625 0.646766 39.0181 1.46992 39.0181H14.2877C15.1108 39.0181 15.7576 39.6625 15.7576 40.4827C15.7576 41.3029 15.052 41.9474 14.2877 41.9474Z" fill="black"/>
<path d="M14.2877 63.2727H1.46992C0.646766 63.2727 0 62.6282 0 61.808C0 60.9878 0.646766 60.3434 1.46992 60.3434H14.2877C15.1108 60.3434 15.7576 60.9878 15.7576 61.808C15.7576 62.6282 15.052 63.2727 14.2877 63.2727Z" fill="black"/>
<path d="M14.2877 84.6565H1.46992C0.646766 84.6565 0 84.012 0 83.1918C0 82.3716 0.646766 81.7272 1.46992 81.7272H14.2877C15.1108 81.7272 15.7576 82.3716 15.7576 83.1918C15.7576 84.012 15.052 84.6565 14.2877 84.6565Z" fill="black"/>
<path d="M14.2877 105.982H1.46992C0.646766 105.982 0 105.337 0 104.517C0 103.697 0.646766 103.052 1.46992 103.052H14.2877C15.1108 103.052 15.7576 103.697 15.7576 104.517C15.7576 105.337 15.052 105.982 14.2877 105.982Z" fill="black"/>
<path d="M14.2877 127.366H1.46992C0.646766 127.366 0 126.721 0 125.901C0 125.081 0.646766 124.436 1.46992 124.436H14.2877C15.1108 124.436 15.7576 125.081 15.7576 125.901C15.7576 126.721 15.052 127.366 14.2877 127.366Z" fill="black"/>
<path d="M128.53 33.2767H114.889V7.73328L128.53 18.3959V33.2767Z" fill="white"/>
<path d="M128.53 58.7616H114.889V33.2767L128.53 43.9394V58.7616Z" fill="#FFE55B"/>
<path d="M128.53 84.305H114.889V58.7616L128.53 69.4242V84.305Z" fill="white"/>
<path d="M128.53 109.79H114.889V84.3051L128.53 94.9677V109.79Z" fill="#FFE55B"/>
<path d="M128.53 135.333H114.889V109.79L128.53 120.453V135.333Z" fill="white"/>
<path d="M128.53 34.7414H114.948C114.125 34.7414 113.478 34.097 113.478 33.2768V7.73333C113.478 7.14747 113.772 6.67878 114.301 6.44444C114.83 6.2101 115.418 6.26868 115.83 6.6202L129.412 17.2828C129.765 17.5758 130 17.9859 130 18.4545V33.3353C130 34.097 129.294 34.7414 128.53 34.7414ZM116.359 31.8121H127.001V19.099L116.359 10.7212V31.8121Z" fill="black"/>
<path d="M128.53 60.2263H114.948C114.125 60.2263 113.478 59.5818 113.478 58.7616V33.2768C113.478 32.6909 113.772 32.2222 114.301 31.9879C114.83 31.7536 115.418 31.8121 115.83 32.1637L129.412 42.7677C129.765 43.0606 130 43.4707 130 43.9394V58.8202C130 59.5818 129.294 60.2263 128.53 60.2263ZM116.359 57.297H127.001V44.6424L116.359 36.2647V57.297Z" fill="black"/>
<path d="M128.53 85.7697H114.948C114.125 85.7697 113.478 85.1253 113.478 84.3051V58.8202C113.478 58.2344 113.772 57.7657 114.301 57.5314C114.83 57.297 115.418 57.3556 115.83 57.7071L129.412 68.3697C129.765 68.6627 130 69.0728 130 69.5415V84.4223C130 85.1253 129.294 85.7697 128.53 85.7697ZM116.359 82.8404H127.001V70.1859L116.359 61.8081V82.8404Z" fill="black"/>
<path d="M128.53 111.254H114.948C114.125 111.254 113.478 110.61 113.478 109.79V84.305C113.478 83.7191 113.772 83.2504 114.301 83.0161C114.83 82.7818 115.418 82.8403 115.83 83.1919L129.412 93.8545C129.765 94.1474 130 94.5575 130 95.0262V109.907C130 110.61 129.294 111.254 128.53 111.254ZM116.359 108.325H127.001V95.6706L116.359 87.2929V108.325Z" fill="black"/>
<path d="M128.53 136.798H114.948C114.125 136.798 113.478 136.154 113.478 135.333V109.848C113.478 109.263 113.772 108.794 114.301 108.56C114.83 108.325 115.418 108.384 115.83 108.735L129.412 119.398C129.765 119.691 130 120.101 130 120.57V135.333C130 136.154 129.294 136.798 128.53 136.798ZM116.359 133.869H127.001V121.214L116.359 112.836V133.869Z" fill="black"/>
<path d="M47.5666 47.6889C45.2735 50.501 43.6272 53.8404 42.8629 57.5313C40.2758 56.3596 38.5707 56.2424 34.0433 55.4808C32.3382 50.0909 32.985 44.0566 36.3364 39.0182C43.2156 43.5879 45.1559 44.5253 47.5666 47.6889Z" fill="white"/>
<path d="M92.6055 62.5111C92.6055 67.4909 91.0768 72.1192 88.3721 75.9273H54.3875C54.5639 71.6505 53.3291 67.6081 50.9773 64.2687C48.9782 61.398 46.2147 59.0546 42.8633 57.5899C43.6276 53.899 45.3328 50.5596 47.567 47.7475C51.918 42.4162 58.5033 39.0182 65.9117 39.0182H69.0279C82.0808 39.0182 92.6055 49.5051 92.6055 62.5111Z" fill="#FFE55B"/>
<path d="M86.1375 73.2909C85.9023 73.2909 85.6672 73.2323 85.432 73.1152C84.7264 72.705 84.4912 71.8263 84.844 71.1232C85.2556 70.4202 85.6084 69.6586 85.9023 68.8384C86.1963 68.0768 87.0195 67.7252 87.7838 67.9596C88.5482 68.2525 88.901 69.0727 88.6658 69.8343C88.313 70.7131 87.9014 71.6505 87.4311 72.4707C87.1371 72.998 86.6667 73.2909 86.1375 73.2909ZM88.4894 65.0889H88.4306C87.6074 65.0303 87.0195 64.3273 87.0783 63.5657C87.0783 63.2141 87.1371 62.8626 87.1371 62.5111C87.1371 52.6101 79.0819 44.5838 69.1452 44.5838C68.3221 44.5838 67.6753 43.9394 67.6753 43.1192C67.6753 42.299 68.3221 41.6545 69.1452 41.6545C80.6694 41.6545 90.0769 51.0283 90.0769 62.5111C90.0769 62.9212 90.0769 63.3313 90.0181 63.7414C89.9005 64.503 89.2538 65.0889 88.4894 65.0889Z" fill="white"/>
<path d="M83.9623 62.5112C83.9623 68.4283 80.4933 73.5253 75.4956 75.9273H54.3287C54.5051 71.6506 53.2703 67.6081 50.9185 64.2688V62.5112C50.9185 54.3092 57.6213 47.6304 65.8529 47.6304H68.9691C77.2595 47.6304 83.9623 54.3092 83.9623 62.5112Z" fill="white"/>
<path d="M59.6201 62.5111C59.6201 59.0546 62.4424 56.2424 65.9114 56.2424H68.8512C72.2027 56.2424 75.1425 58.7616 75.3777 62.101C75.6129 65.7333 72.7318 68.7798 69.0864 68.7798H65.9702C62.4424 68.7798 59.6201 65.9677 59.6201 62.5111Z" fill="#FFE55B"/>
<path d="M69.0278 70.2445H65.9116C61.6194 70.2445 58.1504 66.7879 58.1504 62.5112C58.1504 58.2344 61.6194 54.7778 65.9116 54.7778H68.8514C70.8505 54.7778 72.7908 55.4809 74.2608 56.8283C75.7895 58.1758 76.6714 59.992 76.8478 61.9839C76.8478 62.1597 76.8478 62.3354 76.8478 62.5112C76.789 66.7879 73.32 70.2445 69.0278 70.2445ZM65.9116 57.7071C63.2657 57.7071 61.0902 59.8748 61.0902 62.5112C61.0902 65.1475 63.2657 67.3152 65.9116 67.3152H69.0278C71.6737 67.3152 73.8492 65.1475 73.8492 62.5112C73.8492 62.394 73.8492 62.2768 73.8492 62.1596C73.6728 59.699 71.4385 57.7071 68.7926 57.7071H65.9116Z" fill="black"/>
<path d="M69.9685 28.8828C69.9097 28.8828 69.7921 28.8828 69.7333 28.8828C68.9101 28.7657 68.381 28.0041 68.5574 27.1839L70.2625 17.5172C70.3801 16.7556 71.1444 16.1697 71.9676 16.3455C72.3792 16.4041 72.6731 16.6384 72.9083 16.9313C73.1435 17.2828 73.2023 17.6344 73.1435 18.0445L71.4384 27.7111C71.262 28.3556 70.674 28.8828 69.9685 28.8828Z" fill="black"/>
<path d="M68.91 39.0182C72.1572 39.0182 74.7897 36.3952 74.7897 33.1596C74.7897 29.924 72.1572 27.301 68.91 27.301C65.6627 27.301 63.0303 29.924 63.0303 33.1596C63.0303 36.3952 65.6627 39.0182 68.91 39.0182Z" fill="white"/>
<path d="M68.9102 40.4243C64.8532 40.4243 61.5605 37.1435 61.5605 33.1597C61.5605 29.1758 64.8532 25.8364 68.9102 25.8364C72.9671 25.8364 76.2598 29.1172 76.2598 33.1597C76.2598 37.2021 72.9671 40.4243 68.9102 40.4243ZM68.9102 28.7657C66.4995 28.7657 64.5592 30.7576 64.5004 33.1597C64.5004 35.5617 66.4995 37.495 68.9102 37.5536C71.3208 37.5536 73.2611 35.5617 73.3199 33.1597C73.3199 30.7576 71.3208 28.8243 68.9102 28.7657Z" fill="black"/>
<path d="M50.9772 64.2102C48.9781 61.3395 46.2147 58.996 42.8632 57.5314C40.2762 56.3597 38.5711 56.2425 34.0437 55.4809L30.5159 54.895C28.9872 63.9758 34.0437 72.588 42.2753 75.9273C47.3318 75.9273 49.2721 75.9273 54.3874 75.9273C54.5638 71.6506 53.2703 67.5496 50.9772 64.2102Z" fill="white"/>
<path d="M95.8392 75.9272H54.3874C43.9215 75.9272 37.2775 75.9272 27.0468 75.9272C25.8709 75.9272 25.1065 77.1575 25.6357 78.1535L29.8103 86.707C30.457 88.0545 31.8094 88.9333 33.3381 88.9333H89.5479C91.0766 88.9333 92.429 88.0545 93.0757 86.707L97.2503 78.1535C97.7207 77.099 96.9563 75.9272 95.8392 75.9272Z" fill="white"/>
<path d="M89.5478 90.398H47.5668C46.7437 90.398 46.0969 89.7536 46.0969 88.9333C46.0969 88.1131 46.7437 87.4687 47.5668 87.4687H89.5478C90.4886 87.4687 91.3705 86.9414 91.7821 86.0626L95.9567 77.5091V77.4505C95.9567 77.3919 95.8979 77.3334 95.8391 77.3334H27.0467C26.9879 77.3334 26.9291 77.3919 26.9291 77.4505C26.9291 77.4505 26.9291 77.4505 26.9291 77.5091L31.1037 86.0626C31.5153 86.9414 32.3384 87.4687 33.338 87.4687H35.7486C36.5718 87.4687 37.2186 88.1131 37.2186 88.9333C37.2186 89.7536 36.5718 90.398 35.7486 90.398H33.338C31.2801 90.398 29.3398 89.2263 28.4578 87.3515L24.2832 78.798C24.1069 78.3879 23.9893 77.9192 23.9893 77.5091C23.9893 75.8687 25.3416 74.4626 27.0467 74.4626H95.8391C97.5442 74.4626 98.8965 75.8101 98.8965 77.5091C98.8965 77.9778 98.7789 78.3879 98.6026 78.798L94.428 87.3515C93.4872 89.2263 91.6057 90.398 89.5478 90.398ZM41.6871 90.398C40.864 90.398 40.2172 89.7536 40.2172 88.9333C40.2172 88.1131 40.864 87.4687 41.6871 87.4687C42.5103 87.4687 43.1571 88.1131 43.1571 88.9333C43.1571 89.7536 42.4515 90.398 41.6871 90.398Z" fill="black"/>
<path d="M42.863 58.9959C42.6866 58.9959 42.4514 58.9374 42.2751 58.8788C40.2172 58 38.8648 57.7656 35.631 57.1798C35.1018 57.1212 34.4551 57.004 33.8083 56.8869C33.2791 56.8283 32.8088 56.4182 32.6324 55.8909C31.9856 53.8404 31.6328 51.7313 31.6328 49.5636C31.6328 45.4626 32.8088 41.5374 35.1018 38.1394C35.5134 37.4949 36.513 37.3192 37.1597 37.7293C38.2181 38.4323 39.2176 39.0768 40.0408 39.604C41.9223 40.8343 43.3334 41.7717 44.5093 42.6505C46.2732 43.9394 47.508 45.1111 48.7427 46.7515C49.1543 47.2788 49.1543 48.0404 48.7427 48.5677C46.5672 51.2626 45.0385 54.4848 44.3329 57.8242C44.2154 58.2343 43.9802 58.6444 43.5686 58.8202C43.2746 58.9374 43.0982 58.9959 42.863 58.9959ZM35.1606 54.1919C35.4546 54.2505 35.7486 54.3091 36.0426 54.3677C38.5121 54.7778 40.0996 55.0121 41.8047 55.598C42.6278 52.7858 43.9214 50.1495 45.6853 47.7475C44.8621 46.8101 44.039 46.0485 42.7454 45.1111C41.6871 44.2909 40.276 43.4121 38.3945 42.1818C37.8653 41.8303 37.3361 41.4788 36.7481 41.1273C35.2782 43.7636 34.5139 46.6929 34.5139 49.6808C34.5727 51.1454 34.749 52.6687 35.1606 54.1919Z" fill="black"/>
<path d="M88.3717 77.392H54.387C53.9755 77.392 53.6227 77.2162 53.3287 76.9233C53.0347 76.6304 52.9171 76.2788 52.9171 75.8687C52.9171 75.6344 52.9171 75.3415 52.9171 75.1071C52.9171 71.5334 51.8 68.0768 49.7421 65.0889C47.8606 62.394 45.2735 60.2263 42.2161 58.9374C41.5693 58.6445 41.2165 58.0001 41.3929 57.297C42.2161 53.4889 43.9212 49.9152 46.4494 46.8102C51.212 40.9516 58.3264 37.5536 65.9112 37.5536H69.0863C73.3784 37.5536 77.6706 38.6667 81.3748 40.7758C81.7276 40.9516 81.9628 41.3031 82.0804 41.6546C82.198 42.0061 82.1392 42.4162 81.9628 42.7677C81.61 43.4122 80.6693 43.7051 79.9637 43.295C76.6711 41.4203 72.9081 40.4829 69.0863 40.4829H65.9112C59.2084 40.4829 52.9759 43.4708 48.7425 48.6849C46.8022 51.0869 45.3911 53.8405 44.5679 56.7698C47.6254 58.293 50.2712 60.6364 52.2115 63.4485C54.5046 66.7294 55.7394 70.5374 55.857 74.4627H87.6073C89.9004 70.9475 91.1351 66.7879 91.1351 62.5112C91.1351 58.3516 89.9592 54.3091 87.7837 50.8526C87.3721 50.1496 87.5485 49.2708 88.2541 48.8021C88.9008 48.392 89.8416 48.6263 90.2532 49.2708C92.7226 53.2546 94.075 57.8243 94.075 62.5112C94.075 67.6667 92.5462 72.5879 89.6064 76.7475C89.3124 77.1576 88.9008 77.392 88.3717 77.392ZM85.3142 46.9859C84.9614 46.9859 84.5499 46.8687 84.3147 46.5758C83.7267 45.99 83.7267 45.1112 84.2559 44.5253C84.785 43.9394 85.7846 43.9394 86.3138 44.4667C86.9017 45.0526 86.9017 45.9314 86.3726 46.5172C86.1374 46.8102 85.7258 46.9859 85.3142 46.9859Z" fill="black"/>
<path d="M75.4953 77.3919H54.3284C53.9168 77.3919 53.564 77.2162 53.27 76.9232C52.9761 76.6303 52.8585 76.2788 52.8585 75.8687C52.8585 75.6343 52.8585 75.4 52.8585 75.1071C52.8585 71.5333 51.7413 68.0768 49.6834 65.0889C49.507 64.8545 49.4482 64.5616 49.4482 64.2687V62.5111C49.4482 53.4889 56.7979 46.1656 65.8526 46.1656H69.0276C78.0823 46.1656 85.432 53.4889 85.432 62.5111C85.432 65.6747 84.55 68.6626 82.8449 71.299C81.1986 73.8768 78.8467 75.9273 76.142 77.2162C75.9657 77.3333 75.7305 77.3919 75.4953 77.3919ZM55.8571 74.4626H75.2013C77.3768 73.3495 79.1995 71.6505 80.493 69.6C81.8453 67.4909 82.5509 65.0303 82.5509 62.5111C82.5509 55.1293 76.4948 49.0949 69.0864 49.0949H65.9114C58.503 49.0949 52.4469 55.1293 52.4469 62.5111V63.8C54.5636 66.9636 55.7395 70.6545 55.8571 74.4626Z" fill="black"/>
<path d="M54.3872 77.3919H42.275C42.0987 77.3919 41.9223 77.3334 41.7459 77.2748C37.9241 75.7515 34.6902 73.1152 32.3384 69.7172C29.9865 66.2606 28.8105 62.2768 28.8105 58.1758C28.8105 57.0041 28.9281 55.8323 29.1045 54.6606C29.1633 54.3091 29.3985 53.9576 29.6925 53.7232C29.9865 53.4889 30.3981 53.4303 30.8096 53.4889L34.3375 54.0748C34.9842 54.1919 35.5722 54.3091 36.1602 54.3677C39.3352 54.895 41.0991 55.1879 43.5098 56.2424C47.0376 57.7657 50.095 60.2849 52.2705 63.4485C54.6812 66.9051 55.9159 70.9475 55.9159 75.1657C55.9159 75.4586 55.9159 75.7515 55.9159 76.0445C55.7983 76.7475 55.1516 77.3919 54.3872 77.3919ZM42.569 74.4626H52.9173C52.7997 71.1233 51.6826 67.901 49.7423 65.0889C47.8608 62.394 45.2737 60.2263 42.2162 58.9374C40.1584 58.0586 38.806 57.8243 35.5134 57.2384C34.9842 57.1212 34.3375 57.0626 33.6907 56.9455L31.7504 56.594C31.6916 57.1212 31.6916 57.6485 31.6916 58.1758C31.6916 61.6323 32.7499 65.0303 34.6902 67.9596C36.6305 70.8303 39.3352 73.1152 42.569 74.4626Z" fill="black"/>
<path d="M54.3874 77.392C54.1522 77.392 53.917 77.3334 53.7406 77.2748C48.5077 74.7556 42.9808 70.596 37.3363 64.9132C34.514 62.1011 31.7506 58.8789 29.4575 55.9496C29.3987 55.891 29.3399 55.8324 29.3399 55.8324C29.1047 55.5395 29.0459 55.1294 29.0459 54.7778C29.1047 54.3677 29.3399 54.0748 29.6339 53.8405C30.2806 53.3718 31.2214 53.5475 31.6918 54.1334C31.8094 54.3092 31.9857 54.4849 32.1621 54.7193C32.5737 55.2465 33.0441 55.8324 33.5733 56.4768C34.6904 57.8243 36.4543 59.9334 38.6886 62.1597C42.5692 66.1435 48.5665 71.592 54.9753 74.697C55.6809 75.0486 56.0337 75.9273 55.6809 76.6304C55.4457 77.0405 54.9165 77.392 54.3874 77.392Z" fill="black"/>
<path d="M42.863 58.996C42.275 58.996 41.7458 58.6445 41.5106 58.1172C36.8657 47.2202 34.9842 39.6627 34.9254 39.3112C34.8666 38.9596 34.9254 38.5495 35.1018 38.198C35.2782 37.8465 35.6309 37.6122 35.9837 37.5536C36.7481 37.3778 37.5712 37.8465 37.7476 38.6667C37.8652 39.1354 37.9828 39.6041 38.1004 39.9556C38.3356 40.7758 38.6884 42.0647 39.2175 43.7051C40.1583 46.6344 41.8046 51.3213 44.2153 57.0041C44.3917 57.3556 44.3917 57.7657 44.2153 58.1172C44.0389 58.4687 43.8037 58.7617 43.4509 58.9374C43.2157 58.996 43.0393 58.996 42.863 58.996Z" fill="black"/>
<path d="M45.1564 103.931H32.4563C31.6331 103.931 30.9863 103.287 30.9863 102.467C30.9863 101.647 31.6331 101.002 32.4563 101.002H45.1564C45.9795 101.002 46.6263 101.647 46.6263 102.467C46.6263 103.287 45.9795 103.931 45.1564 103.931Z" fill="black"/>
<path d="M45.1564 111.958H32.4563C31.6331 111.958 30.9863 111.313 30.9863 110.493C30.9863 109.673 31.6331 109.028 32.4563 109.028H45.1564C45.9795 109.028 46.6263 109.673 46.6263 110.493C46.6263 111.313 45.9795 111.958 45.1564 111.958Z" fill="black"/>
<path d="M45.1564 119.984H32.4563C31.6331 119.984 30.9863 119.339 30.9863 118.519C30.9863 117.699 31.6331 117.055 32.4563 117.055H45.1564C45.9795 117.055 46.6263 117.699 46.6263 118.519C46.6263 119.339 45.9795 119.984 45.1564 119.984Z" fill="black"/>
<path d="M90.4299 103.931H53.9758C53.1526 103.931 52.5059 103.287 52.5059 102.467C52.5059 101.647 53.1526 101.002 53.9758 101.002H90.3711C91.1942 101.002 91.841 101.647 91.841 102.467C91.841 103.287 91.1942 103.931 90.4299 103.931Z" fill="black"/>
<path d="M90.4299 111.958H53.9758C53.1526 111.958 52.5059 111.313 52.5059 110.493C52.5059 109.673 53.1526 109.028 53.9758 109.028H90.3711C91.1942 109.028 91.841 109.673 91.841 110.493C91.841 111.313 91.1942 111.958 90.4299 111.958Z" fill="black"/>
<path d="M90.4299 119.984H53.9758C53.1526 119.984 52.5059 119.339 52.5059 118.519C52.5059 117.699 53.1526 117.055 53.9758 117.055H90.3711C91.1942 117.055 91.841 117.699 91.841 118.519C91.841 119.339 91.1942 119.984 90.4299 119.984Z" fill="black"/>
</g>
<defs>
<clipPath id="clip0_109_4205">
<rect width="130" height="145" fill="white"/>
</clipPath>
</defs>
</svg>
