<svg width="16" height="20" viewBox="0 0 16 20" fill="none" xmlns="http://www.w3.org/2000/svg">
<path fill-rule="evenodd" clip-rule="evenodd" d="M11.9241 2.41833C9.33097 1.9836 6.66886 1.9836 4.07573 2.41833C3.58773 2.50014 3.20014 2.87507 3.10287 3.35801C2.21779 7.75199 2.1695 12.2735 2.96052 16.6854L3.12407 17.5976L6.7946 14.1106C7.47004 13.4689 8.52978 13.4689 9.20522 14.1106L12.8758 17.5976L13.0393 16.6854C13.8303 12.2735 13.782 7.75199 12.897 3.35801C12.7997 2.87507 12.4121 2.50014 11.9241 2.41833ZM3.82772 0.938977C6.58504 0.476721 9.41478 0.476721 12.1721 0.938977C13.2713 1.12326 14.1469 1.96707 14.3674 3.06181C15.2898 7.64072 15.3401 12.3525 14.5158 16.9501L14.2943 18.1854C14.1084 19.2223 12.8443 19.6367 12.0806 18.9112L8.1721 15.1981C8.07561 15.1064 7.92422 15.1064 7.82772 15.1981L3.91919 18.9112C3.15549 19.6367 1.89145 19.2223 1.70555 18.1854L1.48407 16.9501C0.659748 12.3525 0.710073 7.64073 1.6324 3.06181C1.85291 1.96707 2.72851 1.12326 3.82772 0.938977Z" fill="#8A8A8E"/>
</svg>
