<svg width="24" height="24" viewBox="0 0 24 24" fill="none" xmlns="http://www.w3.org/2000/svg">
<path fill-rule="evenodd" clip-rule="evenodd" d="M14.3851 15.4456C11.7349 17.5682 7.85544 17.4011 5.39866 14.9444C2.76262 12.3083 2.76262 8.03445 5.39866 5.39842C8.0347 2.76238 12.3086 2.76238 14.9446 5.39842C17.4014 7.8552 17.5685 11.7346 15.4458 14.3849L20.6014 19.5405C20.8943 19.8334 20.8943 20.3083 20.6014 20.6012C20.3085 20.8941 19.8337 20.8941 19.5408 20.6012L14.3851 15.4456ZM6.45932 13.8837C4.40907 11.8334 4.40907 8.50933 6.45932 6.45908C8.50957 4.40882 11.8337 4.40882 13.8839 6.45908C15.9327 8.50782 15.9342 11.8286 13.8885 13.8792C13.8869 13.8807 13.8854 13.8822 13.8839 13.8837C13.8824 13.8852 13.8809 13.8867 13.8794 13.8882C11.8288 15.9339 8.50807 15.9324 6.45932 13.8837Z" fill="black"/>
</svg>
