<svg width="215" height="161" viewBox="0 0 215 161" fill="none" xmlns="http://www.w3.org/2000/svg">
<g clip-path="url(#clip0_271_1126)">
<path d="M98.2834 159.223C98.1285 159.918 97.7413 160.382 96.8893 160.691C96.1148 161 95.1854 161.077 94.256 161C93.3267 160.923 92.4747 160.614 91.7002 160.073C91.0032 159.532 90.6159 158.837 90.6934 157.832C90.8483 156.596 90.9257 155.283 91.0032 153.97C91.1581 152.656 91.313 151.343 91.6228 150.03C92.6296 144.776 93.6364 140.218 94.5658 136.355C95.4952 132.493 96.5021 128.862 97.5864 125.54C98.6707 122.218 99.9873 118.896 101.459 115.651C102.93 112.329 104.789 108.621 107.035 104.449C107.655 103.213 108.429 102.44 109.359 102.131C110.288 101.822 111.14 101.745 111.915 102.054C112.689 102.363 113.386 102.981 114.006 103.831C114.548 104.681 114.858 105.685 114.78 106.767C115.864 105.917 117.026 105.222 118.265 104.681C119.505 104.14 120.666 103.831 121.751 103.754C122.835 103.677 123.842 103.831 124.694 104.217C125.546 104.604 126.165 105.376 126.63 106.458C127.559 108.853 127.869 111.325 127.482 114.029C127.172 116.733 126.398 119.205 125.236 121.6C124.074 123.917 122.603 125.926 120.821 127.703C119.04 129.403 117.104 130.484 115.167 130.87C114.393 131.025 114.006 131.334 113.928 131.72C113.851 132.106 114.315 132.261 115.4 132.106C116.252 132.261 117.259 132.106 118.42 131.643C119.582 131.257 120.821 130.407 122.215 129.248C123.609 128.012 125.081 126.39 126.63 124.304C128.179 122.218 129.728 119.591 131.354 116.346C131.897 115.419 132.439 114.801 133.058 114.57C133.678 114.338 134.22 114.338 134.607 114.647C135.072 114.956 135.304 115.497 135.382 116.269C135.459 117.042 135.227 118.046 134.762 119.128C133.91 120.904 132.903 122.759 131.819 124.613C130.735 126.467 129.573 128.166 128.256 129.789C126.94 131.411 125.546 132.802 123.919 133.961C122.37 135.197 120.589 136.046 118.653 136.665C116.716 137.205 114.858 137.437 112.921 137.283C110.985 137.128 109.436 136.665 108.12 135.969C106.88 135.274 106.028 134.27 105.564 133.034C105.176 131.797 105.564 130.407 106.725 128.862C107.268 128.166 107.887 127.548 108.739 126.93C109.514 126.39 110.366 125.694 111.295 125.076C112.224 124.381 113.076 123.686 113.928 122.836C114.78 122.063 115.555 120.982 116.174 119.823C116.716 118.741 117.259 117.505 117.723 116.115C118.188 114.724 118.42 113.565 118.42 112.484C118.42 111.479 118.188 110.784 117.723 110.475C117.259 110.166 116.407 110.398 115.167 111.248C114.47 111.711 113.696 112.329 112.921 113.179C112.147 113.951 111.45 114.879 110.908 115.883C109.204 119.591 107.655 123.145 106.338 126.467C105.022 129.866 103.86 133.265 102.93 136.742C101.924 140.218 101.072 143.772 100.375 147.48C99.6775 151.034 98.9805 154.974 98.2834 159.223Z" fill="black"/>
<path d="M134.53 119.359C133.988 120.364 133.446 120.905 132.826 121.059C132.206 121.214 131.742 121.136 131.277 120.75C130.89 120.441 130.657 119.823 130.502 119.128C130.425 118.355 130.657 117.505 131.122 116.578C131.354 116.192 131.509 115.883 131.587 115.651C131.664 115.419 131.742 115.265 131.897 115.033C131.974 114.801 132.129 114.492 132.361 114.106C132.516 113.72 132.826 113.179 133.213 112.484C132.903 112.02 132.671 111.402 132.594 110.63C132.439 109.857 132.439 108.93 132.516 107.926C132.594 106.535 132.981 105.067 133.755 103.522C134.53 101.977 135.459 100.741 136.466 99.7366C137.473 98.7323 138.48 98.1142 139.564 97.9597C140.571 97.8052 141.423 98.346 142.12 99.6593C142.74 100.895 142.972 102.132 142.817 103.29C142.662 104.449 142.275 105.531 141.578 106.69C142.585 106.612 143.591 106.535 144.753 106.458C145.915 106.381 146.767 106.612 147.386 107.23C147.774 107.539 148.316 108.08 148.935 108.775C149.555 109.471 150.097 110.243 150.562 111.016C151.027 111.788 151.336 112.561 151.491 113.256C151.646 113.952 151.569 114.57 151.182 115.033C150.717 115.497 150.097 116.424 149.245 117.814C148.471 119.205 147.696 120.673 146.922 122.295C146.225 123.917 145.683 125.463 145.295 126.853C144.986 128.321 145.063 129.248 145.528 129.789C145.837 130.098 146.302 130.098 146.922 129.557C147.464 129.094 148.161 128.321 148.858 127.317C149.555 126.312 150.252 125.231 150.949 123.917C151.646 122.681 152.343 121.445 153.04 120.209C153.737 119.05 154.279 117.969 154.744 116.965C155.209 116.037 155.519 115.342 155.751 115.033C156.293 114.183 156.835 113.643 157.377 113.411C157.92 113.179 158.384 113.256 158.772 113.488C159.159 113.72 159.391 114.183 159.469 114.879C159.546 115.574 159.391 116.346 159.004 117.274C157.997 119.668 156.913 122.063 155.674 124.613C154.434 127.162 153.118 129.403 151.646 131.411C150.175 133.42 148.703 134.965 147.077 136.124C145.45 137.283 143.824 137.669 142.042 137.283C140.726 136.974 139.564 136.278 138.712 135.042C137.783 133.883 137.241 132.416 137.008 130.639C136.698 127.935 136.931 125.385 137.783 123.145C138.557 120.827 139.564 118.664 140.726 116.501C141.191 115.651 141.423 115.033 141.345 114.647C141.268 114.338 141.036 114.106 140.571 114.106C140.106 114.106 139.564 114.106 138.944 114.183C138.247 114.261 137.628 114.338 136.931 114.338C136.621 114.956 136.234 115.651 136.001 116.269C135.769 117.119 135.227 118.046 134.53 119.359Z" fill="black"/>
<path d="M178.444 110.32C178.754 112.484 178.599 114.647 178.134 116.964C177.669 119.282 176.895 121.445 175.888 123.608C177.127 123.377 178.289 122.604 179.296 121.368C180.303 120.132 181.155 118.819 182.006 117.505C182.394 116.887 182.858 116.501 183.401 116.501C183.943 116.501 184.33 116.655 184.717 117.042C185.027 117.428 185.259 117.969 185.414 118.664C185.492 119.359 185.414 120.055 184.95 120.827C183.246 124.149 181.232 126.544 179.063 127.78C176.895 129.093 174.726 129.557 172.713 129.248C171.086 131.488 169.46 133.265 167.911 134.424C165.742 136.124 163.496 137.128 161.327 137.437C159.159 137.746 157.3 137.36 155.751 136.278C154.202 135.197 153.195 133.497 152.576 131.102C152.033 128.707 152.266 125.617 153.273 121.986C153.815 119.746 154.667 117.505 155.751 115.265C156.835 113.024 157.997 111.016 159.314 109.162C160.63 107.307 162.024 105.762 163.496 104.526C164.968 103.29 166.517 102.44 167.988 102.131C169.15 101.9 170.312 101.822 171.473 101.977C172.635 102.131 173.642 102.518 174.571 103.136C175.501 103.754 176.275 104.604 176.972 105.84C177.747 106.921 178.211 108.466 178.444 110.32ZM162.102 122.372C160.708 125.926 159.933 128.475 159.856 129.866C159.701 131.257 160.011 131.952 160.708 131.875C161.405 131.797 162.257 131.102 163.419 129.866C164.58 128.63 165.742 127.085 166.904 125.231C166.207 124.226 165.587 123.145 165.122 121.831C164.658 120.595 164.348 119.205 164.193 117.66C163.806 118.432 163.419 119.282 163.031 119.977C162.722 120.75 162.412 121.6 162.102 122.372ZM172.635 110.938C172.713 109.393 172.48 108.389 172.093 107.926C171.706 107.462 171.241 107.385 170.699 107.617C169.924 108.312 169.382 109.162 168.995 110.166C168.608 111.17 168.453 112.175 168.375 113.333C168.375 114.492 168.453 115.574 168.685 116.733C168.918 117.891 169.305 118.896 169.847 119.823C170.467 118.51 171.009 117.119 171.473 115.728C172.015 114.338 172.403 112.715 172.635 110.938Z" fill="black"/>
<path d="M186.498 105.762C187.118 104.295 187.97 103.213 189.054 102.44C190.139 101.668 191.3 101.668 192.694 102.286C193.624 102.827 194.243 103.445 194.631 104.14C194.94 104.835 195.095 105.608 195.095 106.38C196.102 105.376 197.187 104.449 198.348 103.677C199.51 102.904 200.594 102.44 201.679 102.131C202.763 101.822 203.77 101.822 204.699 101.977C205.629 102.209 206.403 102.749 207.023 103.677C207.797 104.835 208.107 106.38 207.875 108.235C207.642 110.166 207.1 112.097 206.403 114.183C205.706 116.269 204.931 118.278 204.08 120.132C203.228 122.063 202.608 123.531 202.221 124.613C201.369 127.239 200.982 128.862 201.214 129.48C201.446 130.098 201.988 129.943 202.918 128.862C203.46 128.321 204.157 127.471 204.854 126.39C205.551 125.308 206.326 124.226 207.023 122.99C207.72 121.832 208.494 120.595 209.114 119.359C209.811 118.123 210.353 117.042 210.818 116.037C211.36 115.11 211.902 114.57 212.522 114.338C213.141 114.106 213.683 114.183 214.148 114.492C214.613 114.801 214.845 115.342 214.922 116.115C215 116.887 214.768 117.814 214.148 118.819C213.528 119.9 212.831 121.136 212.134 122.604C211.437 123.995 210.663 125.463 209.811 126.93C208.959 128.398 208.107 129.789 207.178 131.102C206.248 132.415 205.396 133.574 204.544 134.501C203.77 135.351 202.685 136.046 201.291 136.587C199.975 137.128 198.658 137.36 197.341 137.205C196.025 137.128 194.863 136.665 193.856 135.892C192.849 135.119 192.23 133.806 192.075 131.952C191.997 130.561 192.23 129.016 192.617 127.317C193.082 125.617 193.546 123.84 194.166 122.063C194.786 120.286 195.405 118.51 196.102 116.81C196.799 115.11 197.419 113.565 197.961 112.097C198.426 110.939 198.503 110.166 198.116 109.702C197.806 109.239 197.187 109.471 196.257 110.243C195.405 110.939 194.398 111.943 193.237 113.256C192.075 114.57 191.3 115.96 190.758 117.428C190.139 119.05 189.519 120.673 188.899 122.45C188.357 124.149 187.738 125.772 187.273 127.317C186.731 128.862 186.266 130.252 185.956 131.566C185.569 132.879 185.337 133.883 185.104 134.656C184.795 135.815 184.252 136.51 183.478 136.742C182.703 136.974 181.851 136.974 181 136.587C180.148 136.278 179.451 135.66 178.908 134.888C178.366 134.115 178.134 133.188 178.289 132.106C178.599 130.484 178.986 128.63 179.451 126.544C179.915 124.458 180.535 122.218 181.232 119.9C181.929 117.582 182.703 115.188 183.555 112.715C184.64 110.552 185.569 108.08 186.498 105.762Z" fill="black"/>
<path d="M136.079 60.4137C135.382 58.3278 135.382 58.3278 133.368 59.1004C133.291 59.1004 133.291 59.1776 133.213 59.2549C135.227 63.8902 134.143 68.371 131.122 72.5428C129.651 74.7059 127.947 75.2467 125.856 74.4742C124.384 73.8561 122.913 73.0836 121.519 72.2337C118.885 70.5341 116.097 70.9977 113.619 73.4698C111.837 75.324 110.753 77.6416 110.133 80.191C109.359 83.0495 108.739 85.9079 107.965 88.6891C107.113 91.6248 105.564 93.6335 102.543 93.7107C102.621 94.406 102.698 95.0241 102.853 95.7966C102.698 95.7194 102.621 95.6421 102.543 95.6421C102.001 94.9468 101.459 94.2515 100.994 93.479C96.7347 86.9895 94.721 79.4185 94.4112 71.1522C93.7916 56.2419 96.967 41.7179 103.008 27.6575C104.635 23.7947 106.029 19.7774 106.493 15.6056C106.881 12.2837 105.796 9.966 103.163 8.88442C99.9101 7.57108 97.1219 5.6397 94.4886 3.32204C89.8417 -0.84974 84.3428 -0.772485 78.534 1.62243C75.8233 2.78126 73.8096 4.78989 72.8802 8.03462C72.4155 9.65698 72.0283 11.3566 71.4861 12.979C70.8665 14.8331 70.1695 16.61 69.4724 18.4641C69.0852 19.3911 68.543 20.2409 68.3107 21.2453C67.3038 25.0308 66.4519 28.739 64.5931 32.2928C60.0236 41.0226 54.6796 49.1344 47.7866 55.8556C42.52 60.9545 36.6338 64.8945 29.9732 66.8259C29.2761 67.0576 28.5016 67.2122 27.7271 67.3667C27.882 67.0576 28.0369 66.9031 28.2693 66.8259C29.431 66.2851 29.8183 65.2808 29.8183 64.0447C29.8183 63.8129 29.8183 63.6584 29.8183 63.4266C29.8957 59.9502 28.3467 58.2505 25.2487 58.1733C24.3193 58.1733 23.3899 58.096 22.538 58.0188C19.7498 57.5552 17.1165 56.7827 14.8705 54.8513C12.8568 53.0744 12.547 51.2203 13.8636 48.5936C14.8705 46.585 16.1097 44.7309 17.2714 42.7995C19.0528 39.7865 19.2851 37.0053 17.5812 34.2242C16.8067 32.9881 16.342 31.3657 16.0322 29.8206C15.645 27.812 16.5744 26.3441 18.2783 25.4171C20.7567 24.0265 22.8478 24.49 24.3968 26.7304C24.8615 27.3484 25.1713 28.0437 25.5585 28.739C26.0232 29.6661 26.4879 30.6704 27.0301 31.5202C28.734 34.3014 31.0575 36.1555 34.4652 36.1555C34.6201 35.5375 34.775 34.9967 34.9299 34.3014C31.9094 34.0696 30.1281 32.1383 28.734 29.5888C27.882 28.0437 27.0301 26.4986 26.1007 25.108C25.0938 23.6402 23.6997 22.7131 21.9959 22.3268C18.6655 21.6315 15.2577 24.2582 14.7156 27.9665C14.4058 29.8206 14.8705 31.443 15.645 32.9108C16.9616 35.4602 17.0391 38.0869 15.7999 40.9454C15.3352 42.0269 14.793 43.1085 14.3283 44.1128C13.3215 46.276 12.1598 48.2846 11.3078 50.525C10.301 53.229 10.7657 55.2376 12.8568 56.6282C14.1734 57.478 15.5675 58.1733 17.0391 58.6368C19.3626 59.3321 21.841 59.8729 24.2419 60.4137C25.4036 60.6455 26.0232 61.418 26.1781 62.6541C26.2556 63.4266 26.4105 64.1992 26.2556 64.9718C25.7909 67.6757 25.5585 70.3796 24.7066 72.929C22.7703 78.6459 20.6792 84.3628 18.4332 90.0025C13.5538 102.209 7.90003 114.029 0.85212 124.999C-0.309623 126.776 -0.154724 127.935 1.39427 129.016C2.78836 130.021 4.2599 130.948 5.65399 131.875C12.7794 136.51 20.2145 140.605 27.7271 144.39C33.6907 147.326 39.6544 150.107 46.0052 152.038C57.4678 155.592 69.2401 157.987 81.3997 158.76C83.8781 158.914 84.3428 158.528 84.8074 155.747C84.8074 155.669 84.8074 155.592 84.8849 155.515C86.1241 147.094 88.1378 138.828 90.5387 130.561C93.6367 119.978 97.3543 109.625 101.537 99.5049C102.001 98.4233 102.388 97.6507 103.55 97.6507C104.17 97.6507 104.867 97.1872 105.486 96.8782C107.423 95.7194 108.894 93.9425 110.056 91.7793C111.605 88.8436 112.225 85.6762 112.612 82.4314C112.922 79.3412 114.006 76.5601 116.252 74.3969C117.801 72.8518 119.195 72.62 120.821 73.6244C121.596 74.0879 122.37 74.6287 123.145 75.1695C127.482 77.9506 132.207 76.4055 134.84 71.1522C136.544 67.5984 137.241 64.0447 136.079 60.4137ZM78.0693 4.63538C82.7938 1.85419 87.4407 1.31341 92.0103 3.78558C92.8622 4.24911 93.5592 5.02166 94.1788 5.79421C95.418 7.41657 96.8896 8.5754 98.8258 9.11619C100.607 9.57972 102.001 10.7386 103.395 11.9746C104.557 12.979 104.944 14.3695 104.867 16.0692C104.712 19.2366 103.628 22.1723 101.924 24.8763C99.0582 29.3571 96.7347 34.1469 95.0308 39.1685C94.4112 41.0226 94.4112 40.5591 95.6504 41.4089C95.8827 41.5634 96.1925 41.7952 96.4249 41.9497C96.4249 42.0269 96.3474 42.1042 96.3474 42.1814C85.8143 40.4818 76.0556 36.8508 66.994 31.2112C66.994 31.1339 67.0715 31.0567 67.0715 30.9794C67.1489 30.9794 67.3038 30.9794 67.3813 30.9794C69.0077 31.2112 69.0852 31.2112 69.4724 29.4343C69.7822 27.8892 70.092 26.3441 70.092 24.799C70.1695 22.5586 70.7116 20.3955 71.4861 18.2323C72.3381 15.7601 72.8802 13.288 73.4998 10.7386C74.1969 8.03462 75.7459 6.02598 78.0693 4.63538Z" fill="black"/>
<path d="M78.9986 101.668C79.5407 101.977 79.928 102.363 80.1603 102.672C80.3927 103.059 80.3927 103.368 80.3152 103.754C80.2378 104.063 80.0054 104.372 79.6956 104.604C79.3858 104.836 78.9211 104.913 78.379 104.913H75.5134C74.7389 106.999 74.0418 109.007 73.4997 111.093C72.9575 113.179 72.5703 115.265 72.3379 117.274C72.1056 119.282 72.1056 121.368 72.3379 123.454C72.5703 125.463 73.035 127.471 73.8869 129.48C74.2742 130.175 74.3516 130.793 74.1193 131.334C73.8869 131.875 73.5771 132.338 73.1124 132.647C72.6477 132.956 72.1056 133.111 71.486 133.111C70.8664 133.111 70.4017 132.879 69.937 132.493C68.388 130.793 67.2263 128.939 66.5292 126.853C65.8322 124.767 65.4449 122.604 65.4449 120.287C65.3675 117.969 65.5998 115.651 66.0645 113.179C66.5292 110.707 67.1488 108.235 67.9233 105.763C65.3675 106.303 62.9665 106.921 60.5656 107.617C58.1647 108.389 55.9186 109.085 53.75 109.78C51.8912 112.87 49.955 115.883 47.9413 118.741C46.0051 121.6 43.9139 124.149 41.7454 126.312C39.5768 128.476 37.4082 130.175 35.0072 131.489C32.6838 132.725 30.2054 133.343 27.6495 133.188C25.8682 133.111 24.3192 132.57 23.0026 131.566C21.6859 130.562 20.6791 129.325 19.982 127.78C19.285 126.235 18.9752 124.536 19.0526 122.604C19.1301 120.673 19.6722 118.741 20.6791 116.733C20.9889 116.115 21.4536 115.729 22.1506 115.574C22.7702 115.419 23.3898 115.342 24.0094 115.497C24.5516 115.651 25.0162 115.883 25.326 116.347C25.6358 116.81 25.6358 117.351 25.4035 117.969C24.0869 120.596 23.8545 122.527 24.7839 123.763C25.7133 124.999 27.4172 125.694 29.8181 125.694C30.9799 125.694 32.1416 125.385 33.3033 124.767C34.4651 124.149 35.6268 123.222 36.7111 122.063C37.8729 120.905 38.9572 119.514 40.1189 117.969C41.2807 116.347 42.4424 114.647 43.6041 112.716C41.9777 113.102 40.4287 113.256 38.9572 113.334C37.4856 113.411 36.0915 113.256 34.7749 112.87C33.4582 112.484 32.1416 111.866 30.9799 111.016C29.7407 110.166 28.5789 109.007 27.4946 107.462C26.7976 106.69 26.3329 105.994 26.1005 105.299C25.9456 104.604 25.9456 104.14 26.178 103.754C26.4103 103.368 26.7976 103.213 27.4172 103.213C27.9593 103.213 28.6564 103.522 29.4309 104.14C30.825 105.222 32.2965 105.84 33.9229 105.994C35.5494 106.226 37.1758 106.149 38.8797 105.917C40.5836 105.685 42.2875 105.299 43.9914 104.758C45.6953 104.217 47.3992 103.754 48.9482 103.368C50.9618 99.8139 53.053 96.1829 55.2216 92.4747C57.3902 88.7664 59.6362 85.3672 62.0371 82.3542C64.4381 79.264 66.9165 76.6373 69.5497 74.5514C72.183 72.3883 74.9712 71.075 77.9143 70.5342C79.2309 70.3024 80.3927 70.3024 81.3995 70.5342C82.4064 70.7659 83.1809 71.3067 83.8005 72.0793C84.3426 72.8518 84.7299 73.9334 84.8073 75.324C84.8848 76.7146 84.7299 78.337 84.1877 80.3456C83.4132 83.6676 82.2515 87.0668 80.7799 90.5433C79.3084 94.0198 77.9143 97.4963 76.5202 100.896L78.9986 101.668ZM71.6409 82.586C69.4723 84.5174 67.3037 87.2213 65.2126 90.6206C63.044 94.0198 60.8754 97.728 58.6293 101.745C60.5656 101.359 62.4244 101.05 64.2832 100.818C66.142 100.586 68.0007 100.432 69.8595 100.432C71.0213 97.4963 72.183 94.5606 73.3448 91.7794C74.5065 88.9982 75.5908 86.3715 76.4427 83.8993C77.0623 82.1225 77.2172 80.9636 77.0623 80.3456C76.9074 79.8048 76.4427 79.573 75.8232 79.7276C75.2036 79.8821 74.5065 80.2683 73.6546 80.8864C72.9575 81.4272 72.183 82.0452 71.6409 82.586Z" fill="#FFE55B"/>
</g>
<defs>
<clipPath id="clip0_271_1126">
<rect width="215" height="161" fill="white"/>
</clipPath>
</defs>
</svg>
