<svg width="53" height="53" viewBox="0 0 53 53" fill="none" xmlns="http://www.w3.org/2000/svg">
<path d="M18.7351 24.1435C18.5408 29.4231 18.6525 34.7112 19.0703 39.9811L19.1033 40.3979C19.1802 41.3672 19.8795 42.1735 20.8283 42.3865C24.5505 43.2223 28.4128 43.222 32.1348 42.3862C33.0807 42.1738 33.7795 41.3715 33.8594 40.4047L33.8912 40.0199C34.3274 34.7371 34.4444 29.4346 34.2422 24.1412C34.2082 23.2517 33.4772 22.5482 32.5871 22.5482L20.3902 22.5482C19.4992 22.5482 18.7679 23.2531 18.7351 24.1435Z" fill="black"/>
<path fill-rule="evenodd" clip-rule="evenodd" d="M30.9166 3.86454L22.0833 3.86454C19.949 3.86454 18.2187 5.59478 18.2187 7.72913L18.2187 9.16455L18.0855 9.16455C15.2786 9.16455 12.9442 11.324 12.726 14.1224L12.5076 16.9237C11.8959 24.7682 11.8959 32.6484 12.5076 40.4929L12.7396 43.4689C12.9479 46.1402 14.949 48.3262 17.5915 48.7692C23.4893 49.7579 29.5106 49.7579 35.4085 48.7692C38.051 48.3262 40.052 46.1402 40.2603 43.4689L40.4924 40.4929C41.104 32.6484 41.104 24.7682 40.4924 16.9237L40.2739 14.1224C40.0557 11.324 37.7213 9.16455 34.9145 9.16455L34.7812 9.16455L34.7812 7.72912C34.7812 5.59478 33.051 3.86454 30.9166 3.86454ZM22.0833 7.17704L30.9166 7.17704C31.2215 7.17704 31.4687 7.42422 31.4687 7.72913L31.4687 10.8208C31.4687 11.7355 32.2102 12.477 33.125 12.477L34.9144 12.477C35.9918 12.477 36.8877 13.3059 36.9715 14.3799L37.1899 17.1812C37.7882 24.8543 37.7882 32.5623 37.1899 40.2354L36.9578 43.2114C36.8678 44.3659 36.0029 45.3108 34.8608 45.5023C29.3255 46.4302 23.6744 46.4302 18.1392 45.5023C16.997 45.3108 16.1321 44.3659 16.0421 43.2114L15.81 40.2354C15.2118 32.5623 15.2118 24.8543 15.81 17.1812L16.0285 14.3799C16.1122 13.3059 17.0082 12.477 18.0855 12.477L19.875 12.477C20.7897 12.477 21.5312 11.7355 21.5312 10.8208L21.5312 7.72913C21.5312 7.42422 21.7784 7.17704 22.0833 7.17704Z" fill="black"/>
<path d="M18.7351 24.1435C18.5408 29.4231 18.6525 34.7112 19.0703 39.9811L19.1033 40.3979C19.1802 41.3672 19.8795 42.1735 20.8283 42.3865C24.5505 43.2223 28.4128 43.222 32.1348 42.3862C33.0807 42.1738 33.7795 41.3715 33.8594 40.4047L33.8912 40.0199C34.3274 34.7371 34.4444 29.4346 34.2422 24.1412C34.2082 23.2517 33.4772 22.5482 32.5871 22.5482L20.3902 22.5482C19.4992 22.5482 18.7679 23.2531 18.7351 24.1435Z" fill="#FFE55B"/>
</svg>
