<svg width="53" height="53" viewBox="0 0 53 53" fill="none" xmlns="http://www.w3.org/2000/svg">
<path d="M20.309 29.1732C19.8662 29.1732 19.4419 29.3505 19.1307 29.6655C18.8195 29.9805 18.6474 30.407 18.6529 30.8497C18.6902 33.8962 18.8294 36.9416 19.0703 39.9811L19.1033 40.3979C19.1802 41.3672 19.8795 42.1735 20.8283 42.3865C24.5505 43.2223 28.4128 43.222 32.1348 42.3862C33.0807 42.1738 33.7796 41.3715 33.8594 40.4047L33.8912 40.0199C34.1432 36.9681 34.2886 33.9098 34.3276 30.8505C34.3332 30.4076 34.1612 29.9809 33.85 29.6658C33.5389 29.3506 33.1144 29.1732 32.6715 29.1732L20.309 29.1732Z" fill="black"/>
<path fill-rule="evenodd" clip-rule="evenodd" d="M30.9166 3.86454L22.0833 3.86454C19.949 3.86454 18.2187 5.59478 18.2187 7.72913L18.2187 9.16455L18.0855 9.16455C15.2786 9.16455 12.9442 11.324 12.726 14.1224L12.5076 16.9237C11.8959 24.7682 11.8959 32.6484 12.5076 40.4929L12.7396 43.4689C12.9479 46.1402 14.949 48.3262 17.5915 48.7692C23.4893 49.7579 29.5106 49.7579 35.4085 48.7692C38.051 48.3262 40.052 46.1402 40.2603 43.4689L40.4924 40.4929C41.104 32.6484 41.104 24.7682 40.4924 16.9237L40.2739 14.1224C40.0557 11.324 37.7213 9.16455 34.9145 9.16455L34.7812 9.16455L34.7812 7.72912C34.7812 5.59478 33.051 3.86454 30.9166 3.86454ZM22.0833 7.17704L30.9166 7.17704C31.2215 7.17704 31.4687 7.42422 31.4687 7.72913L31.4687 10.8208C31.4687 11.7355 32.2102 12.477 33.125 12.477L34.9144 12.477C35.9918 12.477 36.8877 13.3059 36.9715 14.3799L37.1899 17.1812C37.7882 24.8543 37.7882 32.5623 37.1899 40.2354L36.9578 43.2114C36.8678 44.3659 36.0029 45.3108 34.8608 45.5023C29.3255 46.4302 23.6744 46.4302 18.1392 45.5023C16.997 45.3108 16.1321 44.3659 16.0421 43.2114L15.81 40.2354C15.2118 32.5623 15.2118 24.8543 15.81 17.1812L16.0285 14.3799C16.1122 13.3059 17.0082 12.477 18.0855 12.477L19.875 12.477C20.7897 12.477 21.5312 11.7355 21.5312 10.8208L21.5312 7.72913C21.5312 7.42422 21.7784 7.17704 22.0833 7.17704Z" fill="black"/>
<path d="M20.309 29.1732C19.8662 29.1732 19.4419 29.3505 19.1307 29.6655C18.8195 29.9805 18.6474 30.407 18.6529 30.8497C18.6902 33.8962 18.8294 36.9416 19.0703 39.9811L19.1033 40.3979C19.1802 41.3672 19.8795 42.1735 20.8283 42.3865C24.5505 43.2223 28.4128 43.222 32.1348 42.3862C33.0807 42.1738 33.7796 41.3715 33.8594 40.4047L33.8912 40.0199C34.1432 36.9681 34.2886 33.9098 34.3276 30.8505C34.3332 30.4076 34.1612 29.9809 33.85 29.6658C33.5388 29.3506 33.1144 29.1732 32.6715 29.1732L20.309 29.1732Z" fill="#FFE55B"/>
</svg>
