<svg width="30" height="30" viewBox="0 0 30 30" fill="none" xmlns="http://www.w3.org/2000/svg">
<path fill-rule="evenodd" clip-rule="evenodd" d="M19.9052 5.52304C16.6638 4.97963 13.3361 4.97963 10.0947 5.52304C9.48473 5.6253 9.00024 6.09396 8.87864 6.69763C7.7723 12.1901 7.71193 17.842 8.70071 23.3568L8.90515 24.4971L13.4933 20.1383C14.3376 19.3362 15.6623 19.3362 16.5066 20.1383L21.0948 24.4971L21.2992 23.3568C22.288 17.842 22.2276 12.1901 21.1213 6.69763C20.9997 6.09396 20.5152 5.6253 19.9052 5.52304ZM9.78472 3.67384C13.2314 3.09602 16.7685 3.09602 20.2152 3.67384C21.5892 3.90419 22.6837 4.95896 22.9593 6.32739C24.1122 12.051 24.1752 17.9408 23.1448 23.6877L22.8679 25.2319C22.6355 26.5279 21.0555 27.046 20.1009 26.1391L15.2152 21.4977C15.0946 21.3831 14.9053 21.3831 14.7847 21.4977L9.89905 26.1391C8.94443 27.046 7.36438 26.5279 7.132 25.2319L6.85514 23.6877C5.82475 17.9408 5.88765 12.051 7.04056 6.32739C7.3162 4.95896 8.4107 3.90419 9.78472 3.67384Z" fill="black"/>
</svg>
