<svg width="20" height="21" viewBox="0 0 20 21" fill="none" xmlns="http://www.w3.org/2000/svg">
<path d="M4.4288 1.41309C4.70116 1.10101 4.66896 0.627231 4.35689 0.354869C4.04481 0.0825061 3.57103 0.1147 3.29867 0.426777L2.00686 1.90695C1.2741 2.74655 0.859868 3.81707 0.836631 4.93122L0.779952 7.64888C0.771315 8.063 1.10003 8.40572 1.51415 8.41436C1.92827 8.42299 2.27099 8.09428 2.27963 7.68016L2.3363 4.9625C2.3522 4.20018 2.63562 3.46773 3.13699 2.89326L4.4288 1.41309Z" fill="black"/>
<path fill-rule="evenodd" clip-rule="evenodd" d="M4.237 6.70087C4.3759 4.48013 6.21749 2.75012 8.44256 2.75012H8.99998V2.00012C8.99998 1.44784 9.4477 1.00012 9.99998 1.00012C10.5523 1.00012 11 1.44784 11 2.00012V2.75012H11.5574C13.7825 2.75012 15.6241 4.48013 15.763 6.70087L15.984 10.2343C16.0682 11.5815 16.5205 12.8798 17.2916 13.9877C17.9882 14.9888 17.368 16.3713 16.1571 16.5166L12.75 16.9255V18.0001C12.75 19.5189 11.5188 20.7501 9.99998 20.7501C8.4812 20.7501 7.24998 19.5189 7.24998 18.0001V16.9255L3.84285 16.5166C2.63192 16.3713 2.0117 14.9888 2.70839 13.9877C3.47945 12.8798 3.93173 11.5815 4.016 10.2343L4.237 6.70087ZM8.44256 4.25012C7.00956 4.25012 5.82353 5.36429 5.73407 6.7945L5.51307 10.328C5.41168 11.9491 4.86742 13.5113 3.93957 14.8445C3.88922 14.9169 3.93405 15.0168 4.02157 15.0273L7.75923 15.4759C9.24772 15.6545 10.7522 15.6545 12.2407 15.4759L15.9784 15.0273C16.0659 15.0168 16.1107 14.9169 16.0604 14.8445C15.1325 13.5113 14.5883 11.9491 14.4869 10.328L14.2659 6.7945C14.1764 5.36429 12.9904 4.25012 11.5574 4.25012H8.44256ZM9.99998 19.2501C9.30963 19.2501 8.74998 18.6905 8.74998 18.0001V17.2501H11.25V18.0001C11.25 18.6905 10.6903 19.2501 9.99998 19.2501Z" fill="black"/>
<path d="M15.6431 0.354869C15.331 0.627231 15.2988 1.10101 15.5712 1.41309L16.863 2.89326C17.3643 3.46773 17.6478 4.20018 17.6637 4.9625L17.7203 7.68016C17.729 8.09428 18.0717 8.42299 18.4858 8.41436C18.8999 8.40572 19.2287 8.063 19.22 7.64888L19.1633 4.93122C19.1401 3.81707 18.7259 2.74655 17.9931 1.90695L16.7013 0.426777C16.4289 0.1147 15.9552 0.0825061 15.6431 0.354869Z" fill="black"/>
</svg>
