<svg width="30" height="30" viewBox="0 0 30 30" fill="none" xmlns="http://www.w3.org/2000/svg">
<circle cx="15" cy="15" r="15" fill="#FFE55B"/>
<path d="M15.112 7.654C15.88 7.654 16.57 7.822 17.182 8.158C17.806 8.482 18.292 8.944 18.64 9.544C18.988 10.132 19.162 10.804 19.162 11.56C19.162 12.208 19.06 12.778 18.856 13.27C18.652 13.75 18.376 14.182 18.028 14.566C17.68 14.938 17.23 15.346 16.678 15.79C16.39 16.018 16.18 16.324 16.048 16.708C15.916 17.092 15.85 17.44 15.85 17.752C15.85 18.016 15.766 18.238 15.598 18.418C15.43 18.586 15.208 18.67 14.932 18.67C14.668 18.67 14.446 18.586 14.266 18.418C14.098 18.238 14.014 18.016 14.014 17.752C14.014 17.248 14.14 16.72 14.392 16.168C14.644 15.616 15.01 15.136 15.49 14.728C15.946 14.344 16.288 14.026 16.516 13.774C16.756 13.522 16.954 13.216 17.11 12.856C17.278 12.496 17.362 12.064 17.362 11.56C17.362 10.948 17.158 10.426 16.75 9.994C16.342 9.562 15.796 9.346 15.112 9.346C14.26 9.346 13.612 9.58 13.168 10.048C12.736 10.504 12.52 11.128 12.52 11.92C12.52 12.184 12.436 12.406 12.268 12.586C12.1 12.754 11.878 12.838 11.602 12.838C11.338 12.838 11.116 12.754 10.936 12.586C10.768 12.406 10.684 12.184 10.684 11.92C10.684 11.092 10.864 10.354 11.224 9.706C11.596 9.058 12.118 8.554 12.79 8.194C13.462 7.834 14.236 7.654 15.112 7.654ZM14.932 19.498C15.28 19.498 15.574 19.624 15.814 19.876C16.066 20.116 16.192 20.41 16.192 20.758C16.192 21.094 16.066 21.388 15.814 21.64C15.574 21.88 15.28 22 14.932 22C14.596 22 14.302 21.88 14.05 21.64C13.81 21.388 13.69 21.094 13.69 20.758C13.69 20.41 13.81 20.116 14.05 19.876C14.302 19.624 14.596 19.498 14.932 19.498Z" fill="black"/>
</svg>
