<svg width="30" height="30" viewBox="0 0 30 30" fill="none" xmlns="http://www.w3.org/2000/svg">
<path d="M13.125 19.9999C13.125 18.9644 13.9645 18.1249 15 18.1249C16.0355 18.1249 16.875 18.9644 16.875 19.9999C16.875 21.0354 16.0355 21.8749 15 21.8749C13.9645 21.8749 13.125 21.0354 13.125 19.9999Z" fill="black"/>
<path fill-rule="evenodd" clip-rule="evenodd" d="M9.52707 13.2463L9.13276 9.6976C9.08221 9.24263 9.08221 8.78346 9.13276 8.32848L9.16122 8.07236C9.46308 5.35563 11.5988 3.20605 14.3136 2.88667C14.7696 2.83302 15.2303 2.83302 15.6864 2.88667C18.4011 3.20605 20.5369 5.35563 20.8387 8.07236L20.8672 8.32849C20.9177 8.78346 20.9177 9.24263 20.8672 9.6976L20.4729 13.2463L21.3311 13.3148C22.6845 13.4229 23.7897 14.4403 24.0091 15.7801C24.4667 18.5747 24.4667 21.4251 24.0091 24.2196C23.7897 25.5595 22.6845 26.5769 21.3311 26.6849L19.461 26.8342C16.4917 27.0713 13.5083 27.0713 10.5391 26.8342L8.66894 26.6849C7.31553 26.5769 6.2104 25.5595 5.991 24.2196C5.53341 21.4251 5.53341 18.5747 5.991 15.7801C6.2104 14.4403 7.31553 13.4229 8.66894 13.3148L9.52707 13.2463ZM14.5326 4.74883C14.8431 4.7123 15.1568 4.7123 15.4673 4.74883C17.3156 4.96628 18.7697 6.42978 18.9752 8.27942L19.0036 8.53554C19.0389 8.8529 19.0389 9.17319 19.0036 9.49054L18.6022 13.1036C16.2032 12.9491 13.7967 12.9491 11.3977 13.1036L10.9963 9.49054C10.961 9.17319 10.961 8.8529 10.9963 8.53554L11.0248 8.27942C11.2303 6.42978 12.6844 4.96628 14.5326 4.74883ZM19.3118 15.0346C16.4418 14.8055 13.5582 14.8055 10.6883 15.0346L8.81815 15.1839C8.32449 15.2233 7.92139 15.5944 7.84136 16.0831C7.41663 18.677 7.41663 21.3228 7.84136 23.9167C7.92139 24.4054 8.32449 24.7765 8.81815 24.8159L10.6883 24.9652C13.5582 25.1943 16.4418 25.1943 19.3118 24.9652L21.1819 24.8159C21.6756 24.7765 22.0787 24.4054 22.1587 23.9167C22.5834 21.3228 22.5834 18.677 22.1587 16.0831C22.0787 15.5944 21.6756 15.2233 21.1819 15.1839L19.3118 15.0346Z" fill="black"/>
</svg>
