<svg width="126" height="145" viewBox="0 0 126 145" fill="none" xmlns="http://www.w3.org/2000/svg">
<path d="M90.418 133.676V140.631C90.418 142.241 89.1534 143.505 87.5439 143.505H38.3975C36.788 143.505 35.5234 142.241 35.5234 140.631V133.676C36.3282 133.734 37.1329 133.734 37.9376 133.734H87.9463C88.8085 133.791 89.6132 133.734 90.418 133.676Z" fill="white"/>
<path d="M87.5439 145H38.3975C36.0408 145 34.0864 143.046 34.0864 140.689V133.734C34.0864 133.331 34.2589 132.929 34.5463 132.699C34.8337 132.412 35.236 132.297 35.6384 132.297C36.4432 132.354 37.2479 132.354 37.9951 132.354H88.0038C88.751 132.354 89.5558 132.354 90.3605 132.297C90.7629 132.297 91.1652 132.412 91.4526 132.699C91.74 132.986 91.9125 133.331 91.9125 133.734V140.689C91.855 143.046 89.9007 145 87.5439 145ZM36.9605 135.228V140.689C36.9605 141.494 37.5928 142.126 38.3975 142.126H87.5439C88.3487 142.126 88.9809 141.494 88.9809 140.689V135.228C88.6361 135.228 88.2912 135.228 88.0038 135.228H37.9951C37.5928 135.228 37.3054 135.228 36.9605 135.228Z" fill="black"/>
<path d="M93.4065 28.3133C93.8663 32.5669 97.8325 34.5787 102.718 32.9117C106.34 36.3031 111.283 36.9929 113.87 34.4063C116.456 31.8196 115.767 26.8762 112.375 23.2549C114.042 18.369 112.03 14.4603 107.777 13.943C108.409 10.9539 107.892 8.25232 106.11 6.4704C102.488 2.84909 95.0734 4.45856 89.4977 10.0342C83.9221 15.6099 82.3126 23.025 85.9339 26.6463C87.7158 28.4282 90.4174 28.9455 93.4065 28.3133Z" fill="#FFE55B"/>
<path d="M109.731 37.3953C107.317 37.3953 104.616 36.4181 102.374 34.5212C99.6147 35.2685 97.0855 34.9811 95.1311 33.774C93.7516 32.9118 92.7744 31.5897 92.3146 29.9802C89.3255 30.2676 86.7389 29.5204 84.957 27.681C80.7608 23.4848 82.3128 15.265 88.5208 9.05706C94.7288 2.84909 102.891 1.2971 107.145 5.49323C108.927 7.27515 109.731 9.8618 109.444 12.8508C111.053 13.3107 112.376 14.3453 113.238 15.7249C114.502 17.6792 114.732 20.2084 113.985 22.9675C117.434 27.1062 117.894 32.5094 114.905 35.4984C113.525 36.763 111.686 37.3953 109.731 37.3953ZM102.719 31.4747C103.064 31.4747 103.408 31.5897 103.696 31.8771C106.742 34.7512 110.824 35.4409 112.835 33.4291C114.847 31.4172 114.157 27.3361 111.283 24.2896C110.938 23.8872 110.824 23.3699 110.996 22.8525C111.743 20.6683 111.686 18.6564 110.766 17.2769C110.076 16.2422 108.984 15.6099 107.605 15.4375C107.202 15.38 106.857 15.2075 106.627 14.8627C106.397 14.5178 106.282 14.1154 106.397 13.713C106.915 11.1264 106.512 8.9421 105.133 7.56255C102.144 4.57353 95.476 6.24048 90.5901 11.1264C85.7042 16.0123 84.0373 22.6801 87.0263 25.6691C88.4058 27.0487 90.5901 27.5085 93.1768 26.9337C93.5792 26.8762 93.9815 26.9337 94.3264 27.1636C94.6713 27.3936 94.8437 27.7384 94.9012 28.1408C95.0737 29.5778 95.706 30.67 96.7406 31.3023C98.1202 32.1645 100.132 32.2795 102.316 31.5322C102.374 31.4747 102.546 31.4747 102.719 31.4747Z" fill="black"/>
<path d="M109.904 31.8771C109.559 31.8771 109.157 31.7621 108.869 31.4747L88.4633 11.0689C87.8885 10.4941 87.8885 9.57442 88.4633 9.05709C89.0381 8.48227 89.9578 8.48227 90.4752 9.05709L110.881 29.4629C111.456 30.0377 111.456 30.9574 110.881 31.4747C110.651 31.7621 110.306 31.8771 109.904 31.8771Z" fill="black"/>
<path d="M102.776 30.1528C102.776 30.1528 102.718 30.1528 102.776 30.1528C101.971 30.1528 101.339 29.463 101.339 28.7158L101.396 23.4275C101.396 22.6228 102.029 22.0479 102.833 21.9905L108.409 21.933C109.156 21.933 109.846 22.5653 109.846 23.37C109.846 24.1747 109.214 24.807 108.409 24.807L104.213 24.8645L104.155 28.7732C104.213 29.5205 103.523 30.1528 102.776 30.1528Z" fill="black"/>
<path d="M93.5215 25.0369C92.7168 25.0369 92.0845 24.3471 92.0845 23.5424L92.3144 14.2304C92.3144 13.4832 92.9467 12.8509 93.6939 12.8509L103.121 12.621C103.926 12.621 104.558 13.2533 104.615 14.0005C104.615 14.8053 103.983 15.4375 103.236 15.495L95.1885 15.6675L94.9585 23.5999C94.9585 24.4046 94.3262 25.0369 93.5215 25.0369Z" fill="black"/>
<path d="M35.1784 60.6177C39.7769 60.1004 41.8462 55.9043 40.1218 50.6735C43.7431 46.8222 44.4904 41.534 41.7313 38.7174C38.9722 35.9583 33.6839 36.6481 29.7752 40.3269C24.5444 38.5449 20.3483 40.6717 19.831 45.2702C16.6695 44.5805 13.738 45.1553 11.8411 47.0522C7.98983 50.9034 9.71427 58.8358 15.6348 64.8138C21.5554 70.7919 29.5453 72.4588 33.3965 68.6076C35.2934 66.6532 35.8682 63.7792 35.1784 60.6177Z" fill="#FFE55B"/>
<path d="M27.8783 72.1139C23.6822 72.1139 18.7388 69.9296 14.6576 65.7909C7.98981 59.1806 6.32285 50.501 10.8064 46.0174C12.7033 44.1205 15.4624 43.2583 18.6813 43.6032C19.1986 41.8788 20.2333 40.4417 21.7278 39.4646C23.7971 38.1425 26.4987 37.8551 29.4303 38.6598C33.8563 34.981 39.547 34.4637 42.7084 37.6827C45.8699 40.8441 45.41 46.5922 41.7313 50.9608C42.536 53.8923 42.2486 56.594 40.9265 58.6633C40.0068 60.1578 38.5698 61.1925 36.8454 61.7098C37.1902 64.9287 36.3855 67.6878 34.4311 69.5847C32.7067 71.3091 30.4075 72.1139 27.8783 72.1139ZM17.3018 46.4198C15.4624 46.4198 13.9104 46.9946 12.8182 48.0293C9.59928 51.2482 11.3237 58.4334 16.612 63.7216C21.9003 69.0099 29.0854 70.7918 32.3043 67.5154C33.7989 66.0209 34.2587 63.6641 33.6839 60.8476C33.6264 60.4452 33.6839 60.0428 33.9138 59.6979C34.1437 59.3531 34.4886 59.1806 34.891 59.1231C36.443 58.9507 37.6501 58.2609 38.3399 57.1113C39.3171 55.6168 39.3745 53.4325 38.5698 51.0758C38.3973 50.5584 38.5123 50.0411 38.8572 49.6387C41.9612 46.3623 42.7084 41.8788 40.4667 39.6945C38.2824 37.5102 33.7989 38.2575 30.5224 41.304C30.1201 41.6489 29.6027 41.7638 29.0854 41.5914C26.6712 40.7866 24.5444 40.8441 23.0499 41.8213C21.9003 42.5685 21.2105 43.7757 21.038 45.2702C20.9806 45.6725 20.8081 46.0174 20.4632 46.2473C20.1183 46.4773 19.716 46.5922 19.3136 46.4773C18.7388 46.4773 17.9915 46.4198 17.3018 46.4198Z" fill="black"/>
<path d="M15.6347 66.1933C15.2898 66.1933 14.8875 66.0783 14.6001 65.7909C14.0252 65.2161 14.0252 64.2964 14.6001 63.7791L36.4429 41.9362C37.0177 41.3614 37.9374 41.3614 38.4547 41.9362C39.0296 42.511 39.0296 43.4307 38.4547 43.9481L16.6119 65.7909C16.382 66.0783 16.0371 66.1933 15.6347 66.1933Z" fill="black"/>
<path d="M35.5805 51.9955L29.8899 51.938C29.0851 51.938 28.5103 51.3057 28.4529 50.501L28.3379 44.523C28.3379 43.7182 28.9702 43.0859 29.7749 43.0859C30.5797 43.0859 31.2119 43.7182 31.2119 44.523L31.2694 49.1215L35.5805 49.1789C36.3853 49.1789 37.0175 49.8687 37.0175 50.616C37.0175 51.3632 36.3853 51.9955 35.5805 51.9955Z" fill="black"/>
<path d="M30.12 61.8823L20.1183 61.6524C19.371 61.6524 18.7387 61.0201 18.7387 60.2728L18.5088 50.1561C18.5088 49.3514 19.1411 48.7191 19.8883 48.6616C20.6931 48.6616 21.3254 49.2939 21.3828 50.0412L21.6128 58.7783L30.1775 59.0082C30.9822 59.0082 31.6145 59.698 31.557 60.5027C31.557 61.3075 30.9247 61.8823 30.12 61.8823Z" fill="black"/>
<path d="M29.2007 18.8289C32.3622 21.9903 37.5355 21.9903 40.6969 18.8289L29.2007 7.33264C26.0392 10.4941 26.0392 15.6099 29.2007 18.8289Z" fill="#FFE55B"/>
<path d="M34.9488 22.6226C32.4196 22.6226 30.0054 21.6454 28.166 19.806C24.4297 16.0697 24.4297 9.97673 28.166 6.29793C28.7408 5.72312 29.6605 5.72312 30.1778 6.29793L41.6741 17.7942C42.2489 18.369 42.2489 19.2887 41.6741 19.806C39.8921 21.6454 37.4779 22.6226 34.9488 22.6226ZM29.3156 9.4594C27.6486 12.046 27.9361 15.5524 30.2353 17.7942C31.4999 19.0588 33.1668 19.7485 34.9488 19.7485C36.2708 19.7485 37.4779 19.4036 38.5701 18.7139L29.3156 9.4594Z" fill="black"/>
<path d="M57.7111 51.0183C59.6158 51.0183 61.1599 49.4742 61.1599 47.5695C61.1599 45.6647 59.6158 44.1206 57.7111 44.1206C55.8063 44.1206 54.2622 45.6647 54.2622 47.5695C54.2622 49.4742 55.8063 51.0183 57.7111 51.0183Z" fill="#FFE55B"/>
<path d="M57.7111 52.4554C55.0095 52.4554 52.8252 50.2711 52.8252 47.5695C52.8252 44.8679 55.0095 42.6836 57.7111 42.6836C60.4127 42.6836 62.597 44.8679 62.597 47.5695C62.597 50.2711 60.4127 52.4554 57.7111 52.4554ZM57.7111 45.5002C56.5615 45.5002 55.6993 46.4199 55.6993 47.512C55.6993 48.6042 56.619 49.5239 57.7111 49.5239C58.8032 49.5239 59.7229 48.6042 59.7229 47.512C59.7229 46.4199 58.8607 45.5002 57.7111 45.5002Z" fill="black"/>
<path d="M78.5768 42.8559C80.4816 42.8559 82.0257 41.3118 82.0257 39.407C82.0257 37.5022 80.4816 35.9581 78.5768 35.9581C76.672 35.9581 75.1279 37.5022 75.1279 39.407C75.1279 41.3118 76.672 42.8559 78.5768 42.8559Z" fill="#FFE55B"/>
<path d="M78.5768 44.3504C75.8752 44.3504 73.6909 42.1661 73.6909 39.4645C73.6909 36.7629 75.8752 34.5786 78.5768 34.5786C81.2784 34.5786 83.4627 36.7629 83.4627 39.4645C83.4627 42.1661 81.2784 44.3504 78.5768 44.3504ZM78.5768 37.3952C77.4272 37.3952 76.565 38.3149 76.565 39.407C76.565 40.4992 77.4847 41.4189 78.5768 41.4189C79.669 41.4189 80.5887 40.4992 80.5887 39.407C80.5887 38.3149 79.669 37.3952 78.5768 37.3952Z" fill="black"/>
<path d="M54.6648 4.22863C50.6411 8.25232 51.3884 15.4949 54.4923 18.5989C56.964 21.0706 60.2979 20.3234 63.5744 17.8517C65.2413 16.6446 67.0232 14.8052 68.2878 13.1382C70.702 9.86179 71.5068 6.4704 69.0351 4.05619C65.8736 0.952206 58.631 0.20495 54.6648 4.22863Z" fill="#FFE55B"/>
<path d="M73.8632 23.4848C72.1388 25.2092 69.2647 25.0368 67.7127 23.1399L63.5166 17.8516C65.1836 16.6445 66.9655 14.8051 68.2301 13.1382L73.5183 17.3343C75.4727 18.8863 75.5877 21.7604 73.8632 23.4848Z" fill="white"/>
<path d="M57.9984 21.5304C55.8141 21.5304 54.3196 20.4958 53.3999 19.5761C49.7211 15.8973 48.9739 7.79243 53.5724 3.19394C58.1708 -1.40456 66.2757 -0.657304 69.9545 3.02149C71.564 4.63096 73.6333 8.1948 69.3797 14.0004C68.0576 15.7823 66.1607 17.6792 64.3788 19.0013C61.8496 20.8981 59.7228 21.5304 57.9984 21.5304ZM61.9071 2.90653C59.6079 2.90653 57.2511 3.65379 55.6417 5.26326C52.3078 8.59717 52.7676 14.9201 55.4692 17.5642C57.1937 19.2887 59.6079 19.0013 62.7119 16.702C64.2638 15.5524 65.9883 13.828 67.1379 12.276C69.4372 9.17198 69.7246 6.75777 68.0001 5.03333C66.6206 3.71127 64.2639 2.90653 61.9071 2.90653Z" fill="black"/>
<path d="M70.9893 26.1288C70.8743 26.1288 70.7594 26.1288 70.6444 26.1288C69.0924 26.0139 67.5979 25.2666 66.6207 24.0595L62.4246 18.7712C62.1947 18.4838 62.0797 18.0815 62.1372 17.6791C62.1947 17.2767 62.3671 16.9319 62.712 16.7019C64.264 15.5523 65.9884 13.8279 67.0806 12.3334C67.3105 12.046 67.6554 11.816 68.0578 11.7585C68.4601 11.7011 68.8625 11.816 69.1499 12.046L74.4382 16.2421C75.7028 17.2193 76.45 18.7138 76.5075 20.2658C76.6225 21.8178 75.9902 23.3697 74.898 24.5194C73.8634 25.554 72.4263 26.1288 70.9893 26.1288ZM65.5861 18.0815L68.8625 22.2201C69.3224 22.8524 70.0121 23.1973 70.8169 23.2548C71.5641 23.3123 72.3114 23.0249 72.8862 22.45C73.461 21.8752 73.6909 21.1855 73.6909 20.3807C73.6334 19.6335 73.2886 18.9437 72.6563 18.4264L68.5176 15.1499C67.5979 16.1846 66.6207 17.2193 65.5861 18.0815Z" fill="black"/>
<path d="M58.5734 14.1153C58.4584 14.1153 58.401 14.1153 58.286 14.1153L57.7687 14.0003C56.9639 13.8279 56.5041 13.0806 56.619 12.3334C56.7915 11.5286 57.5387 11.0688 58.286 11.1837L58.8033 11.2987C59.6081 11.4711 60.0679 12.2184 59.953 12.9657C59.8955 13.6554 59.2632 14.1153 58.5734 14.1153Z" fill="black"/>
<path d="M63.1146 9.63172C62.4248 9.63172 61.85 9.17187 61.735 8.4821L61.6201 7.96477C61.4476 7.16003 61.965 6.41278 62.7697 6.29781C63.5744 6.12537 64.3217 6.6427 64.4367 7.44744L64.5516 7.96477C64.7241 8.7695 64.2067 9.51676 63.402 9.63172C63.287 9.63172 63.1721 9.63172 63.1146 9.63172Z" fill="black"/>
<path d="M74.4956 58.4908C74.1507 58.4908 73.7483 58.3758 73.4609 58.0884C72.8861 57.5136 72.8861 56.5939 73.4609 56.0766L74.6105 54.927C75.1853 54.3521 76.105 54.3521 76.6224 54.927C77.1972 55.5018 77.1972 56.4215 76.6224 56.9388L75.4727 58.0884C75.2428 58.3758 74.8979 58.4908 74.4956 58.4908Z" fill="black"/>
<path d="M21.5553 30.8424C21.2104 30.8424 20.8081 30.7274 20.5207 30.44L19.3711 29.2904C18.7962 28.7156 18.7962 27.7959 19.3711 27.2785C19.9459 26.7037 20.8656 26.7037 21.3829 27.2785L22.5325 28.4281C23.1073 29.003 23.1073 29.9227 22.5325 30.44C22.3026 30.7274 21.9002 30.8424 21.5553 30.8424Z" fill="black"/>
<path d="M107.719 42.2236C114.272 48.7765 114.215 59.353 107.719 65.8484C101.167 72.4013 90.6476 72.4013 84.0947 65.8484L107.719 42.2236Z" fill="white"/>
<path d="M102.776 47.167C106.57 50.9608 106.57 57.1112 102.776 60.9625C98.9827 64.7562 92.8322 64.7562 88.981 60.9625L102.776 47.167Z" fill="#FFE55B"/>
<path d="M95.9359 72.1714C91.1075 72.1714 86.509 70.2745 83.1176 66.8831C82.5428 66.3083 82.5428 65.3886 83.1176 64.8713L106.742 41.2465C107.26 40.7292 108.237 40.7292 108.754 41.2465C112.203 44.6954 114.043 49.2364 114.043 54.0648C114.043 54.5247 114.043 54.9845 113.985 55.4444C113.928 56.2491 113.238 56.8239 112.433 56.7664C111.628 56.709 111.053 56.0192 111.111 55.2144C111.168 54.8121 111.168 54.4672 111.168 54.0648C111.168 50.501 109.904 47.0521 107.662 44.3505L86.1641 65.791C88.8658 68.0328 92.3721 69.2973 95.8785 69.2973C99.9596 69.2973 103.811 67.6879 106.685 64.8138C106.742 64.7563 106.857 64.6414 106.915 64.5839C107.432 64.0091 108.409 64.0091 108.927 64.5264C109.214 64.8138 109.387 65.1587 109.387 65.5611C109.387 65.9634 109.272 66.3083 108.984 66.5957C108.869 66.7107 108.812 66.7682 108.697 66.8831C105.305 70.2745 100.764 72.1714 95.9359 72.1714ZM111.168 62.2846C110.939 62.2846 110.766 62.2271 110.594 62.1697C109.846 61.8248 109.559 61.02 109.846 60.2728C110.191 59.583 111.053 59.2381 111.743 59.5255C112.088 59.698 112.376 59.9854 112.491 60.3303C112.605 60.6752 112.605 61.0775 112.491 61.4224C112.261 61.9397 111.743 62.2846 111.168 62.2846Z" fill="black"/>
<path d="M102.776 47.167C106.57 50.9608 106.57 57.1112 102.776 60.9625C98.9827 64.7562 92.8322 64.7562 88.981 60.9625L102.776 47.167Z" fill="#FFE55B"/>
<path d="M95.936 65.2161C93.0619 65.2161 90.1879 64.124 88.0611 61.9397C87.7737 61.6523 87.6587 61.3074 87.6587 60.9051C87.6587 60.5027 87.8311 60.1578 88.0611 59.8704L101.857 46.0749C102.431 45.5001 103.351 45.5001 103.868 46.0749C108.237 50.4435 108.237 57.5137 103.868 61.8822C101.627 64.124 98.7526 65.2161 95.936 65.2161ZM91.165 60.8476C94.384 63.1468 98.925 62.8019 101.799 59.9279C104.673 57.0538 105.018 52.5128 102.719 49.2939L91.165 60.8476Z" fill="black"/>
<path d="M118.526 97.1182H9.31201C9.31201 89.3008 14.3704 81.7707 23.4524 81.7707C28.5682 81.7707 32.9943 84.4724 35.5234 88.496C37.8227 84.8172 42.1912 82.8629 46.6173 83.8401C44.6629 75.9651 50.641 68.665 58.5159 68.665C64.4939 68.665 69.4373 72.9186 70.5295 78.6093C76.1051 75.9077 82.658 78.6093 84.8423 84.3574C88.3486 80.2188 95.0739 81.4259 96.9133 86.5417C105.536 79.4715 118.526 85.9094 118.526 97.1182Z" fill="white"/>
<path d="M121.63 97.1182H118.526H9.31193H4.25359C2.58663 97.1182 1.26457 98.5552 1.37953 100.222C2.87404 118.214 17.4168 132.527 35.4659 133.734C36.2706 133.791 37.0753 133.791 37.8801 133.791H87.8887C88.6934 133.791 89.4982 133.791 90.3029 133.734C99.4424 133.159 107.72 129.193 113.813 123.1C119.733 117.122 123.699 109.189 124.447 100.28C124.677 98.5552 123.355 97.1182 121.63 97.1182Z" fill="#FFE55B"/>
<path d="M87.9462 128.331H47.307C46.5022 128.331 45.8699 127.698 45.8699 126.893C45.8699 126.089 46.5022 125.456 47.307 125.456H87.9462C101.109 125.456 112.491 116.489 115.537 103.671C115.71 102.924 116.514 102.407 117.262 102.579C118.009 102.751 118.526 103.556 118.354 104.303C114.962 118.444 102.489 128.331 87.9462 128.331ZM41.5588 128.331H37.9375C37.1328 128.331 36.5005 127.698 36.5005 126.893C36.5005 126.089 37.1328 125.456 37.9375 125.456H41.5588C42.3636 125.456 42.9959 126.089 42.9959 126.893C42.9959 127.698 42.3636 128.331 41.5588 128.331Z" fill="white"/>
<path d="M87.9462 135.228H37.9376C37.1328 135.228 36.2706 135.228 35.4084 135.171C30.465 134.826 25.6366 133.561 21.2106 131.377C16.8995 129.25 13.0482 126.376 9.7718 122.812C9.54187 122.525 9.36943 122.18 9.42691 121.778C9.42691 121.375 9.59936 121.03 9.88676 120.8C10.4616 120.283 11.3813 120.341 11.8986 120.915C14.8876 124.249 18.4515 126.893 22.4751 128.848C26.6138 130.86 31.0398 132.067 35.6383 132.354C36.4431 132.412 37.2478 132.412 37.9951 132.412H88.0037C88.7509 132.412 89.5557 132.412 90.3604 132.354C98.8676 131.779 106.915 128.158 112.951 122.123C115.825 119.248 118.181 115.915 119.906 112.236C121.688 108.442 122.78 104.418 123.125 100.222C123.125 100.165 123.125 100.165 123.125 100.107C123.125 99.3025 122.492 98.6702 121.688 98.6702H4.25361C3.44887 98.6702 2.81658 99.3025 2.81658 100.107C2.81658 100.165 2.81658 100.165 2.81658 100.222C3.16146 104.246 4.13864 108.097 5.8056 111.776C5.97804 112.121 5.97804 112.523 5.86308 112.868C5.74812 113.213 5.46071 113.5 5.11582 113.673C4.42605 114.018 3.50635 113.673 3.21895 112.983C1.43703 109.017 0.344887 104.821 0 100.51C0 100.395 0 100.28 0 100.165C0 97.808 1.95436 95.8536 4.31109 95.8536H121.688C124.044 95.8536 125.999 97.808 125.999 100.165C125.999 100.28 125.999 100.395 125.999 100.51C125.251 109.419 121.343 117.869 114.962 124.249C108.41 130.802 99.7298 134.711 90.5329 135.343C89.6132 135.171 88.7509 135.228 87.9462 135.228ZM7.30011 118.674C6.78278 118.674 6.38041 118.444 6.093 118.041C5.86308 117.696 5.8056 117.352 5.86308 116.949C5.92056 116.547 6.15049 116.259 6.49537 116.03C7.12767 115.627 8.04736 115.8 8.50721 116.432C8.73714 116.777 8.79462 117.122 8.73714 117.524C8.67966 117.926 8.44973 118.214 8.10485 118.444C7.87492 118.616 7.58751 118.674 7.30011 118.674Z" fill="black"/>
<path d="M118.526 98.5551C117.722 98.5551 117.089 97.9228 117.089 97.1181C117.089 93.7267 115.825 90.6802 113.353 88.381C111.111 86.2542 108.065 84.9896 104.961 84.9896C102.374 84.9896 99.9024 85.8518 97.7756 87.5762C97.4307 87.8636 96.9133 87.9786 96.511 87.8636C96.0511 87.7487 95.7062 87.4038 95.5338 86.9439C94.7291 84.7022 92.6023 83.2077 90.188 83.2077C88.5211 83.2077 86.9691 83.8974 85.877 85.2195C85.5321 85.6219 85.0147 85.7943 84.5549 85.6793C84.0376 85.6219 83.6352 85.2195 83.4628 84.7596C82.8305 82.9777 81.6808 81.5407 80.1288 80.4486C78.6343 79.4139 76.9099 78.8966 75.0705 78.8966C73.6909 78.8966 72.4264 79.184 71.1618 79.8163C70.7594 79.9887 70.2996 79.9887 69.8972 79.8163C69.4948 79.5863 69.2074 79.2415 69.1499 78.7816C68.1728 73.7233 63.6892 70.0445 58.5159 70.0445C57.3663 70.0445 56.2167 70.2169 55.1245 70.5618C54.3773 70.7917 53.5725 70.3894 53.2851 69.6421C53.1702 69.2972 53.1702 68.8948 53.3426 68.55C53.5151 68.2051 53.8025 67.9751 54.1474 67.8602C55.5269 67.4003 56.9639 67.1704 58.4584 67.1704C61.39 67.1704 64.2066 68.0901 66.5633 69.872C68.8625 71.5965 70.587 73.8957 71.4492 76.6548C72.5988 76.3099 73.8059 76.08 75.013 76.08C79.2091 76.08 83.1179 78.3218 85.2447 81.9431C86.6817 80.9084 88.4061 80.3336 90.1306 80.3336H90.188C93.1196 80.3336 95.8787 81.8281 97.4307 84.2998C99.6724 82.8628 102.259 82.1155 104.903 82.1155C108.697 82.1155 112.491 83.61 115.25 86.3116C118.239 89.1282 119.906 92.9795 119.906 97.1181C119.963 97.8654 119.331 98.5551 118.526 98.5551ZM9.31203 98.5551C8.50729 98.5551 7.875 97.9228 7.875 97.1181C7.875 92.7495 9.31203 88.6684 11.8987 85.5644C14.7153 82.173 18.8539 80.2761 23.4524 80.2761H23.5099C28.2233 80.2761 32.5919 82.3454 35.5809 86.0242C37.8227 83.4951 41.0416 82.058 44.3756 82.058C44.548 82.058 44.7204 82.058 44.8929 82.058C44.8354 81.5982 44.8354 81.1958 44.8354 80.736C44.8354 79.2989 45.0653 77.9194 45.5252 76.5398C45.7551 75.7926 46.6173 75.3902 47.3071 75.6201C47.652 75.7351 47.9394 75.965 48.1693 76.3099C48.3418 76.6548 48.3992 77.0572 48.2268 77.4021C47.8819 78.4942 47.7095 79.5863 47.7095 80.6785C47.7095 81.5407 47.8244 82.4604 48.0543 83.3226C48.1693 83.7825 48.0543 84.2998 47.7095 84.7022C47.3646 85.0471 46.8472 85.2195 46.3874 85.1045C45.7551 84.9896 45.1228 84.8746 44.433 84.8746C41.329 84.8746 38.455 86.4841 36.8455 89.1282C36.5581 89.5306 36.0983 89.818 35.6384 89.818C35.1786 89.818 34.6612 89.5881 34.4313 89.1282C32.0746 85.3345 28.0509 83.0927 23.6248 83.0927C19.7736 83.0927 16.6121 84.5297 14.1979 87.3463C12.0711 89.8755 10.864 93.3818 10.864 97.0606C10.7491 97.8654 10.1168 98.5551 9.31203 98.5551ZM49.8363 73.6083C49.4339 73.6083 49.089 73.4359 48.8016 73.2059C48.5142 72.9185 48.3992 72.5736 48.3992 72.1713C48.3992 71.7689 48.5142 71.424 48.8016 71.1366C49.3764 70.6193 50.2961 70.5618 50.8134 71.1366C51.1008 71.424 51.2158 71.7689 51.2158 72.1713C51.2158 72.5736 51.0434 72.9185 50.8134 73.2059C50.5835 73.4933 50.2386 73.6083 49.8363 73.6083Z" fill="black"/>
<path d="M57.711 81.8281C56.9062 81.8281 56.2739 81.1958 56.2739 80.3911V79.2415C56.2739 78.4367 56.9062 77.8044 57.711 77.8044C58.5157 77.8044 59.148 78.4367 59.148 79.2415V80.3911C59.148 81.1958 58.5157 81.8281 57.711 81.8281Z" fill="black"/>
<path d="M74.8979 86.3692C74.5531 86.3692 74.1507 86.2542 73.8633 85.9668L73.0586 85.1621C72.4837 84.5873 72.4837 83.6676 73.0586 83.1502C73.6334 82.5754 74.5531 82.5754 75.0704 83.1502L75.8751 83.955C76.4499 84.5298 76.4499 85.4495 75.8751 85.9668C75.6452 86.1967 75.3003 86.3692 74.8979 86.3692Z" fill="black"/>
<path d="M51.4457 89.2433C51.1009 89.2433 50.6985 89.1284 50.4111 88.8409C49.8363 88.2661 49.8363 87.3464 50.4111 86.8291L51.2158 86.0244C51.7906 85.4496 52.7103 85.4496 53.2277 86.0244C53.8025 86.5992 53.8025 87.5189 53.2277 88.0362L52.4229 88.8409C52.193 89.0709 51.8481 89.2433 51.4457 89.2433Z" fill="black"/>
<path d="M23.9121 89.8755C23.5672 89.8755 23.1649 89.7605 22.8774 89.4731L22.0727 88.6684C21.4979 88.0936 21.4979 87.1739 22.0727 86.6565C22.6475 86.1392 23.5672 86.0817 24.0846 86.6565L24.8893 87.4613C25.4641 88.0361 25.4641 88.9558 24.8893 89.4731C24.6594 89.7605 24.257 89.8755 23.9121 89.8755Z" fill="black"/>
<path d="M79.8989 89.8756C79.554 89.8756 79.1516 89.7607 78.8642 89.4733C78.2894 88.8985 78.2894 87.9788 78.8642 87.4614L79.6689 86.6567C80.2438 86.0819 81.1635 86.0819 81.6808 86.6567C82.2556 87.2315 82.2556 88.1512 81.6808 88.6685L80.8761 89.4733C80.6461 89.7607 80.3012 89.8756 79.8989 89.8756Z" fill="black"/>
<path d="M106.857 92.4623C106.512 92.4623 106.11 92.3474 105.823 92.0599C105.248 91.4851 105.248 90.5654 105.823 90.0481L106.627 89.2434C107.202 88.6686 108.122 88.6686 108.639 89.2434C109.214 89.8182 109.214 90.7379 108.639 91.2552L107.835 92.0599C107.605 92.2899 107.26 92.4623 106.857 92.4623Z" fill="black"/>
</svg>
