<svg width="137" height="145" viewBox="0 0 137 145" fill="none" xmlns="http://www.w3.org/2000/svg">
<g clip-path="url(#clip0_109_4411)">
<path d="M125.308 68.4197L124.953 71.14L124.066 78.0588L123.12 85.2733H90.0633C92.9609 81.7843 94.8532 78.0588 95.5037 74.3333C95.9177 71.9678 95.7403 69.5433 94.9124 67.237C93.6705 63.748 90.9503 60.6139 89.058 59.3129C89.8859 58.1302 90.8912 57.0657 92.1922 56.297L100.649 51.0931L101.476 44.7656L102.186 39.2068L102.837 34.0621L104.374 22.4715C104.551 21.1114 105.793 20.1061 107.213 20.2835L117.443 21.5845C118.803 21.7619 119.808 23.0037 119.631 24.423L117.62 39.9756L115.905 53.0445L122.765 60.259C124.717 62.3879 125.722 65.4038 125.308 68.4197Z" fill="white"/>
<path d="M4.49436 53.4585C5.08571 53.3993 10.5853 52.808 16.8537 52.1575C14.2517 58.3667 12.7733 65.2264 12.7733 72.3818C11.5906 72.6775 10.7036 73.7419 10.7036 75.0429V85.2142H6.7415C6.15015 85.2142 5.55879 85.3324 5.02658 85.5098L2.01067 56.4744C1.8924 54.996 2.95684 53.6359 4.49436 53.4585Z" fill="#FFE55B"/>
<path d="M40.3304 64.9898L38.2015 64.7533C36.664 64.5759 35.3039 65.6995 35.1856 67.1778L33.2341 85.155H23.122V74.9837C23.122 73.6827 22.235 72.6183 21.0522 72.3226C21.1114 64.635 23.122 57.4205 26.5518 51.1522C31.5783 50.6199 35.5404 50.206 36.0726 50.1469C37.6102 49.9694 38.9703 51.093 39.0885 52.6305L40.3304 64.9898Z" fill="#FFE55B"/>
<path d="M66.1725 19.3373C43.9968 19.3373 24.9552 32.8793 16.9127 52.1574C14.3108 58.3666 12.8324 65.2263 12.8324 72.3817C13.0689 72.3226 13.3055 72.3226 13.4829 72.3226H20.4017C20.6383 72.3226 20.8748 72.3226 21.0522 72.3817C21.1114 64.6941 23.122 57.4796 26.5518 51.2113C34.2394 37.1962 49.0824 27.6754 66.1725 27.6754C80.4242 27.6754 93.1974 34.3577 101.476 44.7064L102.186 39.1476L102.836 34.0029C93.2565 24.896 80.365 19.3373 66.1725 19.3373Z" fill="white"/>
<path d="M61.0278 85.2141H33.2341L35.1856 67.2369C35.363 65.6994 36.7231 64.635 38.2015 64.8124L40.3304 65.0489L56.3561 66.7639C53.9907 72.8548 56.1787 79.3597 61.0278 85.2141Z" fill="white"/>
<path d="M75.5751 59.1945C75.516 59.1945 75.516 59.1945 75.4568 59.1945C74.6289 59.1354 74.0376 58.4257 74.0967 57.5979L74.1559 56.5925C74.3924 53.281 75.4568 50.0285 77.29 47.2492C77.7631 46.5395 78.6501 46.3621 79.3598 46.8352C80.0694 47.3083 80.2468 48.1953 79.7737 48.9049C78.2362 51.2704 77.29 54.0497 77.1126 56.8291L77.0535 57.8344C76.9944 58.6032 76.3439 59.1945 75.5751 59.1945Z" fill="black"/>
<path d="M70.4895 52.7488C70.2529 52.7488 70.0164 52.6897 69.7799 52.5714L67.3553 51.2113C66.6457 50.7973 66.4092 49.9103 66.764 49.2007C67.1779 48.491 68.0649 48.2545 68.7746 48.6093L71.1991 49.9694C71.9087 50.3834 72.1453 51.2704 71.7905 51.98C71.5539 52.5122 71.0217 52.7488 70.4895 52.7488Z" fill="black"/>
<path d="M119.513 71.8496C119.454 71.8496 119.394 71.8496 119.335 71.8496C118.507 71.7313 117.975 71.0217 118.034 70.1938L118.389 67.4735C118.507 66.5865 118.212 65.6403 117.561 64.9898L108.927 55.883C108.632 55.5873 108.454 55.1142 108.514 54.7003L110.465 39.6208C110.583 38.7929 111.293 38.2606 112.121 38.3198C112.949 38.4381 113.481 39.1477 113.422 39.9756L111.529 54.3455L119.69 62.9201C120.932 64.2211 121.523 66.0543 121.287 67.8283L120.932 70.5486C120.873 71.3173 120.222 71.8496 119.513 71.8496Z" fill="white"/>
<path d="M124.953 71.0808L124.066 77.9996L123.12 85.2142H90.0632C92.9609 81.7252 94.8532 77.9996 95.5037 74.2741C95.9176 71.9087 95.7402 69.4841 94.9123 67.1779L124.953 71.0808Z" fill="#FFE55B"/>
<path d="M94.9124 67.1779C93.6705 63.6889 90.9503 60.5547 89.058 59.2537C85.2142 56.5335 81.1929 57.7162 75.5751 57.7162C69.1885 57.7162 64.5759 56.4743 60.6138 60.4364C58.6032 62.447 57.184 64.5759 56.3561 66.7048C53.9907 72.8549 56.1787 79.3006 61.0278 85.155C66.7639 85.155 83.6175 85.155 90.1224 85.155C93.02 81.666 94.9124 77.9405 95.5628 74.215C95.9177 71.9087 95.7403 69.5433 94.9124 67.1779Z" fill="#FFE55B"/>
<path d="M124.066 77.9996L123.12 85.2141H90.0632C92.9609 81.7251 94.8532 77.9996 95.5037 74.274L124.066 77.9996Z" fill="white"/>
<path d="M119.572 24.3638L117.561 39.9164L102.186 39.0885L102.837 33.9438L104.374 22.3532C104.551 20.9931 105.793 19.9878 107.213 20.1652L117.443 21.4662C118.744 21.7027 119.749 22.9446 119.572 24.3638Z" fill="#FFE55B"/>
<path d="M23.122 75.0429V85.2142H10.7036V75.0429C10.7036 73.7419 11.5906 72.6774 12.7734 72.3818C13.0099 72.3226 13.2464 72.3226 13.4238 72.3226H20.3427C20.5792 72.3226 20.8158 72.3226 20.9932 72.3818C22.235 72.6774 23.122 73.801 23.122 75.0429Z" fill="white"/>
<path d="M125.544 85.2141H6.74144C6.15009 85.2141 5.55874 85.3324 5.02652 85.5098C2.95678 86.2194 1.47839 88.1709 1.47839 90.4772C1.47839 93.1382 3.489 95.3854 6.09096 95.6811C6.3275 95.6811 6.56404 95.7402 6.74144 95.7402H125.544C128.442 95.7402 130.808 93.3748 130.808 90.4772C130.808 87.5795 128.442 85.2141 125.544 85.2141Z" fill="white"/>
<path d="M111.707 143.522H20.6383C16.4988 143.522 12.9507 140.447 12.4184 136.307L7.1554 95.7993H125.19L119.927 136.307C119.335 140.387 115.846 143.522 111.707 143.522Z" fill="#FFE55B"/>
<path d="M111.707 138.909H28.2076C27.3797 138.909 26.7292 138.259 26.7292 137.431C26.7292 136.603 27.3797 135.952 28.2076 135.952H111.707C112.062 135.952 112.357 135.657 112.416 135.302L116.792 101.654C116.911 100.826 117.62 100.294 118.448 100.353C119.276 100.471 119.808 101.181 119.749 102.009L115.373 135.657C115.078 137.549 113.54 138.909 111.707 138.909ZM22.2941 138.909H20.6383C19.8104 138.909 19.1599 138.259 19.1599 137.431C19.1599 136.603 19.8104 135.952 20.6383 135.952H22.2941C23.122 135.952 23.7725 136.603 23.7725 137.431C23.7725 138.259 23.0628 138.909 22.2941 138.909Z" fill="#FFE55B"/>
<path d="M37.2553 145C33.7663 145 30.987 141.393 30.573 136.425L27.2023 95.9176C27.1432 95.0897 27.7345 94.3801 28.5624 94.321C29.3903 94.2618 30.0999 94.8532 30.1591 95.6811L33.5298 136.189C33.8255 139.5 35.4221 142.043 37.2553 142.043C38.0832 142.043 38.7337 142.694 38.7337 143.522C38.7337 144.35 38.0832 145 37.2553 145Z" fill="black"/>
<path d="M95.0306 145C94.2027 145 93.5522 144.35 93.5522 143.522C93.5522 142.694 94.2027 142.043 95.0306 142.043C96.8638 142.043 98.5196 139.5 98.7562 136.189L102.127 95.6811C102.186 94.8532 102.896 94.2618 103.724 94.321C104.551 94.3801 105.143 95.0897 105.084 95.9176L101.713 136.425C101.299 141.393 98.5196 145 95.0306 145Z" fill="black"/>
<path d="M76.3439 145C75.516 145 74.8655 144.349 74.8655 143.522C74.8655 142.93 75.2203 142.398 75.7525 142.161C76.0482 141.57 76.5804 139.619 76.6987 136.248L77.8814 95.7402C77.8814 94.9123 78.591 94.3209 79.4189 94.3209C80.2468 94.3209 80.8973 95.0306 80.8382 95.8584L79.6554 136.366C79.478 142.043 78.4136 145 76.3439 145Z" fill="black"/>
<path d="M55.942 145C53.9314 145 52.8079 142.102 52.6305 136.366L51.4478 95.7994C51.4478 94.9715 52.0391 94.321 52.867 94.2618C53.6949 94.2618 54.3454 94.8532 54.4045 95.6811L55.5872 136.189C55.7055 139.56 56.2377 141.511 56.5334 142.102C57.0656 142.339 57.4204 142.871 57.4204 143.463C57.4204 144.29 56.7699 145 55.942 145Z" fill="black"/>
<path d="M123.475 128.974H8.81115C7.98325 128.974 7.33276 128.324 7.33276 127.496C7.33276 126.668 7.98325 126.018 8.81115 126.018H123.475C124.303 126.018 124.953 126.668 124.953 127.496C124.953 128.324 124.303 128.974 123.475 128.974Z" fill="black"/>
<path d="M126.077 109.933H6.20922C5.38132 109.933 4.73083 109.282 4.73083 108.454C4.73083 107.626 5.38132 106.976 6.20922 106.976H126.018C126.845 106.976 127.496 107.626 127.496 108.454C127.496 109.282 126.905 109.933 126.077 109.933Z" fill="black"/>
<path d="M111.707 145H91.6008C90.7729 145 90.1224 144.35 90.1224 143.522C90.1224 142.694 90.7729 142.043 91.6008 142.043H111.707C115.137 142.043 118.034 139.5 118.448 136.13L123.475 97.2777H57.2431C56.4152 97.2777 55.7647 96.6273 55.7647 95.7994C55.7647 94.9715 56.4152 94.321 57.2431 94.321H125.19C125.604 94.321 126.018 94.4984 126.313 94.7941C126.609 95.0897 126.727 95.5628 126.668 95.9768L121.405 136.485C121.109 138.85 119.927 140.979 118.153 142.575C116.378 144.172 114.072 145 111.707 145ZM85.6872 145C84.8593 145 84.2088 144.35 84.2088 143.522C84.2088 142.694 84.8593 142.043 85.6872 142.043C86.5151 142.043 87.1656 142.694 87.1656 143.522C87.1656 144.29 86.456 145 85.6872 145ZM79.7737 145H20.6383C18.2729 145 15.9666 144.113 14.1925 142.575C12.4185 141.038 11.2357 138.85 10.9401 136.485L5.67702 95.9768C5.61788 95.5628 5.73615 95.1489 6.03183 94.7941C6.3275 94.4984 6.74145 94.321 7.1554 94.321H45.416C46.2439 94.321 46.8944 94.9715 46.8944 95.7994C46.8944 96.6273 46.2439 97.2777 45.416 97.2777H8.81119L13.8377 136.13C14.2516 139.5 17.1493 142.043 20.5791 142.043H79.7145C80.5424 142.043 81.1929 142.694 81.1929 143.522C81.2521 144.29 80.5424 145 79.7737 145ZM51.3295 97.2186C50.5017 97.2186 49.8512 96.5681 49.8512 95.7402C49.8512 94.9123 50.5017 94.2618 51.3295 94.2618C52.1574 94.2618 52.8079 94.9123 52.8079 95.7402C52.8079 96.5681 52.0983 97.2186 51.3295 97.2186Z" fill="black"/>
<path d="M123.12 86.6925C123.061 86.6925 123.002 86.6925 122.942 86.6925C122.115 86.5742 121.582 85.8646 121.642 85.0367L123.83 68.2422C124.184 65.6994 123.356 63.0974 121.523 61.2642L114.723 53.9906C114.427 53.6949 114.25 53.2218 114.309 52.8079L118.034 24.1864C118.093 23.8907 117.975 23.6541 117.857 23.4176C117.679 23.181 117.443 23.0628 117.147 23.0036L106.917 21.7027C106.621 21.6435 106.385 21.7618 106.148 21.8801C105.911 22.0575 105.793 22.294 105.734 22.5897L102.009 51.2112C101.949 51.6252 101.713 52.0391 101.299 52.2757L92.8426 57.4796C91.7781 58.1301 90.8911 59.0171 90.1815 60.0815C89.7084 60.732 88.8214 60.9686 88.1117 60.4955C87.4613 60.0224 87.2247 59.1354 87.6978 58.4258C88.644 57.0065 89.8267 55.8238 91.2459 54.9959L99.1109 50.1468L102.777 22.1757C102.896 21.1113 103.487 20.1651 104.315 19.5147C105.143 18.8642 106.207 18.5685 107.272 18.7459L117.502 20.0469C118.566 20.1651 119.513 20.6974 120.163 21.5844C120.814 22.4123 121.109 23.4767 120.932 24.5412L117.265 52.5122L123.593 59.1945C126.018 61.7373 127.082 65.1672 126.668 68.597L124.48 85.3915C124.48 86.1602 123.889 86.6925 123.12 86.6925Z" fill="black"/>
<path d="M21.0522 73.8601C20.2243 73.8601 19.5739 73.2096 19.5739 72.3817C19.633 64.7532 21.5845 57.243 25.1917 50.5607C25.1917 50.5607 25.1917 50.5016 25.2509 50.5016C33.4115 35.4812 49.0824 26.1378 66.1726 26.1378C80.4242 26.1378 93.7296 32.5244 102.6 43.7602C103.132 44.4107 103.014 45.3568 102.363 45.8299C101.713 46.3621 100.767 46.2439 100.294 45.5934C91.9556 35.1264 79.5372 29.0946 66.1726 29.0946C50.2651 29.0946 35.5995 37.7875 27.9119 51.8026C27.9119 51.8026 27.9119 51.8617 27.8528 51.8617C24.423 58.1301 22.5898 65.2263 22.5306 72.3817C22.5306 73.2096 21.821 73.8601 21.0522 73.8601Z" fill="black"/>
<path d="M12.7733 73.8601C12.3594 73.8601 12.0045 73.6827 11.7089 73.387C11.4132 73.0913 11.2949 72.7365 11.2949 72.3226C11.3541 65.1081 12.7733 58.1301 15.4935 51.5661C17.5633 46.6578 20.2835 42.1044 23.6542 37.9649C27.0249 33.8846 30.9279 30.2773 35.3039 27.3205C44.4107 21.1705 55.0551 17.8589 66.0543 17.8589C71.4356 17.8589 76.7578 18.6276 81.9026 20.1652C82.6714 20.4017 83.1444 21.2296 82.9079 21.9984C82.6714 22.7671 81.8435 23.2402 81.0747 23.0037C76.2256 21.5253 71.1991 20.8157 66.1134 20.8157C55.6465 20.8157 45.5935 23.8907 37.0188 29.7451C32.8793 32.5836 29.1538 35.9543 25.9605 39.8573C22.7672 43.7602 20.1652 48.0771 18.2138 52.7488C15.6118 58.958 14.2517 65.5811 14.2517 72.3817C14.2517 73.2096 13.6012 73.8601 12.7733 73.8601ZM102.837 35.4221C102.482 35.4221 102.127 35.3038 101.831 35.0082C98.7562 32.1105 95.3263 29.5677 91.6599 27.498C90.9503 27.084 90.7138 26.197 91.1277 25.4874C91.5417 24.7777 92.4287 24.5412 93.1383 24.896C96.9821 27.084 100.589 29.7451 103.842 32.8201C104.433 33.4115 104.433 34.2985 103.901 34.8899C103.605 35.2447 103.25 35.4221 102.837 35.4221ZM87.1065 25.0734C86.9291 25.0734 86.6926 25.0143 86.5152 24.9551C86.1603 24.7777 85.8647 24.4821 85.7464 24.1272C85.6281 23.7724 85.6281 23.3585 85.7464 23.0037C86.0421 22.294 86.9291 21.8801 87.6979 22.2349C88.0527 22.4123 88.3483 22.708 88.4666 23.0628C88.5849 23.4176 88.5849 23.8316 88.4666 24.1864C88.2301 24.7777 87.6979 25.0734 87.1065 25.0734Z" fill="black"/>
<path d="M33.2342 86.6925C33.175 86.6925 33.1159 86.6925 33.0568 86.6925C32.2289 86.6334 31.6375 85.8646 31.7558 85.0367L33.7073 67.0596C33.8255 65.936 34.3577 64.9307 35.2448 64.2211C36.1318 63.5115 37.2554 63.2158 38.379 63.3341L56.4744 65.2855C57.3023 65.3447 57.8936 66.1134 57.7754 66.9413C57.7162 67.7692 56.9475 68.3606 56.1196 68.2423L38.0833 66.2317C37.7285 66.1726 37.4328 66.2908 37.1371 66.5274C36.8414 66.7639 36.7232 67.0596 36.664 67.4144L34.7126 85.3916C34.6534 86.1603 34.0029 86.6925 33.2342 86.6925Z" fill="black"/>
<path d="M124.953 72.5591C124.894 72.5591 124.835 72.5591 124.776 72.5591L94.7349 68.6562C93.907 68.5379 93.3748 67.8283 93.4339 67.0004C93.4931 66.1725 94.2618 65.6403 95.0897 65.6994L125.131 69.6024C125.84 69.6615 126.431 70.312 126.431 71.0807C126.431 71.9086 125.781 72.5591 124.953 72.5591Z" fill="black"/>
<path d="M90.0633 86.6926C89.7085 86.6926 89.4128 86.5743 89.1171 86.3377C88.4666 85.8055 88.4075 84.8593 88.9397 84.268C91.7782 80.779 93.4931 77.3492 94.0254 74.0376C94.3802 71.8496 94.2028 69.6616 93.4932 67.6509C92.4287 64.635 89.945 61.6783 88.171 60.4364C85.7464 58.6624 83.1445 58.8398 79.5372 59.0172C78.2954 59.0763 76.9352 59.1354 75.516 59.1354C74.215 59.1354 72.9732 59.0763 71.7905 59.0172C67.2962 58.8398 64.3394 58.7215 61.6192 61.4417C59.786 63.2749 58.485 65.2264 57.7162 67.237C55.1734 73.7419 58.7215 80.0694 62.1514 84.268C62.6836 84.9185 62.5653 85.8055 61.974 86.3377C61.3235 86.87 60.4365 86.7517 59.9042 86.1603C54.2864 79.3598 52.6306 72.4409 54.996 66.2317C55.9422 63.8663 57.4797 61.56 59.6086 59.4311C63.275 55.7647 67.2962 55.9421 72.027 56.1787C73.1506 56.2378 74.3333 56.2969 75.6343 56.2969C76.9944 56.2969 78.2953 56.2378 79.4781 56.1787C83.3219 55.9421 86.6926 55.7647 90.0042 58.1301C92.133 59.6677 95.0898 62.9792 96.3908 66.8231C97.2778 69.3659 97.5144 71.9678 97.0413 74.6881C96.4499 78.5319 94.4984 82.4348 91.3051 86.2786C90.9503 86.5151 90.5364 86.6926 90.0633 86.6926Z" fill="black"/>
<path d="M124.066 79.478C124.007 79.478 123.948 79.478 123.889 79.478L95.3263 75.7525C94.4984 75.6342 93.9662 74.9246 94.0253 74.0967C94.1436 73.2688 94.8532 72.7366 95.6811 72.7957L124.244 76.5213C125.071 76.6395 125.604 77.3492 125.545 78.1771C125.426 78.9458 124.776 79.478 124.066 79.478Z" fill="black"/>
<path d="M117.502 41.3948H117.443L102.068 40.5669C101.654 40.5669 101.299 40.3303 101.003 40.0346C100.767 39.739 100.648 39.325 100.648 38.9111L102.836 22.1757C102.955 21.1113 103.546 20.1651 104.374 19.5147C105.202 18.8642 106.266 18.5685 107.331 18.7459L117.561 20.0469C118.626 20.1651 119.572 20.6974 120.222 21.5844C120.873 22.4123 121.168 23.4767 120.991 24.5412L118.98 40.0938C118.862 40.8625 118.271 41.3948 117.502 41.3948ZM103.842 37.7284L116.26 38.3788L118.093 24.1864C118.153 23.8907 118.034 23.6541 117.916 23.4176C117.739 23.181 117.502 23.0628 117.206 23.0036L106.976 21.7027C106.68 21.6435 106.444 21.7618 106.207 21.8801C105.971 22.0575 105.852 22.294 105.793 22.5897L103.842 37.7284Z" fill="black"/>
<path d="M23.122 86.6925H10.7036C9.87571 86.6925 9.22522 86.042 9.22522 85.2141V75.0428C9.22522 73.0914 10.5262 71.4356 12.4185 70.9625C12.7142 70.9034 13.069 70.8442 13.483 70.8442H20.4018C20.7566 70.8442 21.1114 70.9034 21.4662 70.9625C23.3586 71.4356 24.6596 73.0914 24.6596 75.0428V85.2141C24.6004 86.042 23.9499 86.6925 23.122 86.6925ZM12.182 83.7358H21.6437V75.0428C21.6437 74.4515 21.2297 73.9193 20.6975 73.801C20.5792 73.801 20.4609 73.7419 20.4018 73.7419H13.4238C13.3056 73.7419 13.2464 73.7419 13.1282 73.801C12.5368 73.9784 12.1229 74.4515 12.1229 75.0428V83.7358H12.182Z" fill="black"/>
<path d="M125.545 97.2186H6.74149C6.44581 97.2186 6.20927 97.2186 5.85446 97.1595C2.48374 96.7455 -0.059082 93.8479 -0.059082 90.4771C-0.059082 87.5795 1.77412 85.0367 4.49434 84.0905C5.20397 83.854 5.97273 83.7357 6.74149 83.7357H125.545C129.27 83.7357 132.286 86.7516 132.286 90.4771C132.286 94.2027 129.27 97.2186 125.545 97.2186ZM6.74149 86.6925C6.32754 86.6925 5.91359 86.7516 5.49965 86.929C3.96213 87.4612 2.95682 88.8805 2.95682 90.4771C2.95682 92.3695 4.37607 94.0253 6.26841 94.2618C6.44581 94.2618 6.62322 94.321 6.74149 94.321H125.545C127.614 94.321 129.329 92.606 129.329 90.5363C129.329 88.4665 127.614 86.7516 125.545 86.7516H6.74149V86.6925Z" fill="black"/>
<path d="M40.3304 66.4682C39.5616 66.4682 38.9112 65.8768 38.852 65.1672L37.551 52.8079C37.4919 52.0983 36.8414 51.5661 36.1318 51.6843C35.6587 51.7435 31.6375 52.1574 26.611 52.6896C25.7831 52.7488 25.0735 52.1574 25.0143 51.3887C24.9552 50.6199 25.5466 49.8511 26.3153 49.792C31.3418 49.2598 35.3039 48.8458 35.8361 48.7867C38.1424 48.5502 40.2713 50.2651 40.5078 52.5714L41.8088 64.9307C41.8679 65.7586 41.2766 66.4682 40.5078 66.5273C40.4487 66.4682 40.3895 66.4682 40.3304 66.4682Z" fill="black"/>
<path d="M5.02652 86.9882C4.73084 86.9882 4.4943 86.929 4.25776 86.7516C3.90294 86.5151 3.60727 86.1011 3.60727 85.6281L2.48369 74.4515C2.42456 73.6236 3.01591 72.9139 3.78467 72.8548C4.61257 72.7957 5.32219 73.387 5.38133 74.1558L6.38663 83.7357C6.5049 83.7357 6.68231 83.7357 6.80058 83.7357C7.62847 83.7357 8.27896 84.3862 8.27896 85.2141C8.27896 86.042 7.62847 86.6925 6.80058 86.6925C6.38663 86.6925 5.97268 86.7516 5.55874 86.929C5.32219 86.9882 5.20392 86.9882 5.02652 86.9882ZM3.25245 69.898C2.48369 69.898 1.83321 69.3067 1.77407 68.597C1.71493 68.1831 1.83321 67.8283 2.12888 67.5326C2.42456 67.2369 2.72024 67.0595 3.13418 67.0004C3.96208 66.9413 4.6717 67.5326 4.78998 68.3014C4.84911 69.1293 4.25776 69.8389 3.489 69.9572C3.37073 69.898 3.31159 69.898 3.25245 69.898ZM2.6611 64.0436C1.89234 64.0436 1.24185 63.4523 1.18272 62.7426L0.532227 56.6517C0.532227 56.5334 0.532227 56.356 0.532227 56.2377C0.532227 54.0497 2.18802 52.2757 4.31689 52.0391C4.61257 51.98 5.97268 51.8617 7.98329 51.6843C10.2896 51.4478 13.3646 51.1521 16.7353 50.7973C17.5632 50.7382 18.2728 51.3295 18.332 52.0983C18.3911 52.9262 17.7998 53.6358 17.031 53.6949C13.7786 54.0497 10.6444 54.3454 8.39724 54.582C6.3275 54.8185 4.90825 54.9368 4.6717 54.9368C4.02122 54.9959 3.489 55.5281 3.489 56.1786C3.489 56.2377 3.489 56.2969 3.489 56.2969L4.13949 62.3878C4.19862 63.2157 3.60727 63.9253 2.83851 63.9845C2.77937 64.0436 2.72024 64.0436 2.6611 64.0436Z" fill="black"/>
<path d="M135.184 8.87033C132.818 8.10157 130.394 7.39195 129.093 1.59668C127.851 6.978 125.84 7.92417 123.002 8.87033C127.673 10.4079 128.383 12.9507 129.093 16.144C130.394 10.6444 132.463 9.75737 135.184 8.87033Z" fill="#FFE55B"/>
<path d="M127.555 16.4988C126.905 13.6012 126.432 11.6497 122.469 10.3487C121.05 9.87563 121.05 7.86502 122.469 7.3328C124.835 6.56404 126.432 6.03182 127.555 1.18272C127.91 -0.413934 130.216 -0.413934 130.63 1.18272C131.754 6.15009 133.528 6.62318 135.716 7.3328C137.135 7.80589 137.135 9.87563 135.716 10.3487C133.41 11.1175 131.754 11.6497 130.63 16.4988C130.275 18.1546 127.91 18.1546 127.555 16.4988ZM126.668 8.92946C127.792 9.69822 128.56 10.5852 129.152 11.5314C129.802 10.3487 130.63 9.52081 131.458 8.92946C130.63 8.3381 129.802 7.51021 129.093 6.20923C128.383 7.45107 127.555 8.27897 126.668 8.92946Z" fill="black"/>
<path d="M15.5527 27.5571C13.1873 26.7883 10.7627 26.0787 9.46173 20.2834C8.16075 25.6056 6.20928 26.6109 3.31165 27.5571C7.98334 29.0946 8.69297 31.6374 9.40259 34.8308C10.7036 29.3312 12.8324 28.4441 15.5527 27.5571Z" fill="#FFE55B"/>
<path d="M7.92425 35.1856C7.27376 32.2879 6.80068 30.3365 2.83861 29.0355C1.41936 28.5624 1.41936 26.5518 2.83861 26.0196C5.20402 25.2508 6.80068 24.7186 7.92425 19.8695C8.27906 18.2728 10.5853 18.2728 10.9993 19.8695C12.1229 24.8369 13.8969 25.3099 16.0849 26.0196C17.5042 26.4927 17.5042 28.5624 16.0849 29.0355C13.7787 29.8042 12.1229 30.3365 10.9993 35.1856C10.5853 36.8413 8.27906 36.8413 7.92425 35.1856ZM7.03722 27.5571C8.16079 28.3258 8.92955 29.2129 9.52091 30.159C10.1714 28.9763 10.9993 28.1484 11.8272 27.5571C10.9993 26.9657 10.1714 26.1378 9.46177 24.8369C8.75215 26.0787 7.92425 26.9657 7.03722 27.5571Z" fill="black"/>
<path d="M57.9528 45.8891C55.5874 45.1204 53.1628 44.4107 51.8618 38.6155C50.62 43.9968 48.6094 44.943 45.7709 45.8891C50.4426 47.4267 51.1522 49.9695 51.8618 53.1628C53.1037 47.6632 55.2325 46.7762 57.9528 45.8891Z" fill="#FFE55B"/>
<path d="M50.3243 53.5176C49.6738 50.6199 49.2007 48.6685 45.2386 47.3675C43.8194 46.8944 43.8194 44.8838 45.2386 44.3516C47.604 43.5828 49.2007 43.0506 50.3243 38.2015C50.6791 36.6049 52.9854 36.6049 53.3993 38.2015C54.5229 43.1689 56.2969 43.642 58.485 44.3516C59.9042 44.8247 59.9042 46.8944 58.485 47.3675C56.1787 48.1363 54.5229 48.6685 53.3993 53.5176C52.9854 55.1734 50.6791 55.1734 50.3243 53.5176ZM49.3781 45.8891C50.5017 46.6579 51.2704 47.5449 51.8618 48.4911C52.5123 47.3084 53.3402 46.4805 54.1681 45.8891C53.3402 45.2978 52.5123 44.4699 51.8027 43.1689C51.1522 44.4107 50.3243 45.2978 49.3781 45.8891Z" fill="black"/>
</g>
<defs>
<clipPath id="clip0_109_4411">
<rect width="136.78" height="145" fill="white"/>
</clipPath>
</defs>
</svg>
