<svg width="42" height="42" viewBox="0 0 42 42" fill="none" xmlns="http://www.w3.org/2000/svg">
<path d="M40.9504 15.6464C40.7405 15.1064 40.7405 15.1064 40.1342 15.3064C40.1108 15.3064 40.1108 15.3264 40.0875 15.3464C40.6939 16.5463 40.3674 17.7063 39.4578 18.7862C39.0147 19.3462 38.5016 19.4862 37.8719 19.2862C37.4288 19.1262 36.9856 18.9262 36.5658 18.7062C35.7729 18.2662 34.9333 18.3862 34.187 19.0262C33.6505 19.5062 33.324 20.1061 33.1374 20.7661C32.9042 21.506 32.7176 22.246 32.4844 22.9659C32.2279 23.7259 31.7614 24.2459 30.8518 24.2659C30.8752 24.4459 30.8985 24.6058 30.9451 24.8058C30.8985 24.7858 30.8752 24.7658 30.8518 24.7658C30.6886 24.5859 30.5253 24.4059 30.3854 24.2059C29.1027 22.526 28.4963 20.5661 28.403 18.4262C28.2164 14.5665 29.1726 10.8067 30.9918 7.16691C31.4816 6.16697 31.9014 5.12704 32.0413 4.0471C32.1579 3.18715 31.8314 2.58719 31.0384 2.30721C30.0589 1.96723 29.2193 1.46726 28.4263 0.867296C27.027 -0.212638 25.3711 -0.192639 23.6219 0.427323C22.8056 0.727305 22.1992 1.24727 21.9194 2.08722C21.7794 2.5072 21.6628 2.94717 21.4996 3.36714C21.313 3.84711 21.1031 4.30709 20.8932 4.78706C20.7766 5.02704 20.6133 5.24703 20.5434 5.50701C20.2402 6.48695 19.9836 7.4469 19.4239 8.36684C18.0479 10.6267 16.4386 12.7266 14.3629 14.4665C12.777 15.7864 11.0045 16.8063 8.99877 17.3063C8.78886 17.3663 8.55564 17.4063 8.32242 17.4463C8.36906 17.3663 8.41571 17.3263 8.48567 17.3063C8.83551 17.1663 8.95212 16.9063 8.95212 16.5863C8.95212 16.5263 8.95212 16.4863 8.95212 16.4263C8.97544 15.5264 8.50899 15.0864 7.5761 15.0664C7.29623 15.0664 7.01636 15.0464 6.75982 15.0264C5.92021 14.9064 5.12725 14.7065 4.4509 14.2065C3.84452 13.7465 3.75123 13.2665 4.14771 12.5866C4.4509 12.0666 4.82406 11.5866 5.17389 11.0867C5.71031 10.3067 5.78028 9.58677 5.26718 8.86681C5.03396 8.54683 4.89402 8.12685 4.80073 7.72688C4.68412 7.20691 4.96399 6.82693 5.47708 6.58695C6.2234 6.22697 6.85311 6.34696 7.31955 6.92693C7.45949 7.08692 7.55278 7.26691 7.66939 7.4469C7.80932 7.68688 7.94926 7.94686 8.11251 8.16685C8.62561 8.88681 9.32528 9.36678 10.3515 9.36678C10.3981 9.20679 10.4448 9.0668 10.4914 8.88681C9.58183 8.82681 9.04541 8.32684 8.62561 7.66688C8.36906 7.26691 8.11251 6.86693 7.83265 6.50695C7.52945 6.12698 7.10965 5.88699 6.59656 5.787C5.5937 5.60701 4.56751 6.28697 4.40425 7.24691C4.31096 7.72688 4.4509 8.14685 4.68412 8.52683C5.0806 9.18679 5.10393 9.86675 4.73077 10.6067C4.59083 10.8867 4.42758 11.1667 4.28764 11.4267C3.98445 11.9866 3.63461 12.5066 3.37807 13.0866C3.07488 13.7865 3.21481 14.3065 3.84452 14.6665C4.241 14.8864 4.6608 15.0664 5.10393 15.1864C5.8036 15.3664 6.54991 15.5064 7.27291 15.6464C7.62274 15.7064 7.80932 15.9064 7.85597 16.2264C7.87929 16.4263 7.92594 16.6263 7.87929 16.8263C7.73936 17.5263 7.66939 18.2262 7.41284 18.8862C6.82978 20.3661 6.20008 21.846 5.52373 23.3059C4.05442 26.4657 2.35188 29.5256 0.229544 32.3654C-0.120292 32.8253 -0.0736467 33.1253 0.392801 33.4053C0.812604 33.6653 1.25573 33.9053 1.67553 34.1453C3.82119 35.3452 6.06014 36.4051 8.32242 37.3851C10.1182 38.145 11.9141 38.865 13.8265 39.365C17.2782 40.2849 20.8232 40.9049 24.4848 41.1048C25.2312 41.1448 25.3711 41.0448 25.511 40.3249C25.511 40.3049 25.511 40.2849 25.5343 40.2649C25.9075 38.085 26.5139 35.9452 27.2369 33.8053C28.1698 31.0655 29.2892 28.3856 30.5487 25.7658C30.6886 25.4858 30.8052 25.2858 31.155 25.2858C31.3416 25.2858 31.5515 25.1658 31.7381 25.0858C32.3212 24.7858 32.7643 24.3259 33.1141 23.7659C33.5806 23.0059 33.7671 22.186 33.8838 21.346C33.977 20.5461 34.3036 19.8261 34.9799 19.2662C35.4464 18.8662 35.8662 18.8062 36.3559 19.0662C36.5892 19.1862 36.8224 19.3262 37.0556 19.4662C38.3617 20.1861 39.7843 19.7861 40.5773 18.4262C41.0904 17.5063 41.3003 16.5863 40.9504 15.6464ZM23.482 1.20728C24.9046 0.487319 26.304 0.347328 27.68 0.987289C27.9366 1.10728 28.1465 1.30727 28.333 1.50726C28.7062 1.92723 29.1493 2.22721 29.7324 2.3672C30.2688 2.4872 30.6886 2.78718 31.1084 3.10716C31.4582 3.36714 31.5748 3.72712 31.5515 4.16709C31.5049 4.98704 31.1784 5.747 30.6653 6.44696C29.8023 7.60689 29.1027 8.84681 28.5896 10.1467C28.403 10.6267 28.403 10.5067 28.7762 10.7267C28.8461 10.7667 28.9394 10.8267 29.0094 10.8667C29.0094 10.8867 28.9861 10.9067 28.9861 10.9267C25.8142 10.4867 22.8756 9.54677 20.1469 8.08686C20.1469 8.06686 20.1702 8.04686 20.1702 8.02686C20.1935 8.02686 20.2402 8.02686 20.2635 8.02686C20.7533 8.08686 20.7766 8.08686 20.8932 7.62688C20.9865 7.22691 21.0798 6.82693 21.0798 6.42696C21.1031 5.84699 21.2663 5.28703 21.4996 4.72706C21.7561 4.0871 21.9194 3.44714 22.106 2.78718C22.3159 2.08722 22.7823 1.56725 23.482 1.20728Z" fill="black"/>
<path d="M23.7618 26.3257C23.9251 26.4057 24.0417 26.5057 24.1116 26.5857C24.1816 26.6857 24.1816 26.7657 24.1583 26.8657C24.135 26.9457 24.065 27.0257 23.9717 27.0856C23.8784 27.1456 23.7385 27.1656 23.5752 27.1656H22.7123C22.4791 27.7056 22.2692 28.2256 22.1059 28.7655C21.9427 29.3055 21.8261 29.8455 21.7561 30.3655C21.6861 30.8854 21.6861 31.4254 21.7561 31.9654C21.8261 32.4853 21.966 33.0053 22.2225 33.5253C22.3391 33.7052 22.3625 33.8652 22.2925 34.0052C22.2225 34.1452 22.1292 34.2652 21.9893 34.3452C21.8494 34.4252 21.6861 34.4652 21.4995 34.4652C21.313 34.4652 21.173 34.4052 21.0331 34.3052C20.5666 33.8652 20.2168 33.3853 20.0069 32.8453C19.797 32.3053 19.6804 31.7454 19.6804 31.1454C19.6571 30.5454 19.727 29.9455 19.867 29.3055C20.0069 28.6656 20.1935 28.0256 20.4267 27.3856C19.6571 27.5256 18.9341 27.6856 18.2111 27.8656C17.4881 28.0656 16.8117 28.2456 16.1587 28.4256C15.599 29.2255 15.0159 30.0055 14.4095 30.7454C13.8265 31.4854 13.1968 32.1453 12.5437 32.7053C11.8907 33.2653 11.2377 33.7052 10.5147 34.0452C9.81503 34.3652 9.06871 34.5252 8.29907 34.4852C7.76266 34.4652 7.29621 34.3252 6.89973 34.0652C6.50325 33.8052 6.20006 33.4853 5.99015 33.0853C5.78025 32.6853 5.68696 32.2453 5.71029 31.7454C5.73361 31.2454 5.89686 30.7454 6.20006 30.2255C6.29335 30.0655 6.43328 29.9655 6.64318 29.9255C6.82976 29.8855 7.01634 29.8655 7.20292 29.9055C7.36617 29.9455 7.50611 30.0055 7.5994 30.1255C7.69269 30.2455 7.69269 30.3854 7.62272 30.5454C7.22624 31.2254 7.15627 31.7254 7.43614 32.0453C7.71601 32.3653 8.2291 32.5453 8.9521 32.5453C9.30193 32.5453 9.65177 32.4653 10.0016 32.3053C10.3514 32.1453 10.7013 31.9054 11.0278 31.6054C11.3776 31.3054 11.7041 30.9454 12.054 30.5454C12.4038 30.1255 12.7536 29.6855 13.1035 29.1855C12.6137 29.2855 12.1473 29.3255 11.7041 29.3455C11.261 29.3655 10.8412 29.3255 10.4447 29.2255C10.0482 29.1255 9.65177 28.9655 9.30193 28.7455C8.92877 28.5256 8.57894 28.2256 8.25243 27.8256C8.04252 27.6256 7.90259 27.4456 7.83262 27.2656C7.78598 27.0857 7.78598 26.9657 7.85594 26.8657C7.92591 26.7657 8.04252 26.7257 8.2291 26.7257C8.39236 26.7257 8.60226 26.8057 8.83549 26.9657C9.25529 27.2456 9.69841 27.4056 10.1882 27.4456C10.678 27.5056 11.1677 27.4856 11.6808 27.4256C12.1939 27.3656 12.707 27.2656 13.2201 27.1256C13.7332 26.9857 14.2463 26.8657 14.7127 26.7657C15.3191 25.8457 15.9488 24.9058 16.6018 23.9458C17.2549 22.9859 17.9312 22.106 18.6542 21.326C19.3772 20.5261 20.1235 19.8461 20.9165 19.3061C21.7094 18.7462 22.549 18.4062 23.4353 18.2662C23.8318 18.2062 24.1816 18.2062 24.4848 18.2662C24.788 18.3262 25.0212 18.4662 25.2078 18.6662C25.3711 18.8662 25.4877 19.1461 25.511 19.5061C25.5343 19.8661 25.4877 20.2861 25.3244 20.806C25.0912 21.666 24.7414 22.5459 24.2982 23.4459C23.8551 24.3458 23.4353 25.2458 23.0155 26.1257L23.7618 26.3257ZM21.5462 21.386C20.8932 21.886 20.2401 22.5859 19.6104 23.4659C18.9574 24.3458 18.3044 25.3058 17.628 26.3457C18.2111 26.2457 18.7708 26.1657 19.3306 26.1057C19.8903 26.0457 20.45 26.0057 21.0098 26.0057C21.3596 25.2458 21.7094 24.4858 22.0593 23.7659C22.4091 23.0459 22.7356 22.3659 22.9922 21.726C23.1788 21.266 23.2254 20.966 23.1788 20.806C23.1321 20.666 22.9922 20.606 22.8056 20.646C22.619 20.686 22.4091 20.786 22.1526 20.946C21.9427 21.086 21.7094 21.246 21.5462 21.386Z" fill="#C4C4C4"/>
</svg>
