<svg width="14" height="15" viewBox="0 0 14 15" fill="none" xmlns="http://www.w3.org/2000/svg">
<path fill-rule="evenodd" clip-rule="evenodd" d="M3.45842 4.24992C3.45842 2.29391 5.04407 0.708252 7.00008 0.708252C8.95609 0.708252 10.5417 2.29391 10.5417 4.24992C10.5417 6.20593 8.95609 7.79158 7.00008 7.79158C5.04407 7.79158 3.45842 6.20593 3.45842 4.24992ZM7.00008 1.95825C5.73443 1.95825 4.70842 2.98427 4.70842 4.24992C4.70842 5.51557 5.73443 6.54158 7.00008 6.54158C8.26573 6.54158 9.29175 5.51557 9.29175 4.24992C9.29175 2.98427 8.26573 1.95825 7.00008 1.95825Z" fill="black"/>
<path fill-rule="evenodd" clip-rule="evenodd" d="M3.66675 10.2916C2.63121 10.2916 1.79175 11.1311 1.79175 12.1666V13.1568C1.79175 13.1719 1.80268 13.1848 1.81756 13.1872C5.24985 13.7476 8.75031 13.7476 12.1826 13.1872C12.1975 13.1848 12.2084 13.1719 12.2084 13.1568V12.1666C12.2084 11.1311 11.3689 10.2916 10.3334 10.2916H10.0494C10.0274 10.2916 10.0056 10.2951 9.98469 10.3019L9.26343 10.5374C7.79274 11.0176 6.20742 11.0176 4.73673 10.5374L4.01547 10.3019C3.99459 10.2951 3.97277 10.2916 3.95081 10.2916H3.66675ZM0.541748 12.1666C0.541748 10.4407 1.94086 9.04158 3.66675 9.04158H3.95081C4.10455 9.04158 4.25733 9.0659 4.40348 9.11362L5.12474 9.34913C6.34331 9.74703 7.65686 9.74703 8.87543 9.34913L9.59669 9.11362C9.74284 9.0659 9.89561 9.04158 10.0494 9.04158H10.3334C12.0593 9.04158 13.4584 10.4407 13.4584 12.1666V13.1568C13.4584 13.7845 13.0035 14.3197 12.384 14.4208C8.81833 15.003 5.18183 15.003 1.61614 14.4208C0.996651 14.3197 0.541748 13.7845 0.541748 13.1568V12.1666Z" fill="black"/>
</svg>
